<mxfile host="65bd71144e" pages="5">
    <diagram name="About page" id="2cc2dc42-3aac-f2a9-1cec-7a8b7cbee084">
        <mxGraphModel dx="1457" dy="1763" grid="1" gridSize="10" guides="1" tooltips="1" connect="1" arrows="1" fold="1" page="1" pageScale="1" pageWidth="1100" pageHeight="850" background="none" math="0" shadow="0">
            <root>
                <mxCell id="0"/>
                <mxCell id="1" parent="0"/>
                <mxCell id="7026571954dc6520-1" value="" style="strokeWidth=1;shadow=0;dashed=0;align=center;html=1;shape=mxgraph.mockup.containers.browserWindow;rSize=0;strokeColor=#666666;mainText=,;recursiveResize=0;rounded=0;labelBackgroundColor=none;fontFamily=Verdana;fontSize=12" parent="1" vertex="1">
                    <mxGeometry x="30" y="20" width="1050" height="920" as="geometry"/>
                </mxCell>
                <mxCell id="7026571954dc6520-2" value="About" style="strokeWidth=1;shadow=0;dashed=0;align=center;html=1;shape=mxgraph.mockup.containers.anchor;fontSize=17;fontColor=#666666;align=left;" parent="7026571954dc6520-1" vertex="1">
                    <mxGeometry x="60" y="12" width="110" height="26" as="geometry"/>
                </mxCell>
                <mxCell id="7026571954dc6520-3" value="https://www.superlife.io/" style="strokeWidth=1;shadow=0;dashed=0;align=center;html=1;shape=mxgraph.mockup.containers.anchor;rSize=0;fontSize=17;fontColor=#666666;align=left;" parent="7026571954dc6520-1" vertex="1">
                    <mxGeometry x="130" y="60" width="250" height="26" as="geometry"/>
                </mxCell>
                <mxCell id="7026571954dc6520-4" value="&lt;b&gt;Welcome!&lt;/b&gt;" style="text;html=1;points=[];align=left;verticalAlign=top;spacingTop=-4;fontSize=30;fontFamily=Verdana" parent="7026571954dc6520-1" vertex="1">
                    <mxGeometry x="30" y="300" width="340" height="50" as="geometry"/>
                </mxCell>
                <mxCell id="7026571954dc6520-9" value="&lt;span style=&quot;font-family: Roboto, sans-serif; font-size: 20px;&quot;&gt;Super Life is an app that uses machine learning to help you make better financial decisions when you purchase medical insurance premium!&lt;/span&gt;" style="text;html=1;points=[];align=left;verticalAlign=top;spacingTop=-4;fontSize=12;fontFamily=Verdana;whiteSpace=wrap;" parent="7026571954dc6520-1" vertex="1">
                    <mxGeometry x="30" y="365" width="470" height="40" as="geometry"/>
                </mxCell>
                <mxCell id="7026571954dc6520-15" value="" style="verticalLabelPosition=bottom;shadow=0;dashed=0;align=center;html=1;verticalAlign=top;strokeWidth=1;shape=mxgraph.mockup.markup.line;strokeColor=#999999;rounded=0;labelBackgroundColor=none;fillColor=#ffffff;fontFamily=Verdana;fontSize=12;fontColor=#000000;" parent="7026571954dc6520-1" vertex="1">
                    <mxGeometry y="540" width="1050" height="20" as="geometry"/>
                </mxCell>
                <mxCell id="7026571954dc6520-17" value="&lt;span style=&quot;font-family: roboto, sans-serif; font-size: 20px;&quot;&gt;Our backend AI program has been trained on medical insurance data, and will indicate to you what is the most reasonable price for a year's worth of health insurance!&lt;/span&gt;&lt;br style=&quot;box-sizing: border-box; font-family: roboto, sans-serif; font-size: 20px;&quot;&gt;&lt;br style=&quot;box-sizing: border-box; font-family: roboto, sans-serif; font-size: 20px;&quot;&gt;&lt;span style=&quot;font-family: roboto, sans-serif; font-size: 20px;&quot;&gt;To make the best out of this application, only intrapolation is allowed, that means only values within the range used to train the model are valid.&lt;/span&gt;" style="text;spacingTop=-5;whiteSpace=wrap;html=1;align=left;fontSize=12;fontFamily=Helvetica;fillColor=none;strokeColor=none;rounded=0;shadow=1;labelBackgroundColor=none;" parent="7026571954dc6520-1" vertex="1">
                    <mxGeometry x="450" y="630" width="570" height="240" as="geometry"/>
                </mxCell>
                <mxCell id="7026571954dc6520-21" value="" style="verticalLabelPosition=bottom;shadow=0;dashed=0;align=center;html=1;verticalAlign=top;strokeWidth=1;shape=mxgraph.mockup.markup.line;strokeColor=#999999;rounded=0;labelBackgroundColor=none;fillColor=#ffffff;fontFamily=Verdana;fontSize=12;fontColor=#000000;" parent="7026571954dc6520-1" vertex="1">
                    <mxGeometry y="850" width="1050" height="20" as="geometry"/>
                </mxCell>
                <mxCell id="7026571954dc6520-22" value="" style="verticalLabelPosition=bottom;shadow=0;dashed=0;align=center;html=1;verticalAlign=top;strokeWidth=1;shape=mxgraph.mockup.graphics.simpleIcon;strokeColor=#999999;fillColor=#ffffff;rounded=0;labelBackgroundColor=none;fontFamily=Verdana;fontSize=12;fontColor=#000000;" parent="7026571954dc6520-1" vertex="1">
                    <mxGeometry x="40" y="630" width="370" height="192.5" as="geometry"/>
                </mxCell>
                <mxCell id="FJW8aGQJlrBBaELOyZ9q-22" value="" style="verticalLabelPosition=bottom;shadow=0;dashed=0;align=center;html=1;verticalAlign=top;strokeWidth=1;shape=mxgraph.mockup.graphics.simpleIcon;strokeColor=#999999;fillColor=#ffffff;rounded=0;labelBackgroundColor=none;fontFamily=Verdana;fontSize=12;fontColor=#000000;" parent="7026571954dc6520-1" vertex="1">
                    <mxGeometry x="570" y="275" width="425" height="220" as="geometry"/>
                </mxCell>
                <mxCell id="FJW8aGQJlrBBaELOyZ9q-45" value="" style="rounded=0;whiteSpace=wrap;html=1;" parent="7026571954dc6520-1" vertex="1">
                    <mxGeometry y="110" width="1050" height="60" as="geometry"/>
                </mxCell>
                <mxCell id="7026571954dc6520-36" value="Copyright 2022 All rights reserved" style="text;spacingTop=-5;whiteSpace=wrap;html=1;align=left;fontSize=12;fontFamily=Helvetica;fillColor=none;strokeColor=none;rounded=0;shadow=1;labelBackgroundColor=none;" parent="7026571954dc6520-1" vertex="1">
                    <mxGeometry x="10" y="870" width="900" height="50" as="geometry"/>
                </mxCell>
                <mxCell id="FJW8aGQJlrBBaELOyZ9q-46" value="" style="strokeWidth=1;shadow=0;dashed=0;align=center;html=1;shape=mxgraph.mockup.text.rrect;rSize=0;strokeColor=#666666;" parent="7026571954dc6520-1" vertex="1">
                    <mxGeometry x="450" y="120" width="520" height="40" as="geometry"/>
                </mxCell>
                <mxCell id="FJW8aGQJlrBBaELOyZ9q-47" value="&lt;font color=&quot;#000000&quot;&gt;Login&lt;/font&gt;" style="strokeColor=inherit;fillColor=inherit;gradientColor=inherit;strokeWidth=1;shadow=0;dashed=0;align=center;html=1;shape=mxgraph.mockup.text.rrect;rSize=0;fontSize=17;fontColor=#0000ff;" parent="FJW8aGQJlrBBaELOyZ9q-46" vertex="1">
                    <mxGeometry x="117.74" width="127.55" height="40" as="geometry"/>
                </mxCell>
                <mxCell id="FJW8aGQJlrBBaELOyZ9q-48" value="" style="strokeColor=inherit;fillColor=inherit;gradientColor=inherit;strokeWidth=1;shadow=0;dashed=0;align=center;html=1;shape=mxgraph.mockup.text.rrect;rSize=0;fontSize=17;fontColor=#0000ff;" parent="FJW8aGQJlrBBaELOyZ9q-46" vertex="1">
                    <mxGeometry x="245.28" width="156.98" height="40" as="geometry"/>
                </mxCell>
                <mxCell id="FJW8aGQJlrBBaELOyZ9q-49" value="&lt;font color=&quot;#000000&quot;&gt;Logout&lt;/font&gt;" style="strokeColor=inherit;fillColor=inherit;gradientColor=inherit;strokeWidth=1;shadow=0;dashed=0;align=center;html=1;shape=mxgraph.mockup.text.rrect;rSize=0;fontSize=17;fontColor=#0000ff;" parent="FJW8aGQJlrBBaELOyZ9q-46" vertex="1">
                    <mxGeometry x="402.26" width="117.74" height="40" as="geometry"/>
                </mxCell>
                <mxCell id="FJW8aGQJlrBBaELOyZ9q-50" value="Home" style="strokeWidth=1;shadow=0;dashed=0;align=center;html=1;shape=mxgraph.mockup.text.rrect;rSize=0;fontSize=17;fontColor=#ffffff;fillColor=#008cff;strokeColor=#008cff;" parent="FJW8aGQJlrBBaELOyZ9q-46" vertex="1">
                    <mxGeometry width="122.64" height="40" as="geometry"/>
                </mxCell>
                <mxCell id="FJW8aGQJlrBBaELOyZ9q-51" value="&lt;font style=&quot;&quot; color=&quot;#000000&quot;&gt;Predictions&lt;/font&gt;" style="strokeWidth=1;shadow=0;dashed=0;align=center;html=1;shape=mxgraph.mockup.forms.comboBox;strokeColor=#999999;fillColor=#ddeeff;align=left;fillColor2=#aaddff;mainText=;fontColor=#666666;fontSize=17;spacingLeft=3;" parent="FJW8aGQJlrBBaELOyZ9q-46" vertex="1">
                    <mxGeometry x="250.19" width="147.17" height="40" as="geometry"/>
                </mxCell>
                <mxCell id="FJW8aGQJlrBBaELOyZ9q-58" value="&lt;h2 style=&quot;box-sizing: border-box; margin-top: 0px; margin-bottom: 0.5rem; font-family: Oswald, sans-serif; line-height: 1.2;&quot; class=&quot;display-6 fw-bold text-left&quot;&gt;&lt;font style=&quot;font-size: 24px;&quot;&gt;Super Life has got you covered!&lt;/font&gt;&lt;/h2&gt;" style="text;html=1;points=[];align=left;verticalAlign=top;spacingTop=-4;fontSize=30;fontFamily=Verdana" parent="7026571954dc6520-1" vertex="1">
                    <mxGeometry x="450" y="550" width="340" height="50" as="geometry"/>
                </mxCell>
                <mxCell id="FJW8aGQJlrBBaELOyZ9q-59" value="" style="shape=image;verticalLabelPosition=bottom;labelBackgroundColor=default;verticalAlign=top;aspect=fixed;imageAspect=0;image=data:image/png,iVBORw0KGgoAAAANSUhEUgAAAEAAAABACAYAAACqaXHeAAAABHNCSVQICAgIfAhkiAAAAAlwSFlzAAABbgAAAW4BhFBfJAAAABl0RVh0U29mdHdhcmUAd3d3Lmlua3NjYXBlLm9yZ5vuPBoAAA3CSURBVHiczZt7fFTVtce/+5x5ZfJgBgImAQR5KOADRS5gsCCgVAEFexWkWigkoLZCBVuVej8f5fNBQCkWsVQDiRTkWkU+5SGgLSoCGgJFkMdFCQ+RVwIE8k7mdc6+f0xmMkPmTYL9/ZXsfdbaa/3mnL3XXnttIaXkWkP0fdJoMWm/EpLpEmkWiKX1bjVP7smru+a2XEsCxC1jTebU1MkC8SLQKbhXXhCIhfUW81/l1iU118yma0GAGDLJYnYoUwTKCyDb+9pbWXUsRsn5SjXw8Usg33BI519k0aqqFretJQkQvSckJyWZn5JC/h7I8LW3TtGYdn8lTw+vwmSQ/O3LVBZutHH2siFQvBzBIotZW1y+dXlFi9nYEgSIu3NSLbp4BslMIN3X3jZN43cjKpk6rIoUix4k4/II3tueyoKPbZwqayRCQKUUcrEJsaiyMP9ys9vanATYh0yyOZzqdCTPAnZfe6ZdY8aICnKGVpFkijyeWxO8/1UKCzbYOHHBGNhVjZBLjC7Dwqo9eWXNZXOzEJDWf2Ibt2KcAUwD0nztHdp4eG5UBb++pxqzIb5xNB0+KExlwQYbxSVBRNRKwdsGXfyppmjZ+au1/aoISB34dDu37n5OwG+AFF9757Ye/vBgOY//rAZTnI5fCV3CmqIUXltv47uzpoAeUS8leapHeb12T15JovoTIiC575OZmkF/Xgg5FbD62rtluPnDQxWMz67BoDbv3CIlrPt3MvPX2zl4KpAIHALykeK1uqJlZ+LVGxcB1n6TO2IQL0gpcgGzr71nexfPP1TBIwNqUJV4TYgPUsKmfcnMW2dj3w/mwC4XkuWozKv/Ov/HWPXFREBS/yk3oMhZwETAT/8tHV28OKacMf9ViyLi8KKZ8M/9VuautfPv40FEuEGsRNPn1u8uOBFNR0QCLAMmdRdC/SPwBOBfm+64wcmsMRWMvKMW8RM4fiU+P5TEvLV2Costgc0e4H+l1F51FC0/Gk42LAHW7KnZUurbAX+Y1q+bk1ljyvl578RC9kvVKntOmCkpVzlbbqCkXEXXBZl2D5l2jSy7h96dXLRv7UlI/7bDScxfb2Pb4aTAZk3Cw46d+R+HkjGEagTQ0WYIhApwdw8HL44pZ+jN9XEbdfy8kQ17ktm010rRUQt6DFPO7Z2djOxTx+i+tdzS0RXzWIN71TO4Vz2FxRbmr7Pz2cEkAFXAS0BIAiK8AbnrpGR0xzYejiw6FbMRPpSUq8xe05pVO1LDO20wghDgDu/kqD61zHnsMjdmuuO24b45WXx9xIKA/XU7828PaUI0JfF+4y6P4PUNNhZtslHnahSWyanoXXuide2BtLWBlDSkueGbdbsQNVWIynKUH46gHjuMqCwHYOPeZD7dbyV3aDWvPHqZtCQ91LAhEcvEHJWAeHC+UuWxRdex61jjZKR3vAHPwOHoHToBYSwympD2dKQ9Hb1zdzxDRqFcOIe68wvUo/+HRxO8syWNLw4lsXpGaUJvQzg0GwF7jpsZ92YGJeXeOVPa03HfMwK9a8+E9OntstBHP4F25iSGLzehlJ6huMTIoFfa87enL3D/7c2TO2mWsOWbE2aGv5rld17v1gvnhGkJOx8IvUNnXL98Cq13fwCq6hQeeSODzfusUSRjw1UTUFqhMnZRBg639/X29L8H15gnwGiKIhkHFBX3fWNwD3sIFAVdwuS32/H9OWN02Wiqr0bY6RGMW9T42nv6Dcbzs58T9lu/Smh33OUlAaiqVxj35wwq667uN7yqOWDBBps/DNW79mxwPjKUsz+iHD2EuGJtlIpA734LevtOYSS90Hr3R7lYivptEUdLjfzxgzYsmXwxYR8SJqC0QuXNzTYAZKvWuEaOi75m6hrGtSsQjtABlTz0Dc7fvASKGrLfB/fQBxEXzqGcO8XKban8dnglvTrEHjAFIuH3Z84/7NQ6G777QfeDyRxFAoTbHdZ5AOGoR7hjWOIUBc+QUYBA02HW31vHanZTVYkInb1sYMU2b+JHz7oe7aZb49bhefROHJ9Mx/HJdDyP3hm3vJ7ZEa3HbQBsOWBl97HoP0AoJETApr1WtIaAzJM9LKGBmwOBY6/fk5yQjoQI2LjXO5g0W9Cv75bQwM0B2botMv06ADbtTYyAuCfBaofC9u+8oa7epQcoYTh0uxB1tcFtLmf0AaoqEFfMJ9KSBGZLyMe1br0wlJ2nuMTI0VIj3TPiC5PjJuDgKRMuj3fy07vcFPIZpeQ0ptX5EXd54VYM84o3mzaqKu5R49G639ykS+9yExRtBbzheLwExP0J+IIewLurC6X0ZHFk5wHZ0d74dwd7hCcBTUM5/l1oPQE2lFTEv6rHLVFS3igik1NDPxSQY/A83h9Mweu6zLKhZXf1/68N6wEWI6K0sqmBK4u8hwRh8hYyKdn7Gep60I8TK+InoMI3iAhPQAC0h29HJkdZolQFbVD3kF2GVbtAiyArBNKagqipCvpxYkULJ7H/8xE3ZZk2388hEbXVyDRb5AGW7gBDMM8yoxWeh3qDuWH4ejeGj/cjzoc4DdeiZICkRNR5ywky7fEnU+MnIGCQsAQExPLqvw6H1CMtRrQHvZGcuuUwhuWFkQcOsz8Q9bWg6w22RfpWwqiNVyBwEFFxKeQzWvebka0iz+yirCbk36EgrSlovULmNINsyLQ14xsgJdXgDXwCcev1LkwGicsjUE4cQevZ1DDZph3OKc83NdbpwPzWbP8AoeCc9nJjsjQGKCeO+P/u2zU40Kpp2KxJvL6ElA+rWXAUoLxGoay68fVLtegM6uloGPx7/+v3U0E95v3Ebsx0NwmCjpf6M0bHwsmHJUAg/MdJR65IPY3q4w1xhdOBciqs7haHuHwRUeYtERjZJzjsPl+pUlXvc08kQICmBxAQnN8b2afOfwpsKPw8PqubEYFjj+4bTMDRgKIKgR72bDAsAXXCWQzoANsOB3+T7Vt7mDjYu2Qp506hHjkYj90AGD76BssDi7E8sBjDR9/ELa+UnEb9/gAA991WR79uwd//V0cazwcVRS0OqydchyxaVSUEn4B3r32pOngZ+p9flJNs9k5khu2fxrTTk0ajd2cXrt+ShDTGkOnVdQxbNwISVYF544NrpzQd3t3qj1KP1RYu2x9OVcQ4QJdyqUCMdHkEK7enMmNkY7Vahk3jdyMqmLvWjqi8jGnTh7jG/CpyXlBRcT88MWJSNFo+EMD4xcco57znlRMGVzfJB376rZUzl7yuCUmejFADELE+QIwdq1pOt/oRZPuu17k5sOB0kH9Oj2D4nCx/ZtjTb7A3P9iCUPfvwrhlHQDdM9xsn32WVtbglWj0ggy2HLACOI26u33VrhWhAxaiBEJy9WoNKQvAe8z94c6UoH6zQfLhs6X+4MiwexuGHf8EWqb4Ut23E+PnGwBIS9L5cEZpE+d3HzPz2UH/qdFHkZyHGCJBxSDzaAgknnsv/cqyVjJsGqufLcVibJgPdn2Jad2qqPmAuKBrGLes8zqv6ygC3n36Aj2ygtd9h1swdWk7X4ylKYI3oqmOSkDtVwXngJngDYqmL09v8sydXZz866Vz/jdBOXYY88q3wiYx4oFy5iSm999B3b8LgDSrzpqZpYy4o+nh6Ow1rQNrCv9UW5i/L5r+mKvEku7K3Qw8AFDw1AXGD2wavyd8PB4CgcfjPtyY6Q57PF5YbGH4nCxfMcZhh93aR25eHHVpipmA5LtzsnRNHALsJoNkxW8vNAk+oPkLJAAMqoxYIFFYbOEXCzOo8p4TakKQXVeYvzsWv+KrExww5REp5AeAqiqwJOciEwaF3mdcqxKZLQesjH/zugCy5Uv1OwvmxupT3JWi1gE5/y2FeB8wCQGvPHqZ50ZVhC1Hackiqfd2pPJMQTpuTQBIgfx93c6CqBNfIBIqlU26K+deEGtpqA++u4eDpVMv0Llt5P14c5XJlVWrPPNuOhsaT4M8CJlTX1iwMl5fEi6Wtmbn9pOwDkkmQIpFZ974y+QMbdlLHhv2JPPMu+mBW/QqKZTHHYVLNyai76qqxVtl57Z2Sf4KjPO13XtrPe9MuUhWAvm5SKisU5i5Mp2/fx0UjH0uDOrkuh158dfxNaBZ7gtY75oyTiKXAG3AexfozxPLeCy7ee4+fXYwiaeWteVcY9q7TgpecO4sWBIpzo8FzXZjJKXfpAxdVZZJxChf2+i+tbw1uYz01PiTlQC1TsGs99uQ/0VaY6Nkp0SbGKn+Nx40+52hpOzcyUgWAangvSf0l8llPHhn05ghEr4+YmHq0rb80HhtxiWkeLn++soFcvXqxBgNgRa5NJU0MLcTOsuBIb62Xw6sYeGEsiablyvhcAtmr2nNW5+08i+ZUvKtVLQJzsLl8WdeoqDFrs0JIYR5QO40AfNBJoE3k/R27kXuvTV0mczeH8xMyWsbeDVGA+Y73OpsuSev+cpDA+1s6YuTlv5TbxSKvhLo72ubMqyKueMv+TNKbk3w2nobr2+w4dEaIirJEaEwIdaQNlFcm5ujY8eqltOpL4B4mYYbJ13auVn65EXsyTo577Tl25P+A1QpBIvrqZolC1fHX58fr23X8u6wqX9Ob4MiVkq4DbzV3AZV+gsugJMgJtXvXPbltbLpmhIA3gvUlpS0VxA8T8BtFCDfocqZ8quCsKc4LWLPT3F9HsA6YMoAqeivIoVJSjHPUbRs809hx/8DMDvENwVoSEUAAAAASUVORK5CYII=;" parent="7026571954dc6520-1" vertex="1">
                    <mxGeometry x="235" y="120" width="40" height="40" as="geometry"/>
                </mxCell>
                <mxCell id="FJW8aGQJlrBBaELOyZ9q-60" value="&lt;b style=&quot;font-style: normal; font-variant-ligatures: normal; font-variant-caps: normal; letter-spacing: normal; orphans: 2; text-align: left; text-indent: 0px; text-transform: none; widows: 2; word-spacing: 0px; -webkit-text-stroke-width: 0px; text-decoration-thickness: initial; text-decoration-style: initial; text-decoration-color: initial;&quot;&gt;&lt;font style=&quot;font-size: 24px;&quot; face=&quot;Helvetica&quot;&gt;Super Life&lt;/font&gt;&lt;/b&gt;" style="text;whiteSpace=wrap;html=1;fontSize=24;fontFamily=Verdana;fontColor=#000000;" parent="7026571954dc6520-1" vertex="1">
                    <mxGeometry x="100" y="120" width="200" height="60" as="geometry"/>
                </mxCell>
                <mxCell id="FJW8aGQJlrBBaELOyZ9q-64" value="" style="shape=image;verticalLabelPosition=bottom;labelBackgroundColor=default;verticalAlign=top;aspect=fixed;imageAspect=0;image=data:image/png,iVBORw0KGgoAAAANSUhEUgAAATQAAACwCAYAAACB15LlAAAAAXNSR0IArs4c6QAAAARnQU1BAACxjwv8YQUAAAAJcEhZcwAADsMAAA7DAcdvqGQAABuCSURBVHhe7d1/bJv1nQfwN9c/LPU0o25LVaRYoNobwtBpLkVL1mpx6ZGn684JHamprkm5NemmJkwi2SaS7QQBDRw0lqBbUwRtmGgoGm60EudW6t66OlrAmdqLTytYGtgS4EhU8UZVS1fVrJXv+32ex4mT2I7TkLX+9v2SHvz4if08fn69/fl+n8fllowAIiIF/JP5SERU9hhoRKQMBhoRKYOBRkTKYKARkTIYaESkDAYaESmDgUZEymCgEZEy+EsBIiobly9fNsfyY4VGRGVD1l/FBgYaEZWNW265pejAQCOispEvxHIHBhoRlY18zczcgYFGRMpgoBGRMhhoRKQMBhoRlY18FwJyBwYaESmDvxQgorLx2WefmWP5sUIjImUw0IiobOTec5ZvYJOTiMoGm5xEdNNghUZEZePvf/+7OZYfA42IysZCTU4GGhGVjYUqNPahEZEyGGhEpAwGGhEpg31oRFQ2rly5Yo7lx0AjorLB2zaISBkLVWjsQ1ui5FAz7HY77D0Rcwr9IxXa/umPIgiPRZG8ak5YLsmoWE4EiUvmc7quyjfQzvvRLA9kOdT0I1rqgXuuH+7s+/b4kTQnK+FqBL51ct2c6B5LmxMXS8wju33yDRs0NP64F4Foynz9jSiC/n9tQOMjHnQGlnMPJxH4mUcspwHaS9fvCy3SY+yb5iGljuZrokaFNnkUp6PmeFFphH/bj4T5TDXp8DAG9UohjcGTYfHfpbCgwumEc13u4ID1QgzhY/1o91TB0xdZ4jKWix13b7MCK51Yf4d4XJJswDfDf96cNK0CjvucYktZ4XZUmtPoelKkyZlA/29LOIEvBDF4+MY8BZcuheAbgzPb4IgfwQvm+DWpRsfBEYy8mTsEEXk/itDLTXCIJUX370LrsRuxKrBCey6C+LkRtLks5rTl4dw7gmg8ggOeCnMKXU/lH2jrXHCtFDXJ4cEFT+DE8cMIikebqDyUO/wuhHDiuHis7IDvSacYCWL41DKEzQoLbFu6cegZt3iSRugFP0oqjok+B/n+PwK5Q/kH2he92P0DmxgJ4vDxIo3Jq1EEXpb9HC407/xm0b6zVDQA3z4PqvT+qGy/0SGE5zU5ikkj0qPp73d6ehGZ22mciiG0vxWejc4lLGNGNqydzRq8NV6xlkDoNyeWrXlt2+ZFnRyZnMC72c981mesyx4/Eskw+vdpcMnn3w/M3t5Xk4gc6UZjrct4/TrRfN3nK9ovZ+wTc352F7RHuuEXr79s/n22JPx75Ovs8J01J+VKiWOhrx0N2W2fb/nZdbE34JA+IYSujcY8c/uqFuq/So4dQvsj2c9th6u2Ee0Hw/kvVmSXKS9wiG0UPpjzGcXx0doTQOwmv/ggb8ooNpR/oMWTcHia9RM48nKg8MWByDD6J8WjONm33mlMmk+EUJ8IMk87Dp2MA3cYfUcOyH4jHxofaIZfzmNBcj4N2HUwBthbcOSNDr2KnDYZQOv9Gpr7gohDBJ7sn7IkzGV40Ht2sc1iEY5HjbD21jiA292o1zfIAALn9Bd8/qyrsdocnedTP9rvb0TvyZhoCAtXcmLnUgS9D9ag4YlBhD9dbaz7baL5elKc+J4a0YSdH8GJY62o0feJmN/KCvGeSlycGESXpwotL4v9tBj6tvegfX8AkbSt8PIr1qPt0TYx1OnHlohwuHfL521w31FCM1YEUugpDVWPiKAcS8Bi9kdaPgkj0NOIqm93I1ToW/X9Yfj+rQaNIsDi/yyOD7tVVOAxBEXA1T0mviyW+8rtDSxfVZY7yFQrT5+8kdmzdm1m7dpnMxOZjzOHH5Ljd2We/ONl8wW5Lmfe6b5L/H1tZl/gYiZz5ll9fO333shMma+QLv/xycxdcvoDT2ZOf2JOlK5czLzjqzXe8+hwRsxh2tTRPcZ034Q5JZP5WEzT53PPnswbCXNi1uWJzC8fEH9bW5vpDHxsTjR8/NvHMjX68vdn3rtiTizFn/cb73vosNgShuznqvnVe+aUUk1knpXzWis+e+42mOviicxjc1+X3a5iuMv7y8zp2FTm4uXLmcsXs/tkKjO8V+6HuzIPHZjIXMxZx4sT+zMPyffe81jmxKfmROmT4cyee+Q878rsefW9mfdcuZz5INCZqTWXl7v95XLe+J4x/dkz5iRpetsXWL6+nIcyhz80J+qKb48Jn7GcPUdzj6RM5oNXH9Knr32gMzOcO78rU5nT3eaxJPbXB7n7edb225+ZyN0OH4rj3dwOs9ZJKPQZVHTlypWigyIXBWyoF2W9rIz8pybEf+fIXgxY2YSm2sJXvaYuWdEivoG7n+2Ae405UVphRXVrh9HEOj6BiSIFVGKoGdrjIaRXuuH7rwF451z8Sgw9g35RVNja++DzyKbyDNv2p9CxTYzE++EPl1qlzVy5dW13iy1hqNhSD7lFEi/5UfKsFiFx3I+AHKlcj3tyt5VU2YKBX4ttaK+A1WKBxWpUNOmxfnSeEh9mWw9e2eeCdYU+WWd1teHpdvHpLwVwMKfrIHqsFyHRzLLsOoADu50z71lhEZW5D/0/k/2FpUmdPKhve9R048U8y+/5iV7WYuD4EnsF02G89gtZMTvQ8YIPdbcbk3UrKuD+j35064vyYeBUnma2vv3a4FplPpdu96JlpxxJ473YcnUklD9FAk0ckLUirApcHJi+GPADL6qLtBZstR3oaO9A04Y8oTfdxEpgqsDFh/RZH1pkmIkDueXXB+DNPZB1SYRPyQPdhh335zsRRXDWmJ3t50psSqUnEBySieWGd0tOQK5yY6sMx0uDIuQ/x3vGLiUQOdKFlp+FxBML3I95MW9N7HY4cpvYpuiYX/+yqfu2W6zpfM4qGcHiPD8TNZqqYlu/K5prkndLtVjafLeK/VKaNCbOyKNALL9ha96LQo6avXqTsk58CS3lOyA9Lr5AZV9XTTO8+XbzCge27jT2s38szxdwge3nuFO+Bwh/+Ff9keZTJtBgqYY338WB3IsBHuPoSiZi+mMhybFBdO/zQNtgdOQaQ7ZzuID396P1e4cg51yxrwddG/KdfpOIj8rHBHo9ufOeGapEIOqvuFjaKZU6OWicPNvqsXVWpWSFu9YIiMBbITMgFmOmE3zWsM6Nhif8Yj1F+HYO4cD2Uq8XJ/HB+8Y6BX5oXgyYOzxsbuHURfMk/yvi4/LRDeedJfRbFZXClNn/uXp1gSr9dk3/QusQx8lSljb1iXl8ffUrBa+mV9jvNpYRn8KUPoU+D+oEmuDMc3EgHfYbFwO27UZ9tmIq1Kl6NaGfbFWPdGPwzGewbzM6gWd3DhcwGtKbRlLyxWcwWLTAynfT6pzhS+ZLi0rixDGj6tBq51c91pp6s5l8GMMf6ZMWodBn1NDU6cPQ2xG8tvfaTnyrPd98c4bbbjVf+XnKfpksv79+GDbHiritEtXycTwuYntpKh1G5WZdudTQv/HluxCQOygVaLi9HrtlM2sy2wclmhmnZDPHgqaHtbzNnFyJ37Sj/XgKli0+hP4UxIGnjSaoMezGvebr8hPNr+dCGPmxQ4xHRIXnm3+rxrR8N63OGfYWjU/DRyfgN0/S4GN5qh5Xq9HPJT6Pf7R4VTpfoc94AN17vXDN7TdbBO+z+eabMzyjLcN9gpWw15ijy+zLd+hRVdxkXNTAwrpKfEGfsHQFK8+biFqBJiJLe7hJRIv505/sxYDKNniLdZ7pkoiMyqYp0LTHC1tOh3FJGg7gQIMNzu8fgm+LWFb8EDr/c+5Pg76AynXyMYToX2b/5VpERwZEVIkoXZOnyskOzgq9iooOBEv/veuysGK1eYHknWip4fpl2KvkYwjxD/UJSzCz/KmpAg3wq2mkLqSQSi1t36y+TX6pCe9/II6q/JIfmtvga7bpCznXqqJhAPF4HF0bzAk3McUCTXaledEmD9wjfvS+ZF4M2LkZzhIC6nKxf5kk/i7+xxzNa9WtRvNrhQ3eJ7rhXgnEDu5Cp6j4Zjhwr2YcvoOvDhe4n0ieVOZoMVejOH1U9hVa4H1uKH+low+vGNtjumq9XixYX6U3gEW4HkW4QPUqA2WGDfdsMrfXcXmxZb7k+VLvQxPLv694n2LqeDtcG1yoGljaVU5LlWiWy079UT9O5Pt4V2M48Rvjoop303rjuKGS5Gtm5g7KBRpWOLF5h3Fx4NBB82LAtlIu7VfgK181Dq1Dz/cjknPEJ88eQuvD3Xo1VJJKLw7sNyrFwOPts27Gde7sQp1+sHeh5eeh2XeMp2Pi9XVwfcuD3vECVYRpum9woepzensUuKXlH8iq7UWHXYxMHkLzY4OY9cOAqylEXmxA1YYaNOfcXJvdXukjrWg9HEUqu71ENRUb6UJ7X+m3MFhr96JNLv94J9pz5yWkooNo/6n8+nOhqy5fcz+OZKFyay5LNRrNW0C693UjlPvrD3nD7c/b0K0fml1o3vI5NBNTMUTGIogVP2RuCuoFmpC9OKDLvRiwANe/90CT9/5EetHgssO5sUr/yUrVwz6E7C5znlNI/58+UpSlpgtH9oqmx6UQup7Iubt7lYae141fDsQON6Pq61XwPOgRgwaXU0P7UAyObY9ix33FDvQ0wieNH6LLnzotVH1mt0cpv3ddViJc2145AK8IlfSpbnhcLmj6unvEdnCh4Xlxlm9owY/MKlYnttdTLxo/hg895YHL3F5VX3dCe2wYXxAVVcksLnS80if2sTmvb2jGtq8V+9YjgueSA95f9aFJht40J9y75RdGAr0Pys+robWEf6bHsetFDOwW+z8+iOaNTlR5sutZhebDorlpF196L4j1WmzXxjwpBJ/Q0CD/CaPn81exNxMlA2364oCokUq5GDBtTR0O/GEEfXs1OESwpc8nkV7jQl3naxh9/UXs3iJfFEW4pH8LzAJXe49REchq7Bcz/WmWdW0YettYjtOaQvRcVAxTWL2pDl2vjiP4nFa8D+9CEP4jcsT8qdNCprfHMv1gfTEqNfjeGsdrnXWoFtsmpq+7aJfdoaHlhRGMv94Gp6xgc1g3dePoSB9aah2wXkqK10/i1vVN6B4axdBPil+qmadyZh/Ln5vp2/4Tsa+2d+G1t4PwbcsJU50F1T8ZQpdctgiPmNhPljmfLy95A+2TQYy/KipM0WxOR+V6RpG+rVo/nsbf8kEz+/SWxgrb3cY/YaTdZ94KorBMnt9v5g78J7iJqGwsFFdqVmhEdFNioBGRMhhoRKQMBhoRKYMXBYhIGQw0IiobvMpJRDcNBhoRKYNNTiJSBgONiMrGQnHFQCMiZbAPjYiUwQqNiMoGm5xEdNNgk5OIlMFAIyJlMNCISBnsQyOisrFQXLFCIyJlsEIjImWwQiMiZTDQiEgZDDQiUgYDjYiUwUAjImXc8re//Y1XOYmoLHzxi180x/LjbRtEpAw2OYlIGQw0IlIGA42IlMFAIyJlMNCISBkMNCJSBgONiJTBQCMiZTDQiEgZDDQiUgYDjYiUwUAjImUw0IhIGQw0IlIGA42IlMFAIyJlMNCISBkMNCJSBgONiJTBQCMiZTDQiEgZDDQiUgYDjYiUcZMGWhqJs2GEo0nzueKuJhEdCyPyUdqcQKSmsgy06H437HY77D8MIGVOKywJ/x7xWvF69/6oMSnSD+3hRjR6OhG4wTMtOdRsrGtPxJxSWKTHWM+5r00GOuF5pBEN/9qPhedCVL7KMtCcNTtgkyPHTyB0QZ9U2Ecn4B+VI040f9upT8Idd6N+FWBxrofNakxSWcWd1XCuBKxuByrNadcqG5rNQzdJdUtlpTybnOs0NK+TI0GcGCteoyXGho2qxOWF265PAlZp8J2NIzrSBpfFnKYyZwtGzsUR+VUdKsxJRCoq0z40B9w7XPpY8NgJ0agsJIHQMaOR5d651ajqiEhZZXtRwLZFVFxyZDSI0+f1SfPFQ/DreaahfktObXLej2bZ12T35e9TSsUQ2t8Kz0an0Se1QUPjjw8hPGs52b45N/rNrrlciSMN+nsbjiTMKTmi/aJaFO/d4y8Sxp+jsz5jPfIt75II/YPtaMiuq90F7ZF2HBrLfWUEPv1vYn0OGlNCj1cVnGcqGoBvnwdV64z3ODd60NoTQDRfMZ3z2RLJMPr3aXDJ598PIJkOo1ufh9jG58zXzxLD4IPGMrpHecGDyjjQsGYr6rfJERFap/KEhhB72w89azz1cK/SJy1sMoDW+0WTti+IOMTJuM4JpyWB8DEfGh/woPds9sSpwHq37JNL4MTZmDFpWhLhU0ZURk6F553wsbMnxLtES9C9/vo2Ac8H0fWgG80ibCJpm7GuolkeGxOB9EgNPH0RGGv7Zax/tA1tYqgzCmPxhdKkP2/b8hXMtNrTiB1uRpVHBOLJKNK3ifmJedrSUQRFaHo2NmPw/QLB86kf7fc3ovdkzLjQc+UyYFkPrUHOPYGjo3m+NeJh+GXQrWyCVnUz9B3QQso30GCF+9t1+ljkWEgPiNnESTQgTwILmhrc4tUlSEfQu6cdwQsOeF8IIfr2CEbeFMPbUYSer4PtUhT9Pz2E6FXj5Y4NRjM2OhadHVoXwgjpFyKE0RDCsy5cpBCfkJ/Lhq0bHMak6yKN8Evt8MfFeux9DZE/BY11PRlBZKgDLvH36H4RTHplZIPW3oEOMezeoL8Z9to2/XnHLtf0tk2P+lD3VAjplS50DIn5nDS2X/BPEYw86YblUgjdD/kQumS+Ide5CKLONgycHEckGkX0hXoR9hZUf6dJD8zE0dPGl1OOZETsI/FoadCwnnlGQhkHmog00exsWilGIsMIfWRMmxY9jaOT4nGlF9p9pR3tiaFn0C9OcFt7H3ye2T1utu1PoUNWhPF++MNmlXHnN6HJ5Z+awHs5hUcqfBpBcRrWeTTxTDSJwzltravvYWJEPK7U8M07jUklOWg0YYsN2eZgaaIID8kPXY3mxmpYVxhTJaurDT/aI8cSmPjLvEZqAQn4fzUoYlCs93OvoM2V8xWywgrn7gM4sEvsh0uD8B2ZW9EKlS0Y+HWHaIpXwGqxwGI195mrHm3y0uzkUZyelWhJnD4eEo8WeLes10OPqKwDbaZJEsHw2OwaLfqHo3rVZvuBF9UlHe3ZZqINO+43b++YxYrqGtlrl0bonEg9aYUT1dvliB/h6T6eNCbGA+LRi/rOesgaMjA+Iaaa/jIhIk7YXg1nTogsaJXDaBIWGRylNqt1lai8Tz6GERydX99W/yyOeDyOgYYSG8XZ/krR/Nut5auHLXDXGdVW7HdhzIs0EcgO+eUwl9jGm3fIL5c5zc5sFSyWV1/aDqabQHkHmjg9qr/bpjf7IkdDMyfJ1ShOH9XjrEA45TOJuN5MTKDXk78CqnpcVgTiFRez8WTB+ioZWWkEz5gnW1qcaEfE4y43qtdUY7Os6o6IZqf5lsSfw3rQ1lUtsqpo6DGahEWGngbztSWpQH1rm35/WugJN5wbG9D+zCACZ2NI5lSbJUtOGk3C++yoLBTUt98t6kHh3CSSZrO9FM77jfsOE7+ZaXYaVbDYA7u2wrWYLwZSWpkHmuDcjB2ySXJOVElm4TTd3HQ1o67UPJtmQYUzfwU0PXzJfKlgXV+tX21NnHnX6Ec7Fxb1WjawslVdtoJLIToeFo8i7NZf/zt6LRs6MPLfr6FruwvWVASBV7rR/rCGKqcLDfKqbqmtTSE5macZOVeFDUavYQyJRcwbTvO+w+lmZ7YKtqDpX8yrFERC+QeaaJJozTK1ohg4aXx/R37Xr1dBru1u/Zt9carRcTB/BTQ97M05idZshlYjHkfDmEiJZf9e9iPVYesmI7AqNmkivtIY/L1oj12NY+KUmFijYfMa/c/Xn6giW54fwvj/RhH5wwgGnmsTXwJpRORV3fubESh0S8wcFZUlXOA4/4FZRduwelHN4+x9h2azM1sFV7ahnnlGOco/0ARHjRf64S6bJOJgHz4i20wadm9bTJx9AZX6rw9CiP5lMW2u7O0bAUxEo3jnLfHemmpMF2AiMNziw6XfekfM9x0EL90At2tIV9NIXUghlTLXdYWoJ293wt3Qgb43xzGgd+CH0Hss28hbQEUl9GL4TByThZqTk3HI+hTrRLN0kd1etk310/s4ciakV8G2HZsX1w9JylMi0HD7VnhllSSaJMN9QfjlbQHbtpZ+75nOgXs1IwAHXx1GIu9JKUPAHM2RvX0j+PwTelPXvW1zTmDZUC3bveKzHXx5QtQY1/t2DdOf+1G1wQXXbv/8DvoVVtz9Nb23K6e/cAF2N7wycS4NYngs33vSCAVk9Sq213eqzabnIuTs486n/WI+NuyoWXR/AilOjUAT8bF1u7xFIoFDB42TpqlBK+3esxzOnV2ok1faRrvQ8vPQ7I7rdAyBx+vg+pYHveNzbnk3b99IRCLiE4gqxzW7/nJs9IqpCQRGQou/XWO5ODejSe979MF3OIpU7rqmohjWb4kQde7d2R/AzhY/P7cTzAbvD+VVTNG8frQVg7k/C7iaQvRwK1pl5byyCV27riXQZ/ZxLC7mU7kDm5lnNIcigQZYa71oMsev+c7xVRp6Xu+AS4STfsf716vgedAjBg0up4b2oRgc2x7FjvvmROX07RvCOi+q52aA/V5szf4zF4u9XWO5WFzo2C/XVVROT3ng+oY2s64uD3yj4iVbfOjaNntdnZvMG137xHtqPdB+OPPTJ0tNFwLZG2g9ovoTf5fz1L7hgid7w+3rXXDnuz2jBNZNWyEjTbLtZHOT5lMm0GCphrbbCDHLrvoS7z2bz7KuDUNvj6BvrwanVVQW56JimMLqTXXoenUcwec02OadSNnbN8SJpt2bpznlxOadRnN20bdrLKNZ62pJmOuagEWEd8sLIxh/0TtvXS2bujDUqen3vKXiUUytuNX8i2SBY/cAxkf60FLrhOUTOb8oEhYntL19GHl7CG3rlrD2q9zYqv/cjc1Nyu+WjGCOE93Y5I/VNzRi0N6N4JtNi++HI+WpU6GR8tLjxgUf53ev4aIC3RQYaFQezofge0Ze8HGjqZZxRvmxyUk3NPn/VMj+5Ez20VU/HcBr13SVlG4GrNDoxrbSqt9+Y1njQtNzAQwwzKgIVmhEpAxWaESkDAYaESmDgUZEymCgEZEyGGhEpAwGGhEpg4FGRMpgoBGRMhhoRKQMBhoRKYOBRkTKYKARkTIYaESkDAYaESmDgUZEymCgEZEyGGhEpAwGGhEpg4FGRMpgoBGRMhhoRKQMBhoRKYOBRkTKYKARkTIYaESkDAYaESmDgUZEymCgEZEyGGhEpAwGGhEpg4FGRMpgoBGRMhhoRKQMBhoRKYOBRkTKYKARkTIYaESkDAYaESmDgUZEymCgEZEyGGhEpAwGGhEpg4FGRMpgoBGRMhhoRKQMBhoRKYOBRkTKYKARkTIYaESkCOD/AfAH3neeZD0PAAAAAElFTkSuQmCC;" parent="1" vertex="1">
                    <mxGeometry x="540" y="-200" width="308" height="176" as="geometry"/>
                </mxCell>
                <mxCell id="FJW8aGQJlrBBaELOyZ9q-62" value="" style="endArrow=classic;html=1;rounded=0;fontFamily=Helvetica;fontSize=24;fontColor=#000000;exitX=0.714;exitY=1.043;exitDx=0;exitDy=0;exitPerimeter=0;" parent="1" source="FJW8aGQJlrBBaELOyZ9q-51" edge="1">
                    <mxGeometry width="50" height="50" relative="1" as="geometry">
                        <mxPoint x="680" y="380" as="sourcePoint"/>
                        <mxPoint x="860" y="-100" as="targetPoint"/>
                        <Array as="points">
                            <mxPoint x="880" y="-10"/>
                        </Array>
                    </mxGeometry>
                </mxCell>
            </root>
        </mxGraphModel>
    </diagram>
    <diagram id="zmIfGZHIRUEqBhxtGlVV" name="Login page">
        <mxGraphModel dx="1249" dy="783" grid="1" gridSize="10" guides="1" tooltips="1" connect="1" arrows="1" fold="1" page="1" pageScale="1" pageWidth="850" pageHeight="1100" math="0" shadow="0">
            <root>
                <mxCell id="0"/>
                <mxCell id="1" parent="0"/>
                <mxCell id="GMYueF-Vb4yVzPGE9ZFJ-1" value="" style="strokeWidth=1;shadow=0;dashed=0;align=center;html=1;shape=mxgraph.mockup.containers.browserWindow;rSize=0;strokeColor=#666666;mainText=,;recursiveResize=0;rounded=0;labelBackgroundColor=none;fontFamily=Verdana;fontSize=12" parent="1" vertex="1">
                    <mxGeometry x="20" y="280" width="1050" height="820" as="geometry"/>
                </mxCell>
                <mxCell id="GMYueF-Vb4yVzPGE9ZFJ-2" value="Login" style="strokeWidth=1;shadow=0;dashed=0;align=center;html=1;shape=mxgraph.mockup.containers.anchor;fontSize=17;fontColor=#666666;align=left;" parent="GMYueF-Vb4yVzPGE9ZFJ-1" vertex="1">
                    <mxGeometry x="60" y="12" width="110" height="26" as="geometry"/>
                </mxCell>
                <mxCell id="GMYueF-Vb4yVzPGE9ZFJ-3" value="https://www.superlife.io/login" style="strokeWidth=1;shadow=0;dashed=0;align=center;html=1;shape=mxgraph.mockup.containers.anchor;rSize=0;fontSize=17;fontColor=#666666;align=left;" parent="GMYueF-Vb4yVzPGE9ZFJ-1" vertex="1">
                    <mxGeometry x="130" y="60" width="250" height="26" as="geometry"/>
                </mxCell>
                <mxCell id="GMYueF-Vb4yVzPGE9ZFJ-4" value="Login to enter" style="text;html=1;points=[];align=left;verticalAlign=top;spacingTop=-4;fontSize=30;fontFamily=Verdana" parent="GMYueF-Vb4yVzPGE9ZFJ-1" vertex="1">
                    <mxGeometry x="600" y="230" width="340" height="50" as="geometry"/>
                </mxCell>
                <mxCell id="GMYueF-Vb4yVzPGE9ZFJ-19" value="" style="verticalLabelPosition=bottom;shadow=0;dashed=0;align=center;html=1;verticalAlign=top;strokeWidth=1;shape=mxgraph.mockup.markup.line;strokeColor=#999999;rounded=0;labelBackgroundColor=none;fillColor=#ffffff;fontFamily=Verdana;fontSize=12;fontColor=#000000;" parent="GMYueF-Vb4yVzPGE9ZFJ-1" vertex="1">
                    <mxGeometry x="-10" y="750" width="1050" height="20" as="geometry"/>
                </mxCell>
                <mxCell id="75NGxbAspKeYVLEN2s60-1" value="" style="rounded=0;whiteSpace=wrap;html=1;" parent="GMYueF-Vb4yVzPGE9ZFJ-1" vertex="1">
                    <mxGeometry y="110" width="1050" height="60" as="geometry"/>
                </mxCell>
                <mxCell id="0hKVOOpK1O7oMgcjrV_--1" value="&lt;b style=&quot;font-style: normal; font-variant-ligatures: normal; font-variant-caps: normal; letter-spacing: normal; orphans: 2; text-align: left; text-indent: 0px; text-transform: none; widows: 2; word-spacing: 0px; -webkit-text-stroke-width: 0px; text-decoration-thickness: initial; text-decoration-style: initial; text-decoration-color: initial;&quot;&gt;&lt;font style=&quot;font-size: 24px;&quot; face=&quot;Helvetica&quot;&gt;Super Life&lt;/font&gt;&lt;/b&gt;" style="text;whiteSpace=wrap;html=1;fontSize=24;fontFamily=Verdana;fontColor=#000000;" parent="GMYueF-Vb4yVzPGE9ZFJ-1" vertex="1">
                    <mxGeometry x="70" y="120" width="200" height="60" as="geometry"/>
                </mxCell>
                <mxCell id="Ln9YCDjR1TvrgUbvwErz-2" value="" style="shape=image;verticalLabelPosition=bottom;labelBackgroundColor=default;verticalAlign=top;aspect=fixed;imageAspect=0;image=data:image/png,iVBORw0KGgoAAAANSUhEUgAAAEAAAABACAYAAACqaXHeAAAABHNCSVQICAgIfAhkiAAAAAlwSFlzAAABbgAAAW4BhFBfJAAAABl0RVh0U29mdHdhcmUAd3d3Lmlua3NjYXBlLm9yZ5vuPBoAAA3CSURBVHiczZt7fFTVtce/+5x5ZfJgBgImAQR5KOADRS5gsCCgVAEFexWkWigkoLZCBVuVej8f5fNBQCkWsVQDiRTkWkU+5SGgLSoCGgJFkMdFCQ+RVwIE8k7mdc6+f0xmMkPmTYL9/ZXsfdbaa/3mnL3XXnttIaXkWkP0fdJoMWm/EpLpEmkWiKX1bjVP7smru+a2XEsCxC1jTebU1MkC8SLQKbhXXhCIhfUW81/l1iU118yma0GAGDLJYnYoUwTKCyDb+9pbWXUsRsn5SjXw8Usg33BI519k0aqqFretJQkQvSckJyWZn5JC/h7I8LW3TtGYdn8lTw+vwmSQ/O3LVBZutHH2siFQvBzBIotZW1y+dXlFi9nYEgSIu3NSLbp4BslMIN3X3jZN43cjKpk6rIoUix4k4/II3tueyoKPbZwqayRCQKUUcrEJsaiyMP9ys9vanATYh0yyOZzqdCTPAnZfe6ZdY8aICnKGVpFkijyeWxO8/1UKCzbYOHHBGNhVjZBLjC7Dwqo9eWXNZXOzEJDWf2Ibt2KcAUwD0nztHdp4eG5UBb++pxqzIb5xNB0+KExlwQYbxSVBRNRKwdsGXfyppmjZ+au1/aoISB34dDu37n5OwG+AFF9757Ye/vBgOY//rAZTnI5fCV3CmqIUXltv47uzpoAeUS8leapHeb12T15JovoTIiC575OZmkF/Xgg5FbD62rtluPnDQxWMz67BoDbv3CIlrPt3MvPX2zl4KpAIHALykeK1uqJlZ+LVGxcB1n6TO2IQL0gpcgGzr71nexfPP1TBIwNqUJV4TYgPUsKmfcnMW2dj3w/mwC4XkuWozKv/Ov/HWPXFREBS/yk3oMhZwETAT/8tHV28OKacMf9ViyLi8KKZ8M/9VuautfPv40FEuEGsRNPn1u8uOBFNR0QCLAMmdRdC/SPwBOBfm+64wcmsMRWMvKMW8RM4fiU+P5TEvLV2Costgc0e4H+l1F51FC0/Gk42LAHW7KnZUurbAX+Y1q+bk1ljyvl578RC9kvVKntOmCkpVzlbbqCkXEXXBZl2D5l2jSy7h96dXLRv7UlI/7bDScxfb2Pb4aTAZk3Cw46d+R+HkjGEagTQ0WYIhApwdw8HL44pZ+jN9XEbdfy8kQ17ktm010rRUQt6DFPO7Z2djOxTx+i+tdzS0RXzWIN71TO4Vz2FxRbmr7Pz2cEkAFXAS0BIAiK8AbnrpGR0xzYejiw6FbMRPpSUq8xe05pVO1LDO20wghDgDu/kqD61zHnsMjdmuuO24b45WXx9xIKA/XU7828PaUI0JfF+4y6P4PUNNhZtslHnahSWyanoXXuide2BtLWBlDSkueGbdbsQNVWIynKUH46gHjuMqCwHYOPeZD7dbyV3aDWvPHqZtCQ91LAhEcvEHJWAeHC+UuWxRdex61jjZKR3vAHPwOHoHToBYSwympD2dKQ9Hb1zdzxDRqFcOIe68wvUo/+HRxO8syWNLw4lsXpGaUJvQzg0GwF7jpsZ92YGJeXeOVPa03HfMwK9a8+E9OntstBHP4F25iSGLzehlJ6huMTIoFfa87enL3D/7c2TO2mWsOWbE2aGv5rld17v1gvnhGkJOx8IvUNnXL98Cq13fwCq6hQeeSODzfusUSRjw1UTUFqhMnZRBg639/X29L8H15gnwGiKIhkHFBX3fWNwD3sIFAVdwuS32/H9OWN02Wiqr0bY6RGMW9T42nv6Dcbzs58T9lu/Smh33OUlAaiqVxj35wwq667uN7yqOWDBBps/DNW79mxwPjKUsz+iHD2EuGJtlIpA734LevtOYSS90Hr3R7lYivptEUdLjfzxgzYsmXwxYR8SJqC0QuXNzTYAZKvWuEaOi75m6hrGtSsQjtABlTz0Dc7fvASKGrLfB/fQBxEXzqGcO8XKban8dnglvTrEHjAFIuH3Z84/7NQ6G777QfeDyRxFAoTbHdZ5AOGoR7hjWOIUBc+QUYBA02HW31vHanZTVYkInb1sYMU2b+JHz7oe7aZb49bhefROHJ9Mx/HJdDyP3hm3vJ7ZEa3HbQBsOWBl97HoP0AoJETApr1WtIaAzJM9LKGBmwOBY6/fk5yQjoQI2LjXO5g0W9Cv75bQwM0B2botMv06ADbtTYyAuCfBaofC9u+8oa7epQcoYTh0uxB1tcFtLmf0AaoqEFfMJ9KSBGZLyMe1br0wlJ2nuMTI0VIj3TPiC5PjJuDgKRMuj3fy07vcFPIZpeQ0ptX5EXd54VYM84o3mzaqKu5R49G639ykS+9yExRtBbzheLwExP0J+IIewLurC6X0ZHFk5wHZ0d74dwd7hCcBTUM5/l1oPQE2lFTEv6rHLVFS3igik1NDPxSQY/A83h9Mweu6zLKhZXf1/68N6wEWI6K0sqmBK4u8hwRh8hYyKdn7Gep60I8TK+InoMI3iAhPQAC0h29HJkdZolQFbVD3kF2GVbtAiyArBNKagqipCvpxYkULJ7H/8xE3ZZk2388hEbXVyDRb5AGW7gBDMM8yoxWeh3qDuWH4ejeGj/cjzoc4DdeiZICkRNR5ywky7fEnU+MnIGCQsAQExPLqvw6H1CMtRrQHvZGcuuUwhuWFkQcOsz8Q9bWg6w22RfpWwqiNVyBwEFFxKeQzWvebka0iz+yirCbk36EgrSlovULmNINsyLQ14xsgJdXgDXwCcev1LkwGicsjUE4cQevZ1DDZph3OKc83NdbpwPzWbP8AoeCc9nJjsjQGKCeO+P/u2zU40Kpp2KxJvL6ElA+rWXAUoLxGoay68fVLtegM6uloGPx7/+v3U0E95v3Ebsx0NwmCjpf6M0bHwsmHJUAg/MdJR65IPY3q4w1xhdOBciqs7haHuHwRUeYtERjZJzjsPl+pUlXvc08kQICmBxAQnN8b2afOfwpsKPw8PqubEYFjj+4bTMDRgKIKgR72bDAsAXXCWQzoANsOB3+T7Vt7mDjYu2Qp506hHjkYj90AGD76BssDi7E8sBjDR9/ELa+UnEb9/gAA991WR79uwd//V0cazwcVRS0OqydchyxaVSUEn4B3r32pOngZ+p9flJNs9k5khu2fxrTTk0ajd2cXrt+ShDTGkOnVdQxbNwISVYF544NrpzQd3t3qj1KP1RYu2x9OVcQ4QJdyqUCMdHkEK7enMmNkY7Vahk3jdyMqmLvWjqi8jGnTh7jG/CpyXlBRcT88MWJSNFo+EMD4xcco57znlRMGVzfJB376rZUzl7yuCUmejFADELE+QIwdq1pOt/oRZPuu17k5sOB0kH9Oj2D4nCx/ZtjTb7A3P9iCUPfvwrhlHQDdM9xsn32WVtbglWj0ggy2HLACOI26u33VrhWhAxaiBEJy9WoNKQvAe8z94c6UoH6zQfLhs6X+4MiwexuGHf8EWqb4Ut23E+PnGwBIS9L5cEZpE+d3HzPz2UH/qdFHkZyHGCJBxSDzaAgknnsv/cqyVjJsGqufLcVibJgPdn2Jad2qqPmAuKBrGLes8zqv6ygC3n36Aj2ygtd9h1swdWk7X4ylKYI3oqmOSkDtVwXngJngDYqmL09v8sydXZz866Vz/jdBOXYY88q3wiYx4oFy5iSm999B3b8LgDSrzpqZpYy4o+nh6Ow1rQNrCv9UW5i/L5r+mKvEku7K3Qw8AFDw1AXGD2wavyd8PB4CgcfjPtyY6Q57PF5YbGH4nCxfMcZhh93aR25eHHVpipmA5LtzsnRNHALsJoNkxW8vNAk+oPkLJAAMqoxYIFFYbOEXCzOo8p4TakKQXVeYvzsWv+KrExww5REp5AeAqiqwJOciEwaF3mdcqxKZLQesjH/zugCy5Uv1OwvmxupT3JWi1gE5/y2FeB8wCQGvPHqZ50ZVhC1Hackiqfd2pPJMQTpuTQBIgfx93c6CqBNfIBIqlU26K+deEGtpqA++u4eDpVMv0Llt5P14c5XJlVWrPPNuOhsaT4M8CJlTX1iwMl5fEi6Wtmbn9pOwDkkmQIpFZ974y+QMbdlLHhv2JPPMu+mBW/QqKZTHHYVLNyai76qqxVtl57Z2Sf4KjPO13XtrPe9MuUhWAvm5SKisU5i5Mp2/fx0UjH0uDOrkuh158dfxNaBZ7gtY75oyTiKXAG3AexfozxPLeCy7ee4+fXYwiaeWteVcY9q7TgpecO4sWBIpzo8FzXZjJKXfpAxdVZZJxChf2+i+tbw1uYz01PiTlQC1TsGs99uQ/0VaY6Nkp0SbGKn+Nx40+52hpOzcyUgWAangvSf0l8llPHhn05ghEr4+YmHq0rb80HhtxiWkeLn++soFcvXqxBgNgRa5NJU0MLcTOsuBIb62Xw6sYeGEsiablyvhcAtmr2nNW5+08i+ZUvKtVLQJzsLl8WdeoqDFrs0JIYR5QO40AfNBJoE3k/R27kXuvTV0mczeH8xMyWsbeDVGA+Y73OpsuSev+cpDA+1s6YuTlv5TbxSKvhLo72ubMqyKueMv+TNKbk3w2nobr2+w4dEaIirJEaEwIdaQNlFcm5ujY8eqltOpL4B4mYYbJ13auVn65EXsyTo577Tl25P+A1QpBIvrqZolC1fHX58fr23X8u6wqX9Ob4MiVkq4DbzV3AZV+gsugJMgJtXvXPbltbLpmhIA3gvUlpS0VxA8T8BtFCDfocqZ8quCsKc4LWLPT3F9HsA6YMoAqeivIoVJSjHPUbRs809hx/8DMDvENwVoSEUAAAAASUVORK5CYII=;" parent="GMYueF-Vb4yVzPGE9ZFJ-1" vertex="1">
                    <mxGeometry x="200" y="120" width="45" height="45" as="geometry"/>
                </mxCell>
                <mxCell id="Ln9YCDjR1TvrgUbvwErz-6" value="&lt;font color=&quot;#3399ff&quot;&gt;Email address:&lt;/font&gt;" style="text;html=1;strokeColor=none;fillColor=none;align=right;verticalAlign=middle;whiteSpace=wrap;rounded=0;fontSize=18;" parent="GMYueF-Vb4yVzPGE9ZFJ-1" vertex="1">
                    <mxGeometry x="560" y="320" width="157.5" height="30" as="geometry"/>
                </mxCell>
                <mxCell id="Ln9YCDjR1TvrgUbvwErz-7" value="e.g mary@gmail.com" style="rounded=1;whiteSpace=wrap;html=1;fontSize=16;align=left;spacingLeft=5;fontColor=#8A8A8A;" parent="GMYueF-Vb4yVzPGE9ZFJ-1" vertex="1">
                    <mxGeometry x="600" y="370" width="320" height="30" as="geometry"/>
                </mxCell>
                <mxCell id="Ln9YCDjR1TvrgUbvwErz-8" value="" style="rounded=1;whiteSpace=wrap;html=1;fontSize=16;align=left;spacingLeft=5;fontColor=#8A8A8A;" parent="GMYueF-Vb4yVzPGE9ZFJ-1" vertex="1">
                    <mxGeometry x="600" y="460" width="320" height="30" as="geometry"/>
                </mxCell>
                <mxCell id="Ln9YCDjR1TvrgUbvwErz-9" value="&lt;font color=&quot;#3399ff&quot;&gt;Password:&amp;nbsp;&lt;/font&gt;" style="text;html=1;strokeColor=none;fillColor=none;align=right;verticalAlign=middle;whiteSpace=wrap;rounded=0;fontSize=18;" parent="GMYueF-Vb4yVzPGE9ZFJ-1" vertex="1">
                    <mxGeometry x="550" y="420" width="140" height="30" as="geometry"/>
                </mxCell>
                <mxCell id="DJGdIEqti6BKW1j_nUEM-2" value="Copyright 2022 All rights reserved" style="text;html=1;strokeColor=none;fillColor=none;align=right;verticalAlign=middle;whiteSpace=wrap;rounded=0;fontSize=18;" parent="GMYueF-Vb4yVzPGE9ZFJ-1" vertex="1">
                    <mxGeometry x="20" y="780" width="300" height="30" as="geometry"/>
                </mxCell>
                <mxCell id="YULTfx8ZjPiQvLigaf3l-1" value="Login" style="strokeWidth=1;shadow=0;dashed=0;align=center;html=1;shape=mxgraph.mockup.buttons.button;strokeColor=#006EAF;mainText=;buttonStyle=round;fontSize=17;fontStyle=1;fillColor=#1ba1e2;whiteSpace=wrap;fontColor=#ffffff;" parent="GMYueF-Vb4yVzPGE9ZFJ-1" vertex="1">
                    <mxGeometry x="600" y="540" width="320" height="40" as="geometry"/>
                </mxCell>
                <mxCell id="EvP5mhsDe185PDcWG0DY-1" value="" style="whiteSpace=wrap;html=1;aspect=fixed;fillColor=#3399FF;" parent="GMYueF-Vb4yVzPGE9ZFJ-1" vertex="1">
                    <mxGeometry x="60" y="200" width="515" height="515" as="geometry"/>
                </mxCell>
                <mxCell id="acaIfUkTTiAUMUxnID4w-1" value="&lt;font color=&quot;#ffffff&quot;&gt;&lt;br&gt;&lt;br&gt;&lt;a style=&quot;box-sizing: border-box; text-decoration: underline; font-size: 16px; font-style: normal; font-weight: 400; letter-spacing: normal; text-indent: 0px; text-transform: none; word-spacing: 0px;&quot; href=&quot;http://localhost:3000/sign-up&quot;&gt;Dont have an account? Sign Up Here&lt;/a&gt;&lt;br&gt;&lt;/font&gt;" style="text;html=1;align=center;verticalAlign=middle;whiteSpace=wrap;rounded=0;" parent="GMYueF-Vb4yVzPGE9ZFJ-1" vertex="1">
                    <mxGeometry x="170" y="460" width="280" height="50" as="geometry"/>
                </mxCell>
                <mxCell id="Orn3JHgR1eZK7xm67EZq-1" value="&lt;font style=&quot;font-size: 36px;&quot; color=&quot;#ffffff&quot;&gt;&lt;b style=&quot;&quot;&gt;New to Super Life?&lt;/b&gt;&lt;/font&gt;" style="text;html=1;strokeColor=none;fillColor=none;align=center;verticalAlign=middle;whiteSpace=wrap;rounded=0;labelBackgroundColor=none;fontColor=none;" parent="GMYueF-Vb4yVzPGE9ZFJ-1" vertex="1">
                    <mxGeometry x="147.5" y="430" width="340" height="30" as="geometry"/>
                </mxCell>
                <mxCell id="vfmFY9fxMCRbVyjmoy1n-1" value="" style="strokeWidth=1;shadow=0;dashed=0;align=center;html=1;shape=mxgraph.mockup.text.rrect;rSize=0;strokeColor=#666666;" parent="GMYueF-Vb4yVzPGE9ZFJ-1" vertex="1">
                    <mxGeometry x="487.5" y="120" width="520" height="40" as="geometry"/>
                </mxCell>
                <mxCell id="vfmFY9fxMCRbVyjmoy1n-2" value="&lt;font color=&quot;#3399ff&quot;&gt;Login&lt;/font&gt;" style="strokeColor=inherit;fillColor=inherit;gradientColor=inherit;strokeWidth=1;shadow=0;dashed=0;align=center;html=1;shape=mxgraph.mockup.text.rrect;rSize=0;fontSize=17;fontColor=#0000ff;" parent="vfmFY9fxMCRbVyjmoy1n-1" vertex="1">
                    <mxGeometry x="117.74" width="127.55" height="40" as="geometry"/>
                </mxCell>
                <mxCell id="vfmFY9fxMCRbVyjmoy1n-3" value="" style="strokeColor=inherit;fillColor=inherit;gradientColor=inherit;strokeWidth=1;shadow=0;dashed=0;align=center;html=1;shape=mxgraph.mockup.text.rrect;rSize=0;fontSize=17;fontColor=#0000ff;" parent="vfmFY9fxMCRbVyjmoy1n-1" vertex="1">
                    <mxGeometry x="245.28" width="156.98" height="40" as="geometry"/>
                </mxCell>
                <mxCell id="vfmFY9fxMCRbVyjmoy1n-4" value="&lt;font color=&quot;#000000&quot;&gt;Logout&lt;/font&gt;" style="strokeColor=inherit;fillColor=inherit;gradientColor=inherit;strokeWidth=1;shadow=0;dashed=0;align=center;html=1;shape=mxgraph.mockup.text.rrect;rSize=0;fontSize=17;fontColor=#0000ff;" parent="vfmFY9fxMCRbVyjmoy1n-1" vertex="1">
                    <mxGeometry x="402.26" width="117.74" height="40" as="geometry"/>
                </mxCell>
                <mxCell id="vfmFY9fxMCRbVyjmoy1n-5" value="&lt;font color=&quot;#000000&quot;&gt;Predictions&lt;/font&gt;" style="strokeWidth=1;shadow=0;dashed=0;align=center;html=1;shape=mxgraph.mockup.forms.comboBox;strokeColor=#999999;fillColor=#ddeeff;align=left;fillColor2=#aaddff;mainText=;fontColor=#666666;fontSize=17;spacingLeft=3;" parent="vfmFY9fxMCRbVyjmoy1n-1" vertex="1">
                    <mxGeometry x="250.19" width="147.17" height="40" as="geometry"/>
                </mxCell>
                <mxCell id="vfmFY9fxMCRbVyjmoy1n-6" value="&lt;font color=&quot;#000000&quot;&gt;Home&lt;/font&gt;" style="strokeColor=inherit;fillColor=inherit;gradientColor=inherit;strokeWidth=1;shadow=0;dashed=0;align=center;html=1;shape=mxgraph.mockup.text.rrect;rSize=0;fontSize=17;fontColor=#0000ff;" parent="vfmFY9fxMCRbVyjmoy1n-1" vertex="1">
                    <mxGeometry width="120" height="40" as="geometry"/>
                </mxCell>
                <mxCell id="SxIQys7-7gIGAVg99sky-1" value="" style="endArrow=classic;html=1;rounded=0;fontFamily=Helvetica;fontSize=24;fontColor=#000000;" parent="1" edge="1">
                    <mxGeometry width="50" height="50" relative="1" as="geometry">
                        <mxPoint x="833.0119565217392" y="400" as="sourcePoint"/>
                        <mxPoint x="833" y="130" as="targetPoint"/>
                        <Array as="points">
                            <mxPoint x="930" y="190"/>
                        </Array>
                    </mxGeometry>
                </mxCell>
                <mxCell id="LzUcrDL8t0RJR-GTGciZ-1" value="" style="shape=image;verticalLabelPosition=bottom;labelBackgroundColor=default;verticalAlign=top;aspect=fixed;imageAspect=0;image=data:image/png,iVBORw0KGgoAAAANSUhEUgAAATQAAACwCAYAAACB15LlAAAAAXNSR0IArs4c6QAAAARnQU1BAACxjwv8YQUAAAAJcEhZcwAADsMAAA7DAcdvqGQAABuCSURBVHhe7d1/bJv1nQfwN9c/LPU0o25LVaRYoNobwtBpLkVL1mpx6ZGn684JHamprkm5NemmJkwi2SaS7QQBDRw0lqBbUwRtmGgoGm60EudW6t66OlrAmdqLTytYGtgS4EhU8UZVS1fVrJXv+32ex4mT2I7TkLX+9v2SHvz4if08fn69/fl+n8fllowAIiIF/JP5SERU9hhoRKQMBhoRKYOBRkTKYKARkTIYaESkDAYaESmDgUZEymCgEZEy+EsBIiobly9fNsfyY4VGRGVD1l/FBgYaEZWNW265pejAQCOispEvxHIHBhoRlY18zczcgYFGRMpgoBGRMhhoRKQMBhoRlY18FwJyBwYaESmDvxQgorLx2WefmWP5sUIjImUw0IiobOTec5ZvYJOTiMoGm5xEdNNghUZEZePvf/+7OZYfA42IysZCTU4GGhGVjYUqNPahEZEyGGhEpAwGGhEpg31oRFQ2rly5Yo7lx0AjorLB2zaISBkLVWjsQ1ui5FAz7HY77D0Rcwr9IxXa/umPIgiPRZG8ak5YLsmoWE4EiUvmc7quyjfQzvvRLA9kOdT0I1rqgXuuH+7s+/b4kTQnK+FqBL51ct2c6B5LmxMXS8wju33yDRs0NP64F4Foynz9jSiC/n9tQOMjHnQGlnMPJxH4mUcspwHaS9fvCy3SY+yb5iGljuZrokaFNnkUp6PmeFFphH/bj4T5TDXp8DAG9UohjcGTYfHfpbCgwumEc13u4ID1QgzhY/1o91TB0xdZ4jKWix13b7MCK51Yf4d4XJJswDfDf96cNK0CjvucYktZ4XZUmtPoelKkyZlA/29LOIEvBDF4+MY8BZcuheAbgzPb4IgfwQvm+DWpRsfBEYy8mTsEEXk/itDLTXCIJUX370LrsRuxKrBCey6C+LkRtLks5rTl4dw7gmg8ggOeCnMKXU/lH2jrXHCtFDXJ4cEFT+DE8cMIikebqDyUO/wuhHDiuHis7IDvSacYCWL41DKEzQoLbFu6cegZt3iSRugFP0oqjok+B/n+PwK5Q/kH2he92P0DmxgJ4vDxIo3Jq1EEXpb9HC407/xm0b6zVDQA3z4PqvT+qGy/0SGE5zU5ikkj0qPp73d6ehGZ22mciiG0vxWejc4lLGNGNqydzRq8NV6xlkDoNyeWrXlt2+ZFnRyZnMC72c981mesyx4/Eskw+vdpcMnn3w/M3t5Xk4gc6UZjrct4/TrRfN3nK9ovZ+wTc352F7RHuuEXr79s/n22JPx75Ovs8J01J+VKiWOhrx0N2W2fb/nZdbE34JA+IYSujcY8c/uqFuq/So4dQvsj2c9th6u2Ee0Hw/kvVmSXKS9wiG0UPpjzGcXx0doTQOwmv/ggb8ooNpR/oMWTcHia9RM48nKg8MWByDD6J8WjONm33mlMmk+EUJ8IMk87Dp2MA3cYfUcOyH4jHxofaIZfzmNBcj4N2HUwBthbcOSNDr2KnDYZQOv9Gpr7gohDBJ7sn7IkzGV40Ht2sc1iEY5HjbD21jiA292o1zfIAALn9Bd8/qyrsdocnedTP9rvb0TvyZhoCAtXcmLnUgS9D9ag4YlBhD9dbaz7baL5elKc+J4a0YSdH8GJY62o0feJmN/KCvGeSlycGESXpwotL4v9tBj6tvegfX8AkbSt8PIr1qPt0TYx1OnHlohwuHfL521w31FCM1YEUugpDVWPiKAcS8Bi9kdaPgkj0NOIqm93I1ToW/X9Yfj+rQaNIsDi/yyOD7tVVOAxBEXA1T0mviyW+8rtDSxfVZY7yFQrT5+8kdmzdm1m7dpnMxOZjzOHH5Ljd2We/ONl8wW5Lmfe6b5L/H1tZl/gYiZz5ll9fO333shMma+QLv/xycxdcvoDT2ZOf2JOlK5czLzjqzXe8+hwRsxh2tTRPcZ034Q5JZP5WEzT53PPnswbCXNi1uWJzC8fEH9bW5vpDHxsTjR8/NvHMjX68vdn3rtiTizFn/cb73vosNgShuznqvnVe+aUUk1knpXzWis+e+42mOviicxjc1+X3a5iuMv7y8zp2FTm4uXLmcsXs/tkKjO8V+6HuzIPHZjIXMxZx4sT+zMPyffe81jmxKfmROmT4cyee+Q878rsefW9mfdcuZz5INCZqTWXl7v95XLe+J4x/dkz5iRpetsXWL6+nIcyhz80J+qKb48Jn7GcPUdzj6RM5oNXH9Knr32gMzOcO78rU5nT3eaxJPbXB7n7edb225+ZyN0OH4rj3dwOs9ZJKPQZVHTlypWigyIXBWyoF2W9rIz8pybEf+fIXgxY2YSm2sJXvaYuWdEivoG7n+2Ae405UVphRXVrh9HEOj6BiSIFVGKoGdrjIaRXuuH7rwF451z8Sgw9g35RVNja++DzyKbyDNv2p9CxTYzE++EPl1qlzVy5dW13iy1hqNhSD7lFEi/5UfKsFiFx3I+AHKlcj3tyt5VU2YKBX4ttaK+A1WKBxWpUNOmxfnSeEh9mWw9e2eeCdYU+WWd1teHpdvHpLwVwMKfrIHqsFyHRzLLsOoADu50z71lhEZW5D/0/k/2FpUmdPKhve9R048U8y+/5iV7WYuD4EnsF02G89gtZMTvQ8YIPdbcbk3UrKuD+j35064vyYeBUnma2vv3a4FplPpdu96JlpxxJ473YcnUklD9FAk0ckLUirApcHJi+GPADL6qLtBZstR3oaO9A04Y8oTfdxEpgqsDFh/RZH1pkmIkDueXXB+DNPZB1SYRPyQPdhh335zsRRXDWmJ3t50psSqUnEBySieWGd0tOQK5yY6sMx0uDIuQ/x3vGLiUQOdKFlp+FxBML3I95MW9N7HY4cpvYpuiYX/+yqfu2W6zpfM4qGcHiPD8TNZqqYlu/K5prkndLtVjafLeK/VKaNCbOyKNALL9ha96LQo6avXqTsk58CS3lOyA9Lr5AZV9XTTO8+XbzCge27jT2s38szxdwge3nuFO+Bwh/+Ff9keZTJtBgqYY338WB3IsBHuPoSiZi+mMhybFBdO/zQNtgdOQaQ7ZzuID396P1e4cg51yxrwddG/KdfpOIj8rHBHo9ufOeGapEIOqvuFjaKZU6OWicPNvqsXVWpWSFu9YIiMBbITMgFmOmE3zWsM6Nhif8Yj1F+HYO4cD2Uq8XJ/HB+8Y6BX5oXgyYOzxsbuHURfMk/yvi4/LRDeedJfRbFZXClNn/uXp1gSr9dk3/QusQx8lSljb1iXl8ffUrBa+mV9jvNpYRn8KUPoU+D+oEmuDMc3EgHfYbFwO27UZ9tmIq1Kl6NaGfbFWPdGPwzGewbzM6gWd3DhcwGtKbRlLyxWcwWLTAynfT6pzhS+ZLi0rixDGj6tBq51c91pp6s5l8GMMf6ZMWodBn1NDU6cPQ2xG8tvfaTnyrPd98c4bbbjVf+XnKfpksv79+GDbHiritEtXycTwuYntpKh1G5WZdudTQv/HluxCQOygVaLi9HrtlM2sy2wclmhmnZDPHgqaHtbzNnFyJ37Sj/XgKli0+hP4UxIGnjSaoMezGvebr8hPNr+dCGPmxQ4xHRIXnm3+rxrR8N63OGfYWjU/DRyfgN0/S4GN5qh5Xq9HPJT6Pf7R4VTpfoc94AN17vXDN7TdbBO+z+eabMzyjLcN9gpWw15ijy+zLd+hRVdxkXNTAwrpKfEGfsHQFK8+biFqBJiJLe7hJRIv505/sxYDKNniLdZ7pkoiMyqYp0LTHC1tOh3FJGg7gQIMNzu8fgm+LWFb8EDr/c+5Pg76AynXyMYToX2b/5VpERwZEVIkoXZOnyskOzgq9iooOBEv/veuysGK1eYHknWip4fpl2KvkYwjxD/UJSzCz/KmpAg3wq2mkLqSQSi1t36y+TX6pCe9/II6q/JIfmtvga7bpCznXqqJhAPF4HF0bzAk3McUCTXaledEmD9wjfvS+ZF4M2LkZzhIC6nKxf5kk/i7+xxzNa9WtRvNrhQ3eJ7rhXgnEDu5Cp6j4Zjhwr2YcvoOvDhe4n0ieVOZoMVejOH1U9hVa4H1uKH+low+vGNtjumq9XixYX6U3gEW4HkW4QPUqA2WGDfdsMrfXcXmxZb7k+VLvQxPLv694n2LqeDtcG1yoGljaVU5LlWiWy079UT9O5Pt4V2M48Rvjoop303rjuKGS5Gtm5g7KBRpWOLF5h3Fx4NBB82LAtlIu7VfgK181Dq1Dz/cjknPEJ88eQuvD3Xo1VJJKLw7sNyrFwOPts27Gde7sQp1+sHeh5eeh2XeMp2Pi9XVwfcuD3vECVYRpum9woepzensUuKXlH8iq7UWHXYxMHkLzY4OY9cOAqylEXmxA1YYaNOfcXJvdXukjrWg9HEUqu71ENRUb6UJ7X+m3MFhr96JNLv94J9pz5yWkooNo/6n8+nOhqy5fcz+OZKFyay5LNRrNW0C693UjlPvrD3nD7c/b0K0fml1o3vI5NBNTMUTGIogVP2RuCuoFmpC9OKDLvRiwANe/90CT9/5EetHgssO5sUr/yUrVwz6E7C5znlNI/58+UpSlpgtH9oqmx6UQup7Iubt7lYae141fDsQON6Pq61XwPOgRgwaXU0P7UAyObY9ix33FDvQ0wieNH6LLnzotVH1mt0cpv3ddViJc2145AK8IlfSpbnhcLmj6unvEdnCh4Xlxlm9owY/MKlYnttdTLxo/hg895YHL3F5VX3dCe2wYXxAVVcksLnS80if2sTmvb2jGtq8V+9YjgueSA95f9aFJht40J9y75RdGAr0Pys+robWEf6bHsetFDOwW+z8+iOaNTlR5sutZhebDorlpF196L4j1WmzXxjwpBJ/Q0CD/CaPn81exNxMlA2364oCokUq5GDBtTR0O/GEEfXs1OESwpc8nkV7jQl3naxh9/UXs3iJfFEW4pH8LzAJXe49REchq7Bcz/WmWdW0YettYjtOaQvRcVAxTWL2pDl2vjiP4nFa8D+9CEP4jcsT8qdNCprfHMv1gfTEqNfjeGsdrnXWoFtsmpq+7aJfdoaHlhRGMv94Gp6xgc1g3dePoSB9aah2wXkqK10/i1vVN6B4axdBPil+qmadyZh/Ln5vp2/4Tsa+2d+G1t4PwbcsJU50F1T8ZQpdctgiPmNhPljmfLy95A+2TQYy/KipM0WxOR+V6RpG+rVo/nsbf8kEz+/SWxgrb3cY/YaTdZ94KorBMnt9v5g78J7iJqGwsFFdqVmhEdFNioBGRMhhoRKQMBhoRKYMXBYhIGQw0IiobvMpJRDcNBhoRKYNNTiJSBgONiMrGQnHFQCMiZbAPjYiUwQqNiMoGm5xEdNNgk5OIlMFAIyJlMNCISBnsQyOisrFQXLFCIyJlsEIjImWwQiMiZTDQiEgZDDQiUgYDjYiUwUAjImXc8re//Y1XOYmoLHzxi180x/LjbRtEpAw2OYlIGQw0IlIGA42IlMFAIyJlMNCISBkMNCJSBgONiJTBQCMiZTDQiEgZDDQiUgYDjYiUwUAjImUw0IhIGQw0IlIGA42IlMFAIyJlMNCISBkMNCJSBgONiJTBQCMiZTDQiEgZDDQiUgYDjYiUcZMGWhqJs2GEo0nzueKuJhEdCyPyUdqcQKSmsgy06H437HY77D8MIGVOKywJ/x7xWvF69/6oMSnSD+3hRjR6OhG4wTMtOdRsrGtPxJxSWKTHWM+5r00GOuF5pBEN/9qPhedCVL7KMtCcNTtgkyPHTyB0QZ9U2Ecn4B+VI040f9upT8Idd6N+FWBxrofNakxSWcWd1XCuBKxuByrNadcqG5rNQzdJdUtlpTybnOs0NK+TI0GcGCteoyXGho2qxOWF265PAlZp8J2NIzrSBpfFnKYyZwtGzsUR+VUdKsxJRCoq0z40B9w7XPpY8NgJ0agsJIHQMaOR5d651ajqiEhZZXtRwLZFVFxyZDSI0+f1SfPFQ/DreaahfktObXLej2bZ12T35e9TSsUQ2t8Kz0an0Se1QUPjjw8hPGs52b45N/rNrrlciSMN+nsbjiTMKTmi/aJaFO/d4y8Sxp+jsz5jPfIt75II/YPtaMiuq90F7ZF2HBrLfWUEPv1vYn0OGlNCj1cVnGcqGoBvnwdV64z3ODd60NoTQDRfMZ3z2RLJMPr3aXDJ598PIJkOo1ufh9jG58zXzxLD4IPGMrpHecGDyjjQsGYr6rfJERFap/KEhhB72w89azz1cK/SJy1sMoDW+0WTti+IOMTJuM4JpyWB8DEfGh/woPds9sSpwHq37JNL4MTZmDFpWhLhU0ZURk6F553wsbMnxLtES9C9/vo2Ac8H0fWgG80ibCJpm7GuolkeGxOB9EgNPH0RGGv7Zax/tA1tYqgzCmPxhdKkP2/b8hXMtNrTiB1uRpVHBOLJKNK3ifmJedrSUQRFaHo2NmPw/QLB86kf7fc3ovdkzLjQc+UyYFkPrUHOPYGjo3m+NeJh+GXQrWyCVnUz9B3QQso30GCF+9t1+ljkWEgPiNnESTQgTwILmhrc4tUlSEfQu6cdwQsOeF8IIfr2CEbeFMPbUYSer4PtUhT9Pz2E6FXj5Y4NRjM2OhadHVoXwgjpFyKE0RDCsy5cpBCfkJ/Lhq0bHMak6yKN8Evt8MfFeux9DZE/BY11PRlBZKgDLvH36H4RTHplZIPW3oEOMezeoL8Z9to2/XnHLtf0tk2P+lD3VAjplS50DIn5nDS2X/BPEYw86YblUgjdD/kQumS+Ide5CKLONgycHEckGkX0hXoR9hZUf6dJD8zE0dPGl1OOZETsI/FoadCwnnlGQhkHmog00exsWilGIsMIfWRMmxY9jaOT4nGlF9p9pR3tiaFn0C9OcFt7H3ye2T1utu1PoUNWhPF++MNmlXHnN6HJ5Z+awHs5hUcqfBpBcRrWeTTxTDSJwzltravvYWJEPK7U8M07jUklOWg0YYsN2eZgaaIID8kPXY3mxmpYVxhTJaurDT/aI8cSmPjLvEZqAQn4fzUoYlCs93OvoM2V8xWywgrn7gM4sEvsh0uD8B2ZW9EKlS0Y+HWHaIpXwGqxwGI195mrHm3y0uzkUZyelWhJnD4eEo8WeLes10OPqKwDbaZJEsHw2OwaLfqHo3rVZvuBF9UlHe3ZZqINO+43b++YxYrqGtlrl0bonEg9aYUT1dvliB/h6T6eNCbGA+LRi/rOesgaMjA+Iaaa/jIhIk7YXg1nTogsaJXDaBIWGRylNqt1lai8Tz6GERydX99W/yyOeDyOgYYSG8XZ/krR/Nut5auHLXDXGdVW7HdhzIs0EcgO+eUwl9jGm3fIL5c5zc5sFSyWV1/aDqabQHkHmjg9qr/bpjf7IkdDMyfJ1ShOH9XjrEA45TOJuN5MTKDXk78CqnpcVgTiFRez8WTB+ioZWWkEz5gnW1qcaEfE4y43qtdUY7Os6o6IZqf5lsSfw3rQ1lUtsqpo6DGahEWGngbztSWpQH1rm35/WugJN5wbG9D+zCACZ2NI5lSbJUtOGk3C++yoLBTUt98t6kHh3CSSZrO9FM77jfsOE7+ZaXYaVbDYA7u2wrWYLwZSWpkHmuDcjB2ySXJOVElm4TTd3HQ1o67UPJtmQYUzfwU0PXzJfKlgXV+tX21NnHnX6Ec7Fxb1WjawslVdtoJLIToeFo8i7NZf/zt6LRs6MPLfr6FruwvWVASBV7rR/rCGKqcLDfKqbqmtTSE5macZOVeFDUavYQyJRcwbTvO+w+lmZ7YKtqDpX8yrFERC+QeaaJJozTK1ohg4aXx/R37Xr1dBru1u/Zt9carRcTB/BTQ97M05idZshlYjHkfDmEiJZf9e9iPVYesmI7AqNmkivtIY/L1oj12NY+KUmFijYfMa/c/Xn6giW54fwvj/RhH5wwgGnmsTXwJpRORV3fubESh0S8wcFZUlXOA4/4FZRduwelHN4+x9h2azM1sFV7ahnnlGOco/0ARHjRf64S6bJOJgHz4i20wadm9bTJx9AZX6rw9CiP5lMW2u7O0bAUxEo3jnLfHemmpMF2AiMNziw6XfekfM9x0EL90At2tIV9NIXUghlTLXdYWoJ293wt3Qgb43xzGgd+CH0Hss28hbQEUl9GL4TByThZqTk3HI+hTrRLN0kd1etk310/s4ciakV8G2HZsX1w9JylMi0HD7VnhllSSaJMN9QfjlbQHbtpZ+75nOgXs1IwAHXx1GIu9JKUPAHM2RvX0j+PwTelPXvW1zTmDZUC3bveKzHXx5QtQY1/t2DdOf+1G1wQXXbv/8DvoVVtz9Nb23K6e/cAF2N7wycS4NYngs33vSCAVk9Sq213eqzabnIuTs486n/WI+NuyoWXR/AilOjUAT8bF1u7xFIoFDB42TpqlBK+3esxzOnV2ok1faRrvQ8vPQ7I7rdAyBx+vg+pYHveNzbnk3b99IRCLiE4gqxzW7/nJs9IqpCQRGQou/XWO5ODejSe979MF3OIpU7rqmohjWb4kQde7d2R/AzhY/P7cTzAbvD+VVTNG8frQVg7k/C7iaQvRwK1pl5byyCV27riXQZ/ZxLC7mU7kDm5lnNIcigQZYa71oMsev+c7xVRp6Xu+AS4STfsf716vgedAjBg0up4b2oRgc2x7FjvvmROX07RvCOi+q52aA/V5szf4zF4u9XWO5WFzo2C/XVVROT3ng+oY2s64uD3yj4iVbfOjaNntdnZvMG137xHtqPdB+OPPTJ0tNFwLZG2g9ovoTf5fz1L7hgid7w+3rXXDnuz2jBNZNWyEjTbLtZHOT5lMm0GCphrbbCDHLrvoS7z2bz7KuDUNvj6BvrwanVVQW56JimMLqTXXoenUcwec02OadSNnbN8SJpt2bpznlxOadRnN20bdrLKNZ62pJmOuagEWEd8sLIxh/0TtvXS2bujDUqen3vKXiUUytuNX8i2SBY/cAxkf60FLrhOUTOb8oEhYntL19GHl7CG3rlrD2q9zYqv/cjc1Nyu+WjGCOE93Y5I/VNzRi0N6N4JtNi++HI+WpU6GR8tLjxgUf53ev4aIC3RQYaFQezofge0Ze8HGjqZZxRvmxyUk3NPn/VMj+5Ez20VU/HcBr13SVlG4GrNDoxrbSqt9+Y1njQtNzAQwwzKgIVmhEpAxWaESkDAYaESmDgUZEymCgEZEyGGhEpAwGGhEpg4FGRMpgoBGRMhhoRKQMBhoRKYOBRkTKYKARkTIYaESkDAYaESmDgUZEymCgEZEyGGhEpAwGGhEpg4FGRMpgoBGRMhhoRKQMBhoRKYOBRkTKYKARkTIYaESkDAYaESmDgUZEymCgEZEyGGhEpAwGGhEpg4FGRMpgoBGRMhhoRKQMBhoRKYOBRkTKYKARkTIYaESkDAYaESmDgUZEymCgEZEyGGhEpAwGGhEpg4FGRMpgoBGRMhhoRKQMBhoRKYOBRkTKYKARkTIYaESkCOD/AfAH3neeZD0PAAAAAElFTkSuQmCC;" parent="1" vertex="1">
                    <mxGeometry x="500" y="30" width="308" height="176" as="geometry"/>
                </mxCell>
            </root>
        </mxGraphModel>
    </diagram>
    <diagram id="bunFQyusKmN9gaulmM0i" name="Sign up page">
        <mxGraphModel dx="1249" dy="783" grid="1" gridSize="10" guides="1" tooltips="1" connect="1" arrows="1" fold="1" page="1" pageScale="1" pageWidth="850" pageHeight="1100" math="0" shadow="0">
            <root>
                <mxCell id="0"/>
                <mxCell id="1" parent="0"/>
                <mxCell id="dlgOvmm0zVXU_XmvKvAU-23" value="" style="strokeWidth=1;shadow=0;dashed=0;align=center;html=1;shape=mxgraph.mockup.containers.browserWindow;rSize=0;strokeColor=#666666;mainText=,;recursiveResize=0;rounded=0;labelBackgroundColor=none;fontFamily=Verdana;fontSize=12" parent="1" vertex="1">
                    <mxGeometry x="30" y="290" width="1050" height="820" as="geometry"/>
                </mxCell>
                <mxCell id="dlgOvmm0zVXU_XmvKvAU-24" value="Sign up" style="strokeWidth=1;shadow=0;dashed=0;align=center;html=1;shape=mxgraph.mockup.containers.anchor;fontSize=17;fontColor=#666666;align=left;" parent="dlgOvmm0zVXU_XmvKvAU-23" vertex="1">
                    <mxGeometry x="60" y="12" width="110" height="26" as="geometry"/>
                </mxCell>
                <mxCell id="dlgOvmm0zVXU_XmvKvAU-25" value="https://www.superlife.io/signup" style="strokeWidth=1;shadow=0;dashed=0;align=center;html=1;shape=mxgraph.mockup.containers.anchor;rSize=0;fontSize=17;fontColor=#666666;align=left;" parent="dlgOvmm0zVXU_XmvKvAU-23" vertex="1">
                    <mxGeometry x="130" y="60" width="250" height="26" as="geometry"/>
                </mxCell>
                <mxCell id="dlgOvmm0zVXU_XmvKvAU-26" value="Sign up!" style="text;html=1;points=[];align=left;verticalAlign=top;spacingTop=-4;fontSize=30;fontFamily=Verdana" parent="dlgOvmm0zVXU_XmvKvAU-23" vertex="1">
                    <mxGeometry x="440" y="220" width="340" height="50" as="geometry"/>
                </mxCell>
                <mxCell id="dlgOvmm0zVXU_XmvKvAU-27" value="" style="verticalLabelPosition=bottom;shadow=0;dashed=0;align=center;html=1;verticalAlign=top;strokeWidth=1;shape=mxgraph.mockup.markup.line;strokeColor=#999999;rounded=0;labelBackgroundColor=none;fillColor=#ffffff;fontFamily=Verdana;fontSize=12;fontColor=#000000;" parent="dlgOvmm0zVXU_XmvKvAU-23" vertex="1">
                    <mxGeometry x="-10" y="750" width="1050" height="20" as="geometry"/>
                </mxCell>
                <mxCell id="dlgOvmm0zVXU_XmvKvAU-28" value="" style="rounded=0;whiteSpace=wrap;html=1;" parent="dlgOvmm0zVXU_XmvKvAU-23" vertex="1">
                    <mxGeometry y="110" width="1050" height="60" as="geometry"/>
                </mxCell>
                <mxCell id="dlgOvmm0zVXU_XmvKvAU-35" value="&lt;b style=&quot;font-style: normal; font-variant-ligatures: normal; font-variant-caps: normal; letter-spacing: normal; orphans: 2; text-align: left; text-indent: 0px; text-transform: none; widows: 2; word-spacing: 0px; -webkit-text-stroke-width: 0px; text-decoration-thickness: initial; text-decoration-style: initial; text-decoration-color: initial;&quot;&gt;&lt;font style=&quot;font-size: 24px;&quot; face=&quot;Helvetica&quot;&gt;Super Life&lt;/font&gt;&lt;/b&gt;" style="text;whiteSpace=wrap;html=1;fontSize=24;fontFamily=Verdana;fontColor=#000000;" parent="dlgOvmm0zVXU_XmvKvAU-23" vertex="1">
                    <mxGeometry x="70" y="120" width="200" height="60" as="geometry"/>
                </mxCell>
                <mxCell id="dlgOvmm0zVXU_XmvKvAU-36" value="" style="shape=image;verticalLabelPosition=bottom;labelBackgroundColor=default;verticalAlign=top;aspect=fixed;imageAspect=0;image=data:image/png,iVBORw0KGgoAAAANSUhEUgAAAEAAAABACAYAAACqaXHeAAAABHNCSVQICAgIfAhkiAAAAAlwSFlzAAABbgAAAW4BhFBfJAAAABl0RVh0U29mdHdhcmUAd3d3Lmlua3NjYXBlLm9yZ5vuPBoAAA3CSURBVHiczZt7fFTVtce/+5x5ZfJgBgImAQR5KOADRS5gsCCgVAEFexWkWigkoLZCBVuVej8f5fNBQCkWsVQDiRTkWkU+5SGgLSoCGgJFkMdFCQ+RVwIE8k7mdc6+f0xmMkPmTYL9/ZXsfdbaa/3mnL3XXnttIaXkWkP0fdJoMWm/EpLpEmkWiKX1bjVP7smru+a2XEsCxC1jTebU1MkC8SLQKbhXXhCIhfUW81/l1iU118yma0GAGDLJYnYoUwTKCyDb+9pbWXUsRsn5SjXw8Usg33BI519k0aqqFretJQkQvSckJyWZn5JC/h7I8LW3TtGYdn8lTw+vwmSQ/O3LVBZutHH2siFQvBzBIotZW1y+dXlFi9nYEgSIu3NSLbp4BslMIN3X3jZN43cjKpk6rIoUix4k4/II3tueyoKPbZwqayRCQKUUcrEJsaiyMP9ys9vanATYh0yyOZzqdCTPAnZfe6ZdY8aICnKGVpFkijyeWxO8/1UKCzbYOHHBGNhVjZBLjC7Dwqo9eWXNZXOzEJDWf2Ibt2KcAUwD0nztHdp4eG5UBb++pxqzIb5xNB0+KExlwQYbxSVBRNRKwdsGXfyppmjZ+au1/aoISB34dDu37n5OwG+AFF9757Ye/vBgOY//rAZTnI5fCV3CmqIUXltv47uzpoAeUS8leapHeb12T15JovoTIiC575OZmkF/Xgg5FbD62rtluPnDQxWMz67BoDbv3CIlrPt3MvPX2zl4KpAIHALykeK1uqJlZ+LVGxcB1n6TO2IQL0gpcgGzr71nexfPP1TBIwNqUJV4TYgPUsKmfcnMW2dj3w/mwC4XkuWozKv/Ov/HWPXFREBS/yk3oMhZwETAT/8tHV28OKacMf9ViyLi8KKZ8M/9VuautfPv40FEuEGsRNPn1u8uOBFNR0QCLAMmdRdC/SPwBOBfm+64wcmsMRWMvKMW8RM4fiU+P5TEvLV2Costgc0e4H+l1F51FC0/Gk42LAHW7KnZUurbAX+Y1q+bk1ljyvl578RC9kvVKntOmCkpVzlbbqCkXEXXBZl2D5l2jSy7h96dXLRv7UlI/7bDScxfb2Pb4aTAZk3Cw46d+R+HkjGEagTQ0WYIhApwdw8HL44pZ+jN9XEbdfy8kQ17ktm010rRUQt6DFPO7Z2djOxTx+i+tdzS0RXzWIN71TO4Vz2FxRbmr7Pz2cEkAFXAS0BIAiK8AbnrpGR0xzYejiw6FbMRPpSUq8xe05pVO1LDO20wghDgDu/kqD61zHnsMjdmuuO24b45WXx9xIKA/XU7828PaUI0JfF+4y6P4PUNNhZtslHnahSWyanoXXuide2BtLWBlDSkueGbdbsQNVWIynKUH46gHjuMqCwHYOPeZD7dbyV3aDWvPHqZtCQ91LAhEcvEHJWAeHC+UuWxRdex61jjZKR3vAHPwOHoHToBYSwympD2dKQ9Hb1zdzxDRqFcOIe68wvUo/+HRxO8syWNLw4lsXpGaUJvQzg0GwF7jpsZ92YGJeXeOVPa03HfMwK9a8+E9OntstBHP4F25iSGLzehlJ6huMTIoFfa87enL3D/7c2TO2mWsOWbE2aGv5rld17v1gvnhGkJOx8IvUNnXL98Cq13fwCq6hQeeSODzfusUSRjw1UTUFqhMnZRBg639/X29L8H15gnwGiKIhkHFBX3fWNwD3sIFAVdwuS32/H9OWN02Wiqr0bY6RGMW9T42nv6Dcbzs58T9lu/Smh33OUlAaiqVxj35wwq667uN7yqOWDBBps/DNW79mxwPjKUsz+iHD2EuGJtlIpA734LevtOYSS90Hr3R7lYivptEUdLjfzxgzYsmXwxYR8SJqC0QuXNzTYAZKvWuEaOi75m6hrGtSsQjtABlTz0Dc7fvASKGrLfB/fQBxEXzqGcO8XKban8dnglvTrEHjAFIuH3Z84/7NQ6G777QfeDyRxFAoTbHdZ5AOGoR7hjWOIUBc+QUYBA02HW31vHanZTVYkInb1sYMU2b+JHz7oe7aZb49bhefROHJ9Mx/HJdDyP3hm3vJ7ZEa3HbQBsOWBl97HoP0AoJETApr1WtIaAzJM9LKGBmwOBY6/fk5yQjoQI2LjXO5g0W9Cv75bQwM0B2botMv06ADbtTYyAuCfBaofC9u+8oa7epQcoYTh0uxB1tcFtLmf0AaoqEFfMJ9KSBGZLyMe1br0wlJ2nuMTI0VIj3TPiC5PjJuDgKRMuj3fy07vcFPIZpeQ0ptX5EXd54VYM84o3mzaqKu5R49G639ykS+9yExRtBbzheLwExP0J+IIewLurC6X0ZHFk5wHZ0d74dwd7hCcBTUM5/l1oPQE2lFTEv6rHLVFS3igik1NDPxSQY/A83h9Mweu6zLKhZXf1/68N6wEWI6K0sqmBK4u8hwRh8hYyKdn7Gep60I8TK+InoMI3iAhPQAC0h29HJkdZolQFbVD3kF2GVbtAiyArBNKagqipCvpxYkULJ7H/8xE3ZZk2388hEbXVyDRb5AGW7gBDMM8yoxWeh3qDuWH4ejeGj/cjzoc4DdeiZICkRNR5ywky7fEnU+MnIGCQsAQExPLqvw6H1CMtRrQHvZGcuuUwhuWFkQcOsz8Q9bWg6w22RfpWwqiNVyBwEFFxKeQzWvebka0iz+yirCbk36EgrSlovULmNINsyLQ14xsgJdXgDXwCcev1LkwGicsjUE4cQevZ1DDZph3OKc83NdbpwPzWbP8AoeCc9nJjsjQGKCeO+P/u2zU40Kpp2KxJvL6ElA+rWXAUoLxGoay68fVLtegM6uloGPx7/+v3U0E95v3Ebsx0NwmCjpf6M0bHwsmHJUAg/MdJR65IPY3q4w1xhdOBciqs7haHuHwRUeYtERjZJzjsPl+pUlXvc08kQICmBxAQnN8b2afOfwpsKPw8PqubEYFjj+4bTMDRgKIKgR72bDAsAXXCWQzoANsOB3+T7Vt7mDjYu2Qp506hHjkYj90AGD76BssDi7E8sBjDR9/ELa+UnEb9/gAA991WR79uwd//V0cazwcVRS0OqydchyxaVSUEn4B3r32pOngZ+p9flJNs9k5khu2fxrTTk0ajd2cXrt+ShDTGkOnVdQxbNwISVYF544NrpzQd3t3qj1KP1RYu2x9OVcQ4QJdyqUCMdHkEK7enMmNkY7Vahk3jdyMqmLvWjqi8jGnTh7jG/CpyXlBRcT88MWJSNFo+EMD4xcco57znlRMGVzfJB376rZUzl7yuCUmejFADELE+QIwdq1pOt/oRZPuu17k5sOB0kH9Oj2D4nCx/ZtjTb7A3P9iCUPfvwrhlHQDdM9xsn32WVtbglWj0ggy2HLACOI26u33VrhWhAxaiBEJy9WoNKQvAe8z94c6UoH6zQfLhs6X+4MiwexuGHf8EWqb4Ut23E+PnGwBIS9L5cEZpE+d3HzPz2UH/qdFHkZyHGCJBxSDzaAgknnsv/cqyVjJsGqufLcVibJgPdn2Jad2qqPmAuKBrGLes8zqv6ygC3n36Aj2ygtd9h1swdWk7X4ylKYI3oqmOSkDtVwXngJngDYqmL09v8sydXZz866Vz/jdBOXYY88q3wiYx4oFy5iSm999B3b8LgDSrzpqZpYy4o+nh6Ow1rQNrCv9UW5i/L5r+mKvEku7K3Qw8AFDw1AXGD2wavyd8PB4CgcfjPtyY6Q57PF5YbGH4nCxfMcZhh93aR25eHHVpipmA5LtzsnRNHALsJoNkxW8vNAk+oPkLJAAMqoxYIFFYbOEXCzOo8p4TakKQXVeYvzsWv+KrExww5REp5AeAqiqwJOciEwaF3mdcqxKZLQesjH/zugCy5Uv1OwvmxupT3JWi1gE5/y2FeB8wCQGvPHqZ50ZVhC1Hackiqfd2pPJMQTpuTQBIgfx93c6CqBNfIBIqlU26K+deEGtpqA++u4eDpVMv0Llt5P14c5XJlVWrPPNuOhsaT4M8CJlTX1iwMl5fEi6Wtmbn9pOwDkkmQIpFZ974y+QMbdlLHhv2JPPMu+mBW/QqKZTHHYVLNyai76qqxVtl57Z2Sf4KjPO13XtrPe9MuUhWAvm5SKisU5i5Mp2/fx0UjH0uDOrkuh158dfxNaBZ7gtY75oyTiKXAG3AexfozxPLeCy7ee4+fXYwiaeWteVcY9q7TgpecO4sWBIpzo8FzXZjJKXfpAxdVZZJxChf2+i+tbw1uYz01PiTlQC1TsGs99uQ/0VaY6Nkp0SbGKn+Nx40+52hpOzcyUgWAangvSf0l8llPHhn05ghEr4+YmHq0rb80HhtxiWkeLn++soFcvXqxBgNgRa5NJU0MLcTOsuBIb62Xw6sYeGEsiablyvhcAtmr2nNW5+08i+ZUvKtVLQJzsLl8WdeoqDFrs0JIYR5QO40AfNBJoE3k/R27kXuvTV0mczeH8xMyWsbeDVGA+Y73OpsuSev+cpDA+1s6YuTlv5TbxSKvhLo72ubMqyKueMv+TNKbk3w2nobr2+w4dEaIirJEaEwIdaQNlFcm5ujY8eqltOpL4B4mYYbJ13auVn65EXsyTo577Tl25P+A1QpBIvrqZolC1fHX58fr23X8u6wqX9Ob4MiVkq4DbzV3AZV+gsugJMgJtXvXPbltbLpmhIA3gvUlpS0VxA8T8BtFCDfocqZ8quCsKc4LWLPT3F9HsA6YMoAqeivIoVJSjHPUbRs809hx/8DMDvENwVoSEUAAAAASUVORK5CYII=;" parent="dlgOvmm0zVXU_XmvKvAU-23" vertex="1">
                    <mxGeometry x="200" y="120" width="45" height="45" as="geometry"/>
                </mxCell>
                <mxCell id="dlgOvmm0zVXU_XmvKvAU-38" value="E.g John@gmail.com" style="rounded=1;whiteSpace=wrap;html=1;fontSize=16;align=left;spacingLeft=5;fontColor=#8A8A8A;" parent="dlgOvmm0zVXU_XmvKvAU-23" vertex="1">
                    <mxGeometry x="387.5" y="330" width="230" height="30" as="geometry"/>
                </mxCell>
                <mxCell id="dlgOvmm0zVXU_XmvKvAU-41" value="Password" style="rounded=1;whiteSpace=wrap;html=1;fontSize=16;align=left;spacingLeft=5;fontColor=#8A8A8A;" parent="dlgOvmm0zVXU_XmvKvAU-23" vertex="1">
                    <mxGeometry x="387.5" y="400" width="230" height="30" as="geometry"/>
                </mxCell>
                <mxCell id="dlgOvmm0zVXU_XmvKvAU-42" value="Password:&amp;nbsp;" style="text;html=1;strokeColor=none;fillColor=none;align=right;verticalAlign=middle;whiteSpace=wrap;rounded=0;fontSize=18;" parent="dlgOvmm0zVXU_XmvKvAU-23" vertex="1">
                    <mxGeometry x="340" y="370" width="140" height="30" as="geometry"/>
                </mxCell>
                <mxCell id="dlgOvmm0zVXU_XmvKvAU-43" value="&lt;font style=&quot;font-size: 14px&quot;&gt;Already have an account? &lt;b&gt;&lt;font color=&quot;#0066cc&quot;&gt;Login here&lt;/font&gt;&lt;/b&gt;&lt;/font&gt;" style="text;html=1;strokeColor=none;fillColor=none;align=center;verticalAlign=middle;whiteSpace=wrap;rounded=0;fontSize=19;fontColor=#000000;" parent="dlgOvmm0zVXU_XmvKvAU-23" vertex="1">
                    <mxGeometry x="340" y="510" width="325" height="30" as="geometry"/>
                </mxCell>
                <mxCell id="dlgOvmm0zVXU_XmvKvAU-44" value="Copyright 2022 All rights reserved" style="text;html=1;strokeColor=none;fillColor=none;align=right;verticalAlign=middle;whiteSpace=wrap;rounded=0;fontSize=18;" parent="dlgOvmm0zVXU_XmvKvAU-23" vertex="1">
                    <mxGeometry x="20" y="780" width="300" height="30" as="geometry"/>
                </mxCell>
                <mxCell id="vdGf7PBDoTdrldGzkQRN-1" value="Your email:&amp;nbsp;" style="text;html=1;strokeColor=none;fillColor=none;align=right;verticalAlign=middle;whiteSpace=wrap;rounded=0;fontSize=18;" parent="dlgOvmm0zVXU_XmvKvAU-23" vertex="1">
                    <mxGeometry x="340" y="290" width="140" height="30" as="geometry"/>
                </mxCell>
                <mxCell id="JlVKD1OZmhi_ndfxGhLV-1" value="Sign up" style="strokeWidth=1;shadow=0;dashed=0;align=center;html=1;shape=mxgraph.mockup.buttons.button;strokeColor=#005700;mainText=;buttonStyle=round;fontSize=17;fontStyle=1;fillColor=#008a00;whiteSpace=wrap;fontColor=#ffffff;" parent="dlgOvmm0zVXU_XmvKvAU-23" vertex="1">
                    <mxGeometry x="380" y="460" width="255" height="40" as="geometry"/>
                </mxCell>
                <mxCell id="ExRwc7dbEPIx5YJsfEKa-1" value="" style="shape=image;verticalLabelPosition=bottom;labelBackgroundColor=default;verticalAlign=top;aspect=fixed;imageAspect=0;image=data:image/png,iVBORw0KGgoAAAANSUhEUgAAATQAAACwCAYAAACB15LlAAAAAXNSR0IArs4c6QAAAARnQU1BAACxjwv8YQUAAAAJcEhZcwAADsMAAA7DAcdvqGQAABuCSURBVHhe7d1/bJv1nQfwN9c/LPU0o25LVaRYoNobwtBpLkVL1mpx6ZGn684JHamprkm5NemmJkwi2SaS7QQBDRw0lqBbUwRtmGgoGm60EudW6t66OlrAmdqLTytYGtgS4EhU8UZVS1fVrJXv+32ex4mT2I7TkLX+9v2SHvz4if08fn69/fl+n8fllowAIiIF/JP5SERU9hhoRKQMBhoRKYOBRkTKYKARkTIYaESkDAYaESmDgUZEymCgEZEy+EsBIiobly9fNsfyY4VGRGVD1l/FBgYaEZWNW265pejAQCOispEvxHIHBhoRlY18zczcgYFGRMpgoBGRMhhoRKQMBhoRlY18FwJyBwYaESmDvxQgorLx2WefmWP5sUIjImUw0IiobOTec5ZvYJOTiMoGm5xEdNNghUZEZePvf/+7OZYfA42IysZCTU4GGhGVjYUqNPahEZEyGGhEpAwGGhEpg31oRFQ2rly5Yo7lx0AjorLB2zaISBkLVWjsQ1ui5FAz7HY77D0Rcwr9IxXa/umPIgiPRZG8ak5YLsmoWE4EiUvmc7quyjfQzvvRLA9kOdT0I1rqgXuuH+7s+/b4kTQnK+FqBL51ct2c6B5LmxMXS8wju33yDRs0NP64F4Foynz9jSiC/n9tQOMjHnQGlnMPJxH4mUcspwHaS9fvCy3SY+yb5iGljuZrokaFNnkUp6PmeFFphH/bj4T5TDXp8DAG9UohjcGTYfHfpbCgwumEc13u4ID1QgzhY/1o91TB0xdZ4jKWix13b7MCK51Yf4d4XJJswDfDf96cNK0CjvucYktZ4XZUmtPoelKkyZlA/29LOIEvBDF4+MY8BZcuheAbgzPb4IgfwQvm+DWpRsfBEYy8mTsEEXk/itDLTXCIJUX370LrsRuxKrBCey6C+LkRtLks5rTl4dw7gmg8ggOeCnMKXU/lH2jrXHCtFDXJ4cEFT+DE8cMIikebqDyUO/wuhHDiuHis7IDvSacYCWL41DKEzQoLbFu6cegZt3iSRugFP0oqjok+B/n+PwK5Q/kH2he92P0DmxgJ4vDxIo3Jq1EEXpb9HC407/xm0b6zVDQA3z4PqvT+qGy/0SGE5zU5ikkj0qPp73d6ehGZ22mciiG0vxWejc4lLGNGNqydzRq8NV6xlkDoNyeWrXlt2+ZFnRyZnMC72c981mesyx4/Eskw+vdpcMnn3w/M3t5Xk4gc6UZjrct4/TrRfN3nK9ovZ+wTc352F7RHuuEXr79s/n22JPx75Ovs8J01J+VKiWOhrx0N2W2fb/nZdbE34JA+IYSujcY8c/uqFuq/So4dQvsj2c9th6u2Ee0Hw/kvVmSXKS9wiG0UPpjzGcXx0doTQOwmv/ggb8ooNpR/oMWTcHia9RM48nKg8MWByDD6J8WjONm33mlMmk+EUJ8IMk87Dp2MA3cYfUcOyH4jHxofaIZfzmNBcj4N2HUwBthbcOSNDr2KnDYZQOv9Gpr7gohDBJ7sn7IkzGV40Ht2sc1iEY5HjbD21jiA292o1zfIAALn9Bd8/qyrsdocnedTP9rvb0TvyZhoCAtXcmLnUgS9D9ag4YlBhD9dbaz7baL5elKc+J4a0YSdH8GJY62o0feJmN/KCvGeSlycGESXpwotL4v9tBj6tvegfX8AkbSt8PIr1qPt0TYx1OnHlohwuHfL521w31FCM1YEUugpDVWPiKAcS8Bi9kdaPgkj0NOIqm93I1ToW/X9Yfj+rQaNIsDi/yyOD7tVVOAxBEXA1T0mviyW+8rtDSxfVZY7yFQrT5+8kdmzdm1m7dpnMxOZjzOHH5Ljd2We/ONl8wW5Lmfe6b5L/H1tZl/gYiZz5ll9fO333shMma+QLv/xycxdcvoDT2ZOf2JOlK5czLzjqzXe8+hwRsxh2tTRPcZ034Q5JZP5WEzT53PPnswbCXNi1uWJzC8fEH9bW5vpDHxsTjR8/NvHMjX68vdn3rtiTizFn/cb73vosNgShuznqvnVe+aUUk1knpXzWis+e+42mOviicxjc1+X3a5iuMv7y8zp2FTm4uXLmcsXs/tkKjO8V+6HuzIPHZjIXMxZx4sT+zMPyffe81jmxKfmROmT4cyee+Q878rsefW9mfdcuZz5INCZqTWXl7v95XLe+J4x/dkz5iRpetsXWL6+nIcyhz80J+qKb48Jn7GcPUdzj6RM5oNXH9Knr32gMzOcO78rU5nT3eaxJPbXB7n7edb225+ZyN0OH4rj3dwOs9ZJKPQZVHTlypWigyIXBWyoF2W9rIz8pybEf+fIXgxY2YSm2sJXvaYuWdEivoG7n+2Ae405UVphRXVrh9HEOj6BiSIFVGKoGdrjIaRXuuH7rwF451z8Sgw9g35RVNja++DzyKbyDNv2p9CxTYzE++EPl1qlzVy5dW13iy1hqNhSD7lFEi/5UfKsFiFx3I+AHKlcj3tyt5VU2YKBX4ttaK+A1WKBxWpUNOmxfnSeEh9mWw9e2eeCdYU+WWd1teHpdvHpLwVwMKfrIHqsFyHRzLLsOoADu50z71lhEZW5D/0/k/2FpUmdPKhve9R048U8y+/5iV7WYuD4EnsF02G89gtZMTvQ8YIPdbcbk3UrKuD+j35064vyYeBUnma2vv3a4FplPpdu96JlpxxJ473YcnUklD9FAk0ckLUirApcHJi+GPADL6qLtBZstR3oaO9A04Y8oTfdxEpgqsDFh/RZH1pkmIkDueXXB+DNPZB1SYRPyQPdhh335zsRRXDWmJ3t50psSqUnEBySieWGd0tOQK5yY6sMx0uDIuQ/x3vGLiUQOdKFlp+FxBML3I95MW9N7HY4cpvYpuiYX/+yqfu2W6zpfM4qGcHiPD8TNZqqYlu/K5prkndLtVjafLeK/VKaNCbOyKNALL9ha96LQo6avXqTsk58CS3lOyA9Lr5AZV9XTTO8+XbzCge27jT2s38szxdwge3nuFO+Bwh/+Ff9keZTJtBgqYY338WB3IsBHuPoSiZi+mMhybFBdO/zQNtgdOQaQ7ZzuID396P1e4cg51yxrwddG/KdfpOIj8rHBHo9ufOeGapEIOqvuFjaKZU6OWicPNvqsXVWpWSFu9YIiMBbITMgFmOmE3zWsM6Nhif8Yj1F+HYO4cD2Uq8XJ/HB+8Y6BX5oXgyYOzxsbuHURfMk/yvi4/LRDeedJfRbFZXClNn/uXp1gSr9dk3/QusQx8lSljb1iXl8ffUrBa+mV9jvNpYRn8KUPoU+D+oEmuDMc3EgHfYbFwO27UZ9tmIq1Kl6NaGfbFWPdGPwzGewbzM6gWd3DhcwGtKbRlLyxWcwWLTAynfT6pzhS+ZLi0rixDGj6tBq51c91pp6s5l8GMMf6ZMWodBn1NDU6cPQ2xG8tvfaTnyrPd98c4bbbjVf+XnKfpksv79+GDbHiritEtXycTwuYntpKh1G5WZdudTQv/HluxCQOygVaLi9HrtlM2sy2wclmhmnZDPHgqaHtbzNnFyJ37Sj/XgKli0+hP4UxIGnjSaoMezGvebr8hPNr+dCGPmxQ4xHRIXnm3+rxrR8N63OGfYWjU/DRyfgN0/S4GN5qh5Xq9HPJT6Pf7R4VTpfoc94AN17vXDN7TdbBO+z+eabMzyjLcN9gpWw15ijy+zLd+hRVdxkXNTAwrpKfEGfsHQFK8+biFqBJiJLe7hJRIv505/sxYDKNniLdZ7pkoiMyqYp0LTHC1tOh3FJGg7gQIMNzu8fgm+LWFb8EDr/c+5Pg76AynXyMYToX2b/5VpERwZEVIkoXZOnyskOzgq9iooOBEv/veuysGK1eYHknWip4fpl2KvkYwjxD/UJSzCz/KmpAg3wq2mkLqSQSi1t36y+TX6pCe9/II6q/JIfmtvga7bpCznXqqJhAPF4HF0bzAk3McUCTXaledEmD9wjfvS+ZF4M2LkZzhIC6nKxf5kk/i7+xxzNa9WtRvNrhQ3eJ7rhXgnEDu5Cp6j4Zjhwr2YcvoOvDhe4n0ieVOZoMVejOH1U9hVa4H1uKH+low+vGNtjumq9XixYX6U3gEW4HkW4QPUqA2WGDfdsMrfXcXmxZb7k+VLvQxPLv694n2LqeDtcG1yoGljaVU5LlWiWy079UT9O5Pt4V2M48Rvjoop303rjuKGS5Gtm5g7KBRpWOLF5h3Fx4NBB82LAtlIu7VfgK181Dq1Dz/cjknPEJ88eQuvD3Xo1VJJKLw7sNyrFwOPts27Gde7sQp1+sHeh5eeh2XeMp2Pi9XVwfcuD3vECVYRpum9woepzensUuKXlH8iq7UWHXYxMHkLzY4OY9cOAqylEXmxA1YYaNOfcXJvdXukjrWg9HEUqu71ENRUb6UJ7X+m3MFhr96JNLv94J9pz5yWkooNo/6n8+nOhqy5fcz+OZKFyay5LNRrNW0C693UjlPvrD3nD7c/b0K0fml1o3vI5NBNTMUTGIogVP2RuCuoFmpC9OKDLvRiwANe/90CT9/5EetHgssO5sUr/yUrVwz6E7C5znlNI/58+UpSlpgtH9oqmx6UQup7Iubt7lYae141fDsQON6Pq61XwPOgRgwaXU0P7UAyObY9ix33FDvQ0wieNH6LLnzotVH1mt0cpv3ddViJc2145AK8IlfSpbnhcLmj6unvEdnCh4Xlxlm9owY/MKlYnttdTLxo/hg895YHL3F5VX3dCe2wYXxAVVcksLnS80if2sTmvb2jGtq8V+9YjgueSA95f9aFJht40J9y75RdGAr0Pys+robWEf6bHsetFDOwW+z8+iOaNTlR5sutZhebDorlpF196L4j1WmzXxjwpBJ/Q0CD/CaPn81exNxMlA2364oCokUq5GDBtTR0O/GEEfXs1OESwpc8nkV7jQl3naxh9/UXs3iJfFEW4pH8LzAJXe49REchq7Bcz/WmWdW0YettYjtOaQvRcVAxTWL2pDl2vjiP4nFa8D+9CEP4jcsT8qdNCprfHMv1gfTEqNfjeGsdrnXWoFtsmpq+7aJfdoaHlhRGMv94Gp6xgc1g3dePoSB9aah2wXkqK10/i1vVN6B4axdBPil+qmadyZh/Ln5vp2/4Tsa+2d+G1t4PwbcsJU50F1T8ZQpdctgiPmNhPljmfLy95A+2TQYy/KipM0WxOR+V6RpG+rVo/nsbf8kEz+/SWxgrb3cY/YaTdZ94KorBMnt9v5g78J7iJqGwsFFdqVmhEdFNioBGRMhhoRKQMBhoRKYMXBYhIGQw0IiobvMpJRDcNBhoRKYNNTiJSBgONiMrGQnHFQCMiZbAPjYiUwQqNiMoGm5xEdNNgk5OIlMFAIyJlMNCISBnsQyOisrFQXLFCIyJlsEIjImWwQiMiZTDQiEgZDDQiUgYDjYiUwUAjImXc8re//Y1XOYmoLHzxi180x/LjbRtEpAw2OYlIGQw0IlIGA42IlMFAIyJlMNCISBkMNCJSBgONiJTBQCMiZTDQiEgZDDQiUgYDjYiUwUAjImUw0IhIGQw0IlIGA42IlMFAIyJlMNCISBkMNCJSBgONiJTBQCMiZTDQiEgZDDQiUgYDjYiUcZMGWhqJs2GEo0nzueKuJhEdCyPyUdqcQKSmsgy06H437HY77D8MIGVOKywJ/x7xWvF69/6oMSnSD+3hRjR6OhG4wTMtOdRsrGtPxJxSWKTHWM+5r00GOuF5pBEN/9qPhedCVL7KMtCcNTtgkyPHTyB0QZ9U2Ecn4B+VI040f9upT8Idd6N+FWBxrofNakxSWcWd1XCuBKxuByrNadcqG5rNQzdJdUtlpTybnOs0NK+TI0GcGCteoyXGho2qxOWF265PAlZp8J2NIzrSBpfFnKYyZwtGzsUR+VUdKsxJRCoq0z40B9w7XPpY8NgJ0agsJIHQMaOR5d651ajqiEhZZXtRwLZFVFxyZDSI0+f1SfPFQ/DreaahfktObXLej2bZ12T35e9TSsUQ2t8Kz0an0Se1QUPjjw8hPGs52b45N/rNrrlciSMN+nsbjiTMKTmi/aJaFO/d4y8Sxp+jsz5jPfIt75II/YPtaMiuq90F7ZF2HBrLfWUEPv1vYn0OGlNCj1cVnGcqGoBvnwdV64z3ODd60NoTQDRfMZ3z2RLJMPr3aXDJ598PIJkOo1ufh9jG58zXzxLD4IPGMrpHecGDyjjQsGYr6rfJERFap/KEhhB72w89azz1cK/SJy1sMoDW+0WTti+IOMTJuM4JpyWB8DEfGh/woPds9sSpwHq37JNL4MTZmDFpWhLhU0ZURk6F553wsbMnxLtES9C9/vo2Ac8H0fWgG80ibCJpm7GuolkeGxOB9EgNPH0RGGv7Zax/tA1tYqgzCmPxhdKkP2/b8hXMtNrTiB1uRpVHBOLJKNK3ifmJedrSUQRFaHo2NmPw/QLB86kf7fc3ovdkzLjQc+UyYFkPrUHOPYGjo3m+NeJh+GXQrWyCVnUz9B3QQso30GCF+9t1+ljkWEgPiNnESTQgTwILmhrc4tUlSEfQu6cdwQsOeF8IIfr2CEbeFMPbUYSer4PtUhT9Pz2E6FXj5Y4NRjM2OhadHVoXwgjpFyKE0RDCsy5cpBCfkJ/Lhq0bHMak6yKN8Evt8MfFeux9DZE/BY11PRlBZKgDLvH36H4RTHplZIPW3oEOMezeoL8Z9to2/XnHLtf0tk2P+lD3VAjplS50DIn5nDS2X/BPEYw86YblUgjdD/kQumS+Ide5CKLONgycHEckGkX0hXoR9hZUf6dJD8zE0dPGl1OOZETsI/FoadCwnnlGQhkHmog00exsWilGIsMIfWRMmxY9jaOT4nGlF9p9pR3tiaFn0C9OcFt7H3ye2T1utu1PoUNWhPF++MNmlXHnN6HJ5Z+awHs5hUcqfBpBcRrWeTTxTDSJwzltravvYWJEPK7U8M07jUklOWg0YYsN2eZgaaIID8kPXY3mxmpYVxhTJaurDT/aI8cSmPjLvEZqAQn4fzUoYlCs93OvoM2V8xWywgrn7gM4sEvsh0uD8B2ZW9EKlS0Y+HWHaIpXwGqxwGI195mrHm3y0uzkUZyelWhJnD4eEo8WeLes10OPqKwDbaZJEsHw2OwaLfqHo3rVZvuBF9UlHe3ZZqINO+43b++YxYrqGtlrl0bonEg9aYUT1dvliB/h6T6eNCbGA+LRi/rOesgaMjA+Iaaa/jIhIk7YXg1nTogsaJXDaBIWGRylNqt1lai8Tz6GERydX99W/yyOeDyOgYYSG8XZ/krR/Nut5auHLXDXGdVW7HdhzIs0EcgO+eUwl9jGm3fIL5c5zc5sFSyWV1/aDqabQHkHmjg9qr/bpjf7IkdDMyfJ1ShOH9XjrEA45TOJuN5MTKDXk78CqnpcVgTiFRez8WTB+ioZWWkEz5gnW1qcaEfE4y43qtdUY7Os6o6IZqf5lsSfw3rQ1lUtsqpo6DGahEWGngbztSWpQH1rm35/WugJN5wbG9D+zCACZ2NI5lSbJUtOGk3C++yoLBTUt98t6kHh3CSSZrO9FM77jfsOE7+ZaXYaVbDYA7u2wrWYLwZSWpkHmuDcjB2ySXJOVElm4TTd3HQ1o67UPJtmQYUzfwU0PXzJfKlgXV+tX21NnHnX6Ec7Fxb1WjawslVdtoJLIToeFo8i7NZf/zt6LRs6MPLfr6FruwvWVASBV7rR/rCGKqcLDfKqbqmtTSE5macZOVeFDUavYQyJRcwbTvO+w+lmZ7YKtqDpX8yrFERC+QeaaJJozTK1ohg4aXx/R37Xr1dBru1u/Zt9carRcTB/BTQ97M05idZshlYjHkfDmEiJZf9e9iPVYesmI7AqNmkivtIY/L1oj12NY+KUmFijYfMa/c/Xn6giW54fwvj/RhH5wwgGnmsTXwJpRORV3fubESh0S8wcFZUlXOA4/4FZRduwelHN4+x9h2azM1sFV7ahnnlGOco/0ARHjRf64S6bJOJgHz4i20wadm9bTJx9AZX6rw9CiP5lMW2u7O0bAUxEo3jnLfHemmpMF2AiMNziw6XfekfM9x0EL90At2tIV9NIXUghlTLXdYWoJ293wt3Qgb43xzGgd+CH0Hss28hbQEUl9GL4TByThZqTk3HI+hTrRLN0kd1etk310/s4ciakV8G2HZsX1w9JylMi0HD7VnhllSSaJMN9QfjlbQHbtpZ+75nOgXs1IwAHXx1GIu9JKUPAHM2RvX0j+PwTelPXvW1zTmDZUC3bveKzHXx5QtQY1/t2DdOf+1G1wQXXbv/8DvoVVtz9Nb23K6e/cAF2N7wycS4NYngs33vSCAVk9Sq213eqzabnIuTs486n/WI+NuyoWXR/AilOjUAT8bF1u7xFIoFDB42TpqlBK+3esxzOnV2ok1faRrvQ8vPQ7I7rdAyBx+vg+pYHveNzbnk3b99IRCLiE4gqxzW7/nJs9IqpCQRGQou/XWO5ODejSe979MF3OIpU7rqmohjWb4kQde7d2R/AzhY/P7cTzAbvD+VVTNG8frQVg7k/C7iaQvRwK1pl5byyCV27riXQZ/ZxLC7mU7kDm5lnNIcigQZYa71oMsev+c7xVRp6Xu+AS4STfsf716vgedAjBg0up4b2oRgc2x7FjvvmROX07RvCOi+q52aA/V5szf4zF4u9XWO5WFzo2C/XVVROT3ng+oY2s64uD3yj4iVbfOjaNntdnZvMG137xHtqPdB+OPPTJ0tNFwLZG2g9ovoTf5fz1L7hgid7w+3rXXDnuz2jBNZNWyEjTbLtZHOT5lMm0GCphrbbCDHLrvoS7z2bz7KuDUNvj6BvrwanVVQW56JimMLqTXXoenUcwec02OadSNnbN8SJpt2bpznlxOadRnN20bdrLKNZ62pJmOuagEWEd8sLIxh/0TtvXS2bujDUqen3vKXiUUytuNX8i2SBY/cAxkf60FLrhOUTOb8oEhYntL19GHl7CG3rlrD2q9zYqv/cjc1Nyu+WjGCOE93Y5I/VNzRi0N6N4JtNi++HI+WpU6GR8tLjxgUf53ev4aIC3RQYaFQezofge0Ze8HGjqZZxRvmxyUk3NPn/VMj+5Ez20VU/HcBr13SVlG4GrNDoxrbSqt9+Y1njQtNzAQwwzKgIVmhEpAxWaESkDAYaESmDgUZEymCgEZEyGGhEpAwGGhEpg4FGRMpgoBGRMhhoRKQMBhoRKYOBRkTKYKARkTIYaESkDAYaESmDgUZEymCgEZEyGGhEpAwGGhEpg4FGRMpgoBGRMhhoRKQMBhoRKYOBRkTKYKARkTIYaESkDAYaESmDgUZEymCgEZEyGGhEpAwGGhEpg4FGRMpgoBGRMhhoRKQMBhoRKYOBRkTKYKARkTIYaESkDAYaESmDgUZEymCgEZEyGGhEpAwGGhEpg4FGRMpgoBGRMhhoRKQMBhoRKYOBRkTKYKARkTIYaESkCOD/AfAH3neeZD0PAAAAAElFTkSuQmCC;" parent="1" vertex="1">
                    <mxGeometry x="530" y="40" width="308" height="176" as="geometry"/>
                </mxCell>
                <mxCell id="xVxMiGjjARDTKJH-ql0I-1" value="" style="endArrow=classic;html=1;rounded=0;fontFamily=Helvetica;fontSize=24;fontColor=#000000;" parent="1" edge="1">
                    <mxGeometry width="50" height="50" relative="1" as="geometry">
                        <mxPoint x="833.0119565217392" y="400" as="sourcePoint"/>
                        <mxPoint x="860" y="150" as="targetPoint"/>
                        <Array as="points">
                            <mxPoint x="930" y="190"/>
                        </Array>
                    </mxGeometry>
                </mxCell>
                <mxCell id="FewOSAwfPv9n6DoSlOyD-1" value="" style="strokeWidth=1;shadow=0;dashed=0;align=center;html=1;shape=mxgraph.mockup.text.rrect;rSize=0;strokeColor=#666666;" parent="1" vertex="1">
                    <mxGeometry x="510" y="410" width="520" height="40" as="geometry"/>
                </mxCell>
                <mxCell id="FewOSAwfPv9n6DoSlOyD-2" value="&lt;font color=&quot;#000000&quot;&gt;Login&lt;/font&gt;" style="strokeColor=inherit;fillColor=inherit;gradientColor=inherit;strokeWidth=1;shadow=0;dashed=0;align=center;html=1;shape=mxgraph.mockup.text.rrect;rSize=0;fontSize=17;fontColor=#0000ff;" parent="FewOSAwfPv9n6DoSlOyD-1" vertex="1">
                    <mxGeometry x="117.74" width="127.55" height="40" as="geometry"/>
                </mxCell>
                <mxCell id="FewOSAwfPv9n6DoSlOyD-3" value="" style="strokeColor=inherit;fillColor=inherit;gradientColor=inherit;strokeWidth=1;shadow=0;dashed=0;align=center;html=1;shape=mxgraph.mockup.text.rrect;rSize=0;fontSize=17;fontColor=#0000ff;" parent="FewOSAwfPv9n6DoSlOyD-1" vertex="1">
                    <mxGeometry x="245.28" width="156.98" height="40" as="geometry"/>
                </mxCell>
                <mxCell id="FewOSAwfPv9n6DoSlOyD-4" value="&lt;font color=&quot;#000000&quot;&gt;Logout&lt;/font&gt;" style="strokeColor=inherit;fillColor=inherit;gradientColor=inherit;strokeWidth=1;shadow=0;dashed=0;align=center;html=1;shape=mxgraph.mockup.text.rrect;rSize=0;fontSize=17;fontColor=#0000ff;" parent="FewOSAwfPv9n6DoSlOyD-1" vertex="1">
                    <mxGeometry x="402.26" width="117.74" height="40" as="geometry"/>
                </mxCell>
                <mxCell id="FewOSAwfPv9n6DoSlOyD-5" value="&lt;font color=&quot;#000000&quot;&gt;Predictions&lt;/font&gt;" style="strokeWidth=1;shadow=0;dashed=0;align=center;html=1;shape=mxgraph.mockup.forms.comboBox;strokeColor=#999999;fillColor=#ddeeff;align=left;fillColor2=#aaddff;mainText=;fontColor=#666666;fontSize=17;spacingLeft=3;" parent="FewOSAwfPv9n6DoSlOyD-1" vertex="1">
                    <mxGeometry x="250.19" width="147.17" height="40" as="geometry"/>
                </mxCell>
                <mxCell id="FewOSAwfPv9n6DoSlOyD-6" value="&lt;font color=&quot;#000000&quot;&gt;Home&lt;/font&gt;" style="strokeColor=inherit;fillColor=inherit;gradientColor=inherit;strokeWidth=1;shadow=0;dashed=0;align=center;html=1;shape=mxgraph.mockup.text.rrect;rSize=0;fontSize=17;fontColor=#0000ff;" parent="FewOSAwfPv9n6DoSlOyD-1" vertex="1">
                    <mxGeometry width="120" height="40" as="geometry"/>
                </mxCell>
            </root>
        </mxGraphModel>
    </diagram>
    <diagram id="tpZ2j12hOs2nje7bjnnZ" name="Prediction page">
        <mxGraphModel dx="1093" dy="685" grid="1" gridSize="10" guides="1" tooltips="1" connect="1" arrows="1" fold="1" page="1" pageScale="1" pageWidth="850" pageHeight="1100" math="0" shadow="0">
            <root>
                <mxCell id="0"/>
                <mxCell id="1" parent="0"/>
                <mxCell id="-HiI3UU30mA8mjhggMXM-1" value="" style="strokeWidth=1;shadow=0;dashed=0;align=center;html=1;shape=mxgraph.mockup.containers.browserWindow;rSize=0;strokeColor=#666666;mainText=,;recursiveResize=0;rounded=0;labelBackgroundColor=none;fontFamily=Verdana;fontSize=12" parent="1" vertex="1">
                    <mxGeometry x="30" y="290" width="1050" height="760" as="geometry"/>
                </mxCell>
                <mxCell id="-HiI3UU30mA8mjhggMXM-2" value="history" style="strokeWidth=1;shadow=0;dashed=0;align=center;html=1;shape=mxgraph.mockup.containers.anchor;fontSize=17;fontColor=#666666;align=left;" parent="-HiI3UU30mA8mjhggMXM-1" vertex="1">
                    <mxGeometry x="60" y="12" width="110" height="26" as="geometry"/>
                </mxCell>
                <mxCell id="-HiI3UU30mA8mjhggMXM-3" value="https://www.superlife.io/history" style="strokeWidth=1;shadow=0;dashed=0;align=center;html=1;shape=mxgraph.mockup.containers.anchor;rSize=0;fontSize=17;fontColor=#666666;align=left;" parent="-HiI3UU30mA8mjhggMXM-1" vertex="1">
                    <mxGeometry x="130" y="60" width="250" height="26" as="geometry"/>
                </mxCell>
                <mxCell id="-HiI3UU30mA8mjhggMXM-4" value="" style="verticalLabelPosition=bottom;shadow=0;dashed=0;align=center;html=1;verticalAlign=top;strokeWidth=1;shape=mxgraph.mockup.markup.line;strokeColor=#999999;rounded=0;labelBackgroundColor=none;fillColor=#ffffff;fontFamily=Verdana;fontSize=12;fontColor=#000000;" parent="-HiI3UU30mA8mjhggMXM-1" vertex="1">
                    <mxGeometry x="-10" y="700" width="1050" height="20" as="geometry"/>
                </mxCell>
                <mxCell id="-HiI3UU30mA8mjhggMXM-5" value="" style="rounded=0;whiteSpace=wrap;html=1;" parent="-HiI3UU30mA8mjhggMXM-1" vertex="1">
                    <mxGeometry y="110" width="1050" height="60" as="geometry"/>
                </mxCell>
                <mxCell id="-HiI3UU30mA8mjhggMXM-6" value="" style="strokeWidth=1;shadow=0;dashed=0;align=center;html=1;shape=mxgraph.mockup.text.rrect;rSize=0;strokeColor=#666666;" parent="-HiI3UU30mA8mjhggMXM-1" vertex="1">
                    <mxGeometry x="480" y="120" width="520" height="40" as="geometry"/>
                </mxCell>
                <mxCell id="-HiI3UU30mA8mjhggMXM-7" value="&lt;font color=&quot;#000000&quot;&gt;Login&lt;/font&gt;" style="strokeColor=inherit;fillColor=inherit;gradientColor=inherit;strokeWidth=1;shadow=0;dashed=0;align=center;html=1;shape=mxgraph.mockup.text.rrect;rSize=0;fontSize=17;fontColor=#0000ff;" parent="-HiI3UU30mA8mjhggMXM-6" vertex="1">
                    <mxGeometry x="117.74" width="127.55" height="40" as="geometry"/>
                </mxCell>
                <mxCell id="-HiI3UU30mA8mjhggMXM-8" value="" style="strokeColor=inherit;fillColor=inherit;gradientColor=inherit;strokeWidth=1;shadow=0;dashed=0;align=center;html=1;shape=mxgraph.mockup.text.rrect;rSize=0;fontSize=17;fontColor=#0000ff;" parent="-HiI3UU30mA8mjhggMXM-6" vertex="1">
                    <mxGeometry x="245.28" width="156.98" height="40" as="geometry"/>
                </mxCell>
                <mxCell id="-HiI3UU30mA8mjhggMXM-9" value="&lt;font color=&quot;#000000&quot;&gt;Logout&lt;/font&gt;" style="strokeColor=inherit;fillColor=inherit;gradientColor=inherit;strokeWidth=1;shadow=0;dashed=0;align=center;html=1;shape=mxgraph.mockup.text.rrect;rSize=0;fontSize=17;fontColor=#0000ff;" parent="-HiI3UU30mA8mjhggMXM-6" vertex="1">
                    <mxGeometry x="402.26" width="117.74" height="40" as="geometry"/>
                </mxCell>
                <mxCell id="-HiI3UU30mA8mjhggMXM-11" value="&lt;font color=&quot;#3399ff&quot;&gt;Predictions&lt;/font&gt;" style="strokeWidth=1;shadow=0;dashed=0;align=center;html=1;shape=mxgraph.mockup.forms.comboBox;strokeColor=#999999;fillColor=#ddeeff;align=left;fillColor2=#aaddff;mainText=;fontColor=#666666;fontSize=17;spacingLeft=3;" parent="-HiI3UU30mA8mjhggMXM-6" vertex="1">
                    <mxGeometry x="250.19" width="147.17" height="40" as="geometry"/>
                </mxCell>
                <mxCell id="x5gRSRNBlkIUuMprvmUb-37" value="&lt;font color=&quot;#000000&quot;&gt;Home&lt;/font&gt;" style="strokeColor=inherit;fillColor=inherit;gradientColor=inherit;strokeWidth=1;shadow=0;dashed=0;align=center;html=1;shape=mxgraph.mockup.text.rrect;rSize=0;fontSize=17;fontColor=#0000ff;" parent="-HiI3UU30mA8mjhggMXM-6" vertex="1">
                    <mxGeometry width="120" height="40" as="geometry"/>
                </mxCell>
                <mxCell id="-HiI3UU30mA8mjhggMXM-12" value="&lt;b style=&quot;font-style: normal; font-variant-ligatures: normal; font-variant-caps: normal; letter-spacing: normal; orphans: 2; text-align: left; text-indent: 0px; text-transform: none; widows: 2; word-spacing: 0px; -webkit-text-stroke-width: 0px; text-decoration-thickness: initial; text-decoration-style: initial; text-decoration-color: initial;&quot;&gt;&lt;font style=&quot;font-size: 24px;&quot; face=&quot;Helvetica&quot;&gt;Super Life&lt;/font&gt;&lt;/b&gt;" style="text;whiteSpace=wrap;html=1;fontSize=24;fontFamily=Verdana;fontColor=#000000;" parent="-HiI3UU30mA8mjhggMXM-1" vertex="1">
                    <mxGeometry x="70" y="120" width="200" height="60" as="geometry"/>
                </mxCell>
                <mxCell id="-HiI3UU30mA8mjhggMXM-13" value="" style="shape=image;verticalLabelPosition=bottom;labelBackgroundColor=default;verticalAlign=top;aspect=fixed;imageAspect=0;image=data:image/png,iVBORw0KGgoAAAANSUhEUgAAAEAAAABACAYAAACqaXHeAAAABHNCSVQICAgIfAhkiAAAAAlwSFlzAAABbgAAAW4BhFBfJAAAABl0RVh0U29mdHdhcmUAd3d3Lmlua3NjYXBlLm9yZ5vuPBoAAA3CSURBVHiczZt7fFTVtce/+5x5ZfJgBgImAQR5KOADRS5gsCCgVAEFexWkWigkoLZCBVuVej8f5fNBQCkWsVQDiRTkWkU+5SGgLSoCGgJFkMdFCQ+RVwIE8k7mdc6+f0xmMkPmTYL9/ZXsfdbaa/3mnL3XXnttIaXkWkP0fdJoMWm/EpLpEmkWiKX1bjVP7smru+a2XEsCxC1jTebU1MkC8SLQKbhXXhCIhfUW81/l1iU118yma0GAGDLJYnYoUwTKCyDb+9pbWXUsRsn5SjXw8Usg33BI519k0aqqFretJQkQvSckJyWZn5JC/h7I8LW3TtGYdn8lTw+vwmSQ/O3LVBZutHH2siFQvBzBIotZW1y+dXlFi9nYEgSIu3NSLbp4BslMIN3X3jZN43cjKpk6rIoUix4k4/II3tueyoKPbZwqayRCQKUUcrEJsaiyMP9ys9vanATYh0yyOZzqdCTPAnZfe6ZdY8aICnKGVpFkijyeWxO8/1UKCzbYOHHBGNhVjZBLjC7Dwqo9eWXNZXOzEJDWf2Ibt2KcAUwD0nztHdp4eG5UBb++pxqzIb5xNB0+KExlwQYbxSVBRNRKwdsGXfyppmjZ+au1/aoISB34dDu37n5OwG+AFF9757Ye/vBgOY//rAZTnI5fCV3CmqIUXltv47uzpoAeUS8leapHeb12T15JovoTIiC575OZmkF/Xgg5FbD62rtluPnDQxWMz67BoDbv3CIlrPt3MvPX2zl4KpAIHALykeK1uqJlZ+LVGxcB1n6TO2IQL0gpcgGzr71nexfPP1TBIwNqUJV4TYgPUsKmfcnMW2dj3w/mwC4XkuWozKv/Ov/HWPXFREBS/yk3oMhZwETAT/8tHV28OKacMf9ViyLi8KKZ8M/9VuautfPv40FEuEGsRNPn1u8uOBFNR0QCLAMmdRdC/SPwBOBfm+64wcmsMRWMvKMW8RM4fiU+P5TEvLV2Costgc0e4H+l1F51FC0/Gk42LAHW7KnZUurbAX+Y1q+bk1ljyvl578RC9kvVKntOmCkpVzlbbqCkXEXXBZl2D5l2jSy7h96dXLRv7UlI/7bDScxfb2Pb4aTAZk3Cw46d+R+HkjGEagTQ0WYIhApwdw8HL44pZ+jN9XEbdfy8kQ17ktm010rRUQt6DFPO7Z2djOxTx+i+tdzS0RXzWIN71TO4Vz2FxRbmr7Pz2cEkAFXAS0BIAiK8AbnrpGR0xzYejiw6FbMRPpSUq8xe05pVO1LDO20wghDgDu/kqD61zHnsMjdmuuO24b45WXx9xIKA/XU7828PaUI0JfF+4y6P4PUNNhZtslHnahSWyanoXXuide2BtLWBlDSkueGbdbsQNVWIynKUH46gHjuMqCwHYOPeZD7dbyV3aDWvPHqZtCQ91LAhEcvEHJWAeHC+UuWxRdex61jjZKR3vAHPwOHoHToBYSwympD2dKQ9Hb1zdzxDRqFcOIe68wvUo/+HRxO8syWNLw4lsXpGaUJvQzg0GwF7jpsZ92YGJeXeOVPa03HfMwK9a8+E9OntstBHP4F25iSGLzehlJ6huMTIoFfa87enL3D/7c2TO2mWsOWbE2aGv5rld17v1gvnhGkJOx8IvUNnXL98Cq13fwCq6hQeeSODzfusUSRjw1UTUFqhMnZRBg639/X29L8H15gnwGiKIhkHFBX3fWNwD3sIFAVdwuS32/H9OWN02Wiqr0bY6RGMW9T42nv6Dcbzs58T9lu/Smh33OUlAaiqVxj35wwq667uN7yqOWDBBps/DNW79mxwPjKUsz+iHD2EuGJtlIpA734LevtOYSS90Hr3R7lYivptEUdLjfzxgzYsmXwxYR8SJqC0QuXNzTYAZKvWuEaOi75m6hrGtSsQjtABlTz0Dc7fvASKGrLfB/fQBxEXzqGcO8XKban8dnglvTrEHjAFIuH3Z84/7NQ6G777QfeDyRxFAoTbHdZ5AOGoR7hjWOIUBc+QUYBA02HW31vHanZTVYkInb1sYMU2b+JHz7oe7aZb49bhefROHJ9Mx/HJdDyP3hm3vJ7ZEa3HbQBsOWBl97HoP0AoJETApr1WtIaAzJM9LKGBmwOBY6/fk5yQjoQI2LjXO5g0W9Cv75bQwM0B2botMv06ADbtTYyAuCfBaofC9u+8oa7epQcoYTh0uxB1tcFtLmf0AaoqEFfMJ9KSBGZLyMe1br0wlJ2nuMTI0VIj3TPiC5PjJuDgKRMuj3fy07vcFPIZpeQ0ptX5EXd54VYM84o3mzaqKu5R49G639ykS+9yExRtBbzheLwExP0J+IIewLurC6X0ZHFk5wHZ0d74dwd7hCcBTUM5/l1oPQE2lFTEv6rHLVFS3igik1NDPxSQY/A83h9Mweu6zLKhZXf1/68N6wEWI6K0sqmBK4u8hwRh8hYyKdn7Gep60I8TK+InoMI3iAhPQAC0h29HJkdZolQFbVD3kF2GVbtAiyArBNKagqipCvpxYkULJ7H/8xE3ZZk2388hEbXVyDRb5AGW7gBDMM8yoxWeh3qDuWH4ejeGj/cjzoc4DdeiZICkRNR5ywky7fEnU+MnIGCQsAQExPLqvw6H1CMtRrQHvZGcuuUwhuWFkQcOsz8Q9bWg6w22RfpWwqiNVyBwEFFxKeQzWvebka0iz+yirCbk36EgrSlovULmNINsyLQ14xsgJdXgDXwCcev1LkwGicsjUE4cQevZ1DDZph3OKc83NdbpwPzWbP8AoeCc9nJjsjQGKCeO+P/u2zU40Kpp2KxJvL6ElA+rWXAUoLxGoay68fVLtegM6uloGPx7/+v3U0E95v3Ebsx0NwmCjpf6M0bHwsmHJUAg/MdJR65IPY3q4w1xhdOBciqs7haHuHwRUeYtERjZJzjsPl+pUlXvc08kQICmBxAQnN8b2afOfwpsKPw8PqubEYFjj+4bTMDRgKIKgR72bDAsAXXCWQzoANsOB3+T7Vt7mDjYu2Qp506hHjkYj90AGD76BssDi7E8sBjDR9/ELa+UnEb9/gAA991WR79uwd//V0cazwcVRS0OqydchyxaVSUEn4B3r32pOngZ+p9flJNs9k5khu2fxrTTk0ajd2cXrt+ShDTGkOnVdQxbNwISVYF544NrpzQd3t3qj1KP1RYu2x9OVcQ4QJdyqUCMdHkEK7enMmNkY7Vahk3jdyMqmLvWjqi8jGnTh7jG/CpyXlBRcT88MWJSNFo+EMD4xcco57znlRMGVzfJB376rZUzl7yuCUmejFADELE+QIwdq1pOt/oRZPuu17k5sOB0kH9Oj2D4nCx/ZtjTb7A3P9iCUPfvwrhlHQDdM9xsn32WVtbglWj0ggy2HLACOI26u33VrhWhAxaiBEJy9WoNKQvAe8z94c6UoH6zQfLhs6X+4MiwexuGHf8EWqb4Ut23E+PnGwBIS9L5cEZpE+d3HzPz2UH/qdFHkZyHGCJBxSDzaAgknnsv/cqyVjJsGqufLcVibJgPdn2Jad2qqPmAuKBrGLes8zqv6ygC3n36Aj2ygtd9h1swdWk7X4ylKYI3oqmOSkDtVwXngJngDYqmL09v8sydXZz866Vz/jdBOXYY88q3wiYx4oFy5iSm999B3b8LgDSrzpqZpYy4o+nh6Ow1rQNrCv9UW5i/L5r+mKvEku7K3Qw8AFDw1AXGD2wavyd8PB4CgcfjPtyY6Q57PF5YbGH4nCxfMcZhh93aR25eHHVpipmA5LtzsnRNHALsJoNkxW8vNAk+oPkLJAAMqoxYIFFYbOEXCzOo8p4TakKQXVeYvzsWv+KrExww5REp5AeAqiqwJOciEwaF3mdcqxKZLQesjH/zugCy5Uv1OwvmxupT3JWi1gE5/y2FeB8wCQGvPHqZ50ZVhC1Hackiqfd2pPJMQTpuTQBIgfx93c6CqBNfIBIqlU26K+deEGtpqA++u4eDpVMv0Llt5P14c5XJlVWrPPNuOhsaT4M8CJlTX1iwMl5fEi6Wtmbn9pOwDkkmQIpFZ974y+QMbdlLHhv2JPPMu+mBW/QqKZTHHYVLNyai76qqxVtl57Z2Sf4KjPO13XtrPe9MuUhWAvm5SKisU5i5Mp2/fx0UjH0uDOrkuh158dfxNaBZ7gtY75oyTiKXAG3AexfozxPLeCy7ee4+fXYwiaeWteVcY9q7TgpecO4sWBIpzo8FzXZjJKXfpAxdVZZJxChf2+i+tbw1uYz01PiTlQC1TsGs99uQ/0VaY6Nkp0SbGKn+Nx40+52hpOzcyUgWAangvSf0l8llPHhn05ghEr4+YmHq0rb80HhtxiWkeLn++soFcvXqxBgNgRa5NJU0MLcTOsuBIb62Xw6sYeGEsiablyvhcAtmr2nNW5+08i+ZUvKtVLQJzsLl8WdeoqDFrs0JIYR5QO40AfNBJoE3k/R27kXuvTV0mczeH8xMyWsbeDVGA+Y73OpsuSev+cpDA+1s6YuTlv5TbxSKvhLo72ubMqyKueMv+TNKbk3w2nobr2+w4dEaIirJEaEwIdaQNlFcm5ujY8eqltOpL4B4mYYbJ13auVn65EXsyTo577Tl25P+A1QpBIvrqZolC1fHX58fr23X8u6wqX9Ob4MiVkq4DbzV3AZV+gsugJMgJtXvXPbltbLpmhIA3gvUlpS0VxA8T8BtFCDfocqZ8quCsKc4LWLPT3F9HsA6YMoAqeivIoVJSjHPUbRs809hx/8DMDvENwVoSEUAAAAASUVORK5CYII=;" parent="-HiI3UU30mA8mjhggMXM-1" vertex="1">
                    <mxGeometry x="200" y="120" width="45" height="45" as="geometry"/>
                </mxCell>
                <mxCell id="-HiI3UU30mA8mjhggMXM-14" value="Copyright 2022 All rights reserved" style="text;html=1;strokeColor=none;fillColor=none;align=right;verticalAlign=middle;whiteSpace=wrap;rounded=0;fontSize=18;" parent="-HiI3UU30mA8mjhggMXM-1" vertex="1">
                    <mxGeometry x="10" y="720" width="300" height="30" as="geometry"/>
                </mxCell>
                <mxCell id="zjLbiNXhVgmNQLWEvdw5-1" value="&lt;span&gt;&lt;/span&gt;&lt;span&gt;&lt;/span&gt;&lt;span&gt;&lt;b&gt;&lt;font style=&quot;font-size: 24px&quot;&gt;The predicted price for insurance is:&lt;br&gt;&lt;/font&gt;&lt;/b&gt;&lt;/span&gt;&lt;font color=&quot;#6c767d&quot; style=&quot;font-size: 24px&quot;&gt;&lt;b&gt;&lt;font style=&quot;font-size: 24px&quot;&gt;&lt;br&gt;&lt;/font&gt;&lt;/b&gt;&lt;/font&gt;" style="html=1;shadow=0;dashed=0;shape=mxgraph.bootstrap.rrect;rSize=5;strokeColor=#DFDFDF;html=1;whiteSpace=wrap;fillColor=#ffffff;fontColor=#000000;verticalAlign=top;align=left;spacing=20;fontSize=14;" parent="-HiI3UU30mA8mjhggMXM-1" vertex="1">
                    <mxGeometry x="790" y="430" width="240" height="210" as="geometry"/>
                </mxCell>
                <mxCell id="E0XdHepI6EG871Z8JuYB-39" value="" style="rounded=1;whiteSpace=wrap;html=1;fontSize=38;fontColor=#7C7C7D;fillColor=default;align=left;" parent="-HiI3UU30mA8mjhggMXM-1" vertex="1">
                    <mxGeometry x="20" y="180" width="750" height="460" as="geometry"/>
                </mxCell>
                <mxCell id="YrtBH8Yb1dSlFtwScdb6-11" value="Submit for prediction" style="html=1;shadow=0;dashed=0;shape=mxgraph.bootstrap.rrect;rSize=5;fillColor=#0085FC;strokeColor=none;align=center;fontSize=14;fontColor=#FFFFFF;sketch=0;" parent="-HiI3UU30mA8mjhggMXM-1" vertex="1">
                    <mxGeometry x="530" y="580" width="150" height="40" as="geometry"/>
                </mxCell>
                <mxCell id="YrtBH8Yb1dSlFtwScdb6-12" value="&lt;font style=&quot;font-size: 18px;&quot;&gt;Undergone major organ transplant?&lt;/font&gt;" style="text;html=1;strokeColor=none;fillColor=none;align=left;verticalAlign=middle;whiteSpace=wrap;rounded=0;fontSize=38;fontColor=#7C7C7D;" parent="-HiI3UU30mA8mjhggMXM-1" vertex="1">
                    <mxGeometry x="360" y="230" width="470" height="40" as="geometry"/>
                </mxCell>
                <mxCell id="zjLbiNXhVgmNQLWEvdw5-5" value="&lt;font color=&quot;#3399ff&quot;&gt;Health information&lt;/font&gt;" style="text;html=1;strokeColor=none;fillColor=none;align=center;verticalAlign=middle;whiteSpace=wrap;rounded=0;fontSize=18;" parent="-HiI3UU30mA8mjhggMXM-1" vertex="1">
                    <mxGeometry x="320" y="190" width="230" height="30" as="geometry"/>
                </mxCell>
                <mxCell id="YrtBH8Yb1dSlFtwScdb6-7" value="No" style="html=1;shadow=0;dashed=0;shape=mxgraph.bootstrap.radioButton2;labelPosition=right;verticalLabelPosition=middle;align=left;verticalAlign=middle;gradientColor=#DEDEDE;fillColor=#EDEDED;strokeColor=#666666;checked=0;spacing=5;fontColor=#212529;checkedFill=#0085FC;checkedStroke=#ffffff;sketch=0;fontSize=18;" parent="-HiI3UU30mA8mjhggMXM-1" vertex="1">
                    <mxGeometry x="710" y="255" width="10" height="10" as="geometry"/>
                </mxCell>
                <mxCell id="YrtBH8Yb1dSlFtwScdb6-6" value="Yes" style="html=1;shadow=0;dashed=0;shape=mxgraph.bootstrap.radioButton2;labelPosition=right;verticalLabelPosition=middle;align=left;verticalAlign=middle;gradientColor=#DEDEDE;fillColor=#EDEDED;strokeColor=#666666;checked=1;spacing=5;fontColor=#212529;checkedFill=#0085FC;checkedStroke=#ffffff;sketch=0;fontSize=18;" parent="-HiI3UU30mA8mjhggMXM-1" vertex="1">
                    <mxGeometry x="660" y="255" width="10" height="10" as="geometry"/>
                </mxCell>
                <mxCell id="YrtBH8Yb1dSlFtwScdb6-16" value="&lt;span style=&quot;font-size: 18px;&quot;&gt;Number of major surgeries&lt;/span&gt;" style="text;html=1;strokeColor=none;fillColor=none;align=left;verticalAlign=middle;whiteSpace=wrap;rounded=0;fontSize=38;fontColor=#7C7C7D;" parent="-HiI3UU30mA8mjhggMXM-1" vertex="1">
                    <mxGeometry x="360" y="280" width="470" height="40" as="geometry"/>
                </mxCell>
                <mxCell id="YrtBH8Yb1dSlFtwScdb6-17" value="0" style="strokeWidth=1;shadow=0;dashed=0;align=center;html=1;shape=mxgraph.mockup.forms.spinner;strokeColor=#999999;spinLayout=right;spinStyle=normal;adjStyle=triangle;fillColor=#aaddff;fontSize=17;fontColor=#666666;mainText=;html=1;overflow=fill;" parent="-HiI3UU30mA8mjhggMXM-1" vertex="1">
                    <mxGeometry x="600" y="290" width="60" height="30" as="geometry"/>
                </mxCell>
                <mxCell id="E0XdHepI6EG871Z8JuYB-46" value="" style="strokeWidth=1;html=1;shadow=0;dashed=0;shape=mxgraph.ios.iTextInput;strokeColor=#444444;buttonText=;fontSize=8;whiteSpace=wrap;align=left;fontColor=#7C7C7D;fillColor=default;" parent="-HiI3UU30mA8mjhggMXM-1" vertex="1">
                    <mxGeometry x="45" y="426.5" width="200" height="27" as="geometry"/>
                </mxCell>
                <mxCell id="zjLbiNXhVgmNQLWEvdw5-6" value="&lt;font style=&quot;font-size: 18px;&quot;&gt;Do you have any known allergies&lt;/font&gt;" style="text;html=1;strokeColor=none;fillColor=none;align=left;verticalAlign=middle;whiteSpace=wrap;rounded=0;fontSize=38;fontColor=#7C7C7D;" parent="-HiI3UU30mA8mjhggMXM-1" vertex="1">
                    <mxGeometry x="45" y="470" width="290" height="40" as="geometry"/>
                </mxCell>
                <mxCell id="zjLbiNXhVgmNQLWEvdw5-9" value="Yes" style="html=1;shadow=0;dashed=0;shape=mxgraph.bootstrap.radioButton2;labelPosition=right;verticalLabelPosition=middle;align=left;verticalAlign=middle;gradientColor=#DEDEDE;fillColor=#EDEDED;strokeColor=#666666;checked=1;spacing=5;fontColor=#212529;checkedFill=#0085FC;checkedStroke=#ffffff;sketch=0;fontSize=18;" parent="-HiI3UU30mA8mjhggMXM-1" vertex="1">
                    <mxGeometry x="50" y="510" width="10" height="10" as="geometry"/>
                </mxCell>
                <mxCell id="zjLbiNXhVgmNQLWEvdw5-10" value="No" style="html=1;shadow=0;dashed=0;shape=mxgraph.bootstrap.radioButton2;labelPosition=right;verticalLabelPosition=middle;align=left;verticalAlign=middle;gradientColor=#DEDEDE;fillColor=#EDEDED;strokeColor=#666666;checked=0;spacing=5;fontColor=#212529;checkedFill=#0085FC;checkedStroke=#ffffff;sketch=0;fontSize=18;" parent="-HiI3UU30mA8mjhggMXM-1" vertex="1">
                    <mxGeometry x="110" y="510" width="10" height="10" as="geometry"/>
                </mxCell>
                <mxCell id="zjLbiNXhVgmNQLWEvdw5-14" value="&lt;span style=&quot;font-size: 18px;&quot;&gt;Do you have diabetes&lt;/span&gt;" style="text;html=1;strokeColor=none;fillColor=none;align=left;verticalAlign=middle;whiteSpace=wrap;rounded=0;fontSize=38;fontColor=#7C7C7D;" parent="-HiI3UU30mA8mjhggMXM-1" vertex="1">
                    <mxGeometry x="360" y="330" width="470" height="40" as="geometry"/>
                </mxCell>
                <mxCell id="zjLbiNXhVgmNQLWEvdw5-15" value="Yes" style="html=1;shadow=0;dashed=0;shape=mxgraph.bootstrap.radioButton2;labelPosition=right;verticalLabelPosition=middle;align=left;verticalAlign=middle;gradientColor=#DEDEDE;fillColor=#EDEDED;strokeColor=#666666;checked=1;spacing=5;fontColor=#212529;checkedFill=#0085FC;checkedStroke=#ffffff;sketch=0;fontSize=18;" parent="-HiI3UU30mA8mjhggMXM-1" vertex="1">
                    <mxGeometry x="560" y="350" width="10" height="10" as="geometry"/>
                </mxCell>
                <mxCell id="zjLbiNXhVgmNQLWEvdw5-16" value="No" style="html=1;shadow=0;dashed=0;shape=mxgraph.bootstrap.radioButton2;labelPosition=right;verticalLabelPosition=middle;align=left;verticalAlign=middle;gradientColor=#DEDEDE;fillColor=#EDEDED;strokeColor=#666666;checked=0;spacing=5;fontColor=#212529;checkedFill=#0085FC;checkedStroke=#ffffff;sketch=0;fontSize=18;" parent="-HiI3UU30mA8mjhggMXM-1" vertex="1">
                    <mxGeometry x="625" y="350" width="10" height="10" as="geometry"/>
                </mxCell>
                <mxCell id="zjLbiNXhVgmNQLWEvdw5-17" value="&lt;span style=&quot;font-size: 18px;&quot;&gt;Cancer history?&lt;/span&gt;" style="text;html=1;strokeColor=none;fillColor=none;align=left;verticalAlign=middle;whiteSpace=wrap;rounded=0;fontSize=38;fontColor=#7C7C7D;" parent="-HiI3UU30mA8mjhggMXM-1" vertex="1">
                    <mxGeometry x="360" y="370" width="470" height="40" as="geometry"/>
                </mxCell>
                <mxCell id="zjLbiNXhVgmNQLWEvdw5-18" value="Yes" style="html=1;shadow=0;dashed=0;shape=mxgraph.bootstrap.radioButton2;labelPosition=right;verticalLabelPosition=middle;align=left;verticalAlign=middle;gradientColor=#DEDEDE;fillColor=#EDEDED;strokeColor=#666666;checked=1;spacing=5;fontColor=#212529;checkedFill=#0085FC;checkedStroke=#ffffff;sketch=0;fontSize=18;" parent="-HiI3UU30mA8mjhggMXM-1" vertex="1">
                    <mxGeometry x="510" y="390" width="10" height="10" as="geometry"/>
                </mxCell>
                <mxCell id="zjLbiNXhVgmNQLWEvdw5-19" value="No" style="html=1;shadow=0;dashed=0;shape=mxgraph.bootstrap.radioButton2;labelPosition=right;verticalLabelPosition=middle;align=left;verticalAlign=middle;gradientColor=#DEDEDE;fillColor=#EDEDED;strokeColor=#666666;checked=0;spacing=5;fontColor=#212529;checkedFill=#0085FC;checkedStroke=#ffffff;sketch=0;fontSize=18;" parent="-HiI3UU30mA8mjhggMXM-1" vertex="1">
                    <mxGeometry x="570" y="390" width="10" height="10" as="geometry"/>
                </mxCell>
                <mxCell id="zjLbiNXhVgmNQLWEvdw5-22" value="&lt;span style=&quot;font-size: 18px;&quot;&gt;Any blood pressure problems?&lt;/span&gt;" style="text;html=1;strokeColor=none;fillColor=none;align=left;verticalAlign=middle;whiteSpace=wrap;rounded=0;fontSize=38;fontColor=#7C7C7D;" parent="-HiI3UU30mA8mjhggMXM-1" vertex="1">
                    <mxGeometry x="360" y="413.5" width="470" height="40" as="geometry"/>
                </mxCell>
                <mxCell id="zjLbiNXhVgmNQLWEvdw5-23" value="Yes" style="html=1;shadow=0;dashed=0;shape=mxgraph.bootstrap.radioButton2;labelPosition=right;verticalLabelPosition=middle;align=left;verticalAlign=middle;gradientColor=#DEDEDE;fillColor=#EDEDED;strokeColor=#666666;checked=1;spacing=5;fontColor=#212529;checkedFill=#0085FC;checkedStroke=#ffffff;sketch=0;fontSize=18;" parent="-HiI3UU30mA8mjhggMXM-1" vertex="1">
                    <mxGeometry x="360" y="460" width="10" height="10" as="geometry"/>
                </mxCell>
                <mxCell id="zjLbiNXhVgmNQLWEvdw5-24" value="No" style="html=1;shadow=0;dashed=0;shape=mxgraph.bootstrap.radioButton2;labelPosition=right;verticalLabelPosition=middle;align=left;verticalAlign=middle;gradientColor=#DEDEDE;fillColor=#EDEDED;strokeColor=#666666;checked=0;spacing=5;fontColor=#212529;checkedFill=#0085FC;checkedStroke=#ffffff;sketch=0;fontSize=18;" parent="-HiI3UU30mA8mjhggMXM-1" vertex="1">
                    <mxGeometry x="440" y="460" width="10" height="10" as="geometry"/>
                </mxCell>
                <mxCell id="E0XdHepI6EG871Z8JuYB-47" value="&lt;font style=&quot;font-size: 18px;&quot;&gt;Height&lt;/font&gt;" style="text;html=1;strokeColor=none;fillColor=none;align=left;verticalAlign=middle;whiteSpace=wrap;rounded=0;fontSize=38;fontColor=#7C7C7D;" parent="-HiI3UU30mA8mjhggMXM-1" vertex="1">
                    <mxGeometry x="45" y="370" width="130" height="40" as="geometry"/>
                </mxCell>
                <mxCell id="E0XdHepI6EG871Z8JuYB-42" value="&lt;font style=&quot;font-size: 18px;&quot;&gt;Weight&lt;/font&gt;" style="text;html=1;strokeColor=none;fillColor=none;align=left;verticalAlign=middle;whiteSpace=wrap;rounded=0;fontSize=38;fontColor=#7C7C7D;" parent="-HiI3UU30mA8mjhggMXM-1" vertex="1">
                    <mxGeometry x="45" y="300" width="130" height="30" as="geometry"/>
                </mxCell>
                <mxCell id="E0XdHepI6EG871Z8JuYB-44" value="&lt;span style=&quot;font-size: 18px;&quot;&gt;Age&lt;/span&gt;" style="text;html=1;strokeColor=none;fillColor=none;align=left;verticalAlign=middle;whiteSpace=wrap;rounded=0;fontSize=38;fontColor=#7C7C7D;" parent="-HiI3UU30mA8mjhggMXM-1" vertex="1">
                    <mxGeometry x="50" y="230" width="130" height="30" as="geometry"/>
                </mxCell>
                <mxCell id="E0XdHepI6EG871Z8JuYB-40" value="" style="strokeWidth=1;html=1;shadow=0;dashed=0;shape=mxgraph.ios.iTextInput;strokeColor=#444444;buttonText=;fontSize=8;whiteSpace=wrap;align=left;fontColor=#7C7C7D;fillColor=default;" parent="-HiI3UU30mA8mjhggMXM-1" vertex="1">
                    <mxGeometry x="50" y="270" width="200" height="27" as="geometry"/>
                </mxCell>
                <mxCell id="E0XdHepI6EG871Z8JuYB-43" value="" style="strokeWidth=1;html=1;shadow=0;dashed=0;shape=mxgraph.ios.iTextInput;strokeColor=#444444;buttonText=;fontSize=8;whiteSpace=wrap;align=left;fontColor=#7C7C7D;fillColor=default;" parent="-HiI3UU30mA8mjhggMXM-1" vertex="1">
                    <mxGeometry x="45" y="343" width="200" height="27" as="geometry"/>
                </mxCell>
                <mxCell id="zjLbiNXhVgmNQLWEvdw5-25" value="&lt;span style=&quot;font-size: 18px;&quot;&gt;Any chronic health ailments like asthma,etc?&lt;/span&gt;" style="text;html=1;strokeColor=none;fillColor=none;align=left;verticalAlign=middle;whiteSpace=wrap;rounded=0;fontSize=38;fontColor=#7C7C7D;" parent="-HiI3UU30mA8mjhggMXM-1" vertex="1">
                    <mxGeometry x="360" y="480" width="470" height="40" as="geometry"/>
                </mxCell>
                <mxCell id="zjLbiNXhVgmNQLWEvdw5-26" value="Yes" style="html=1;shadow=0;dashed=0;shape=mxgraph.bootstrap.radioButton2;labelPosition=right;verticalLabelPosition=middle;align=left;verticalAlign=middle;gradientColor=#DEDEDE;fillColor=#EDEDED;strokeColor=#666666;checked=1;spacing=5;fontColor=#212529;checkedFill=#0085FC;checkedStroke=#ffffff;sketch=0;fontSize=18;" parent="-HiI3UU30mA8mjhggMXM-1" vertex="1">
                    <mxGeometry x="360" y="530" width="10" height="10" as="geometry"/>
                </mxCell>
                <mxCell id="zjLbiNXhVgmNQLWEvdw5-27" value="No" style="html=1;shadow=0;dashed=0;shape=mxgraph.bootstrap.radioButton2;labelPosition=right;verticalLabelPosition=middle;align=left;verticalAlign=middle;gradientColor=#DEDEDE;fillColor=#EDEDED;strokeColor=#666666;checked=0;spacing=5;fontColor=#212529;checkedFill=#0085FC;checkedStroke=#ffffff;sketch=0;fontSize=18;" parent="-HiI3UU30mA8mjhggMXM-1" vertex="1">
                    <mxGeometry x="430" y="530" width="10" height="10" as="geometry"/>
                </mxCell>
                <mxCell id="E0XdHepI6EG871Z8JuYB-41" value="&lt;font color=&quot;#3399ff&quot;&gt;General Information&lt;/font&gt;" style="text;html=1;strokeColor=none;fillColor=none;align=center;verticalAlign=middle;whiteSpace=wrap;rounded=0;fontSize=18;" parent="1" vertex="1">
                    <mxGeometry x="90" y="480" width="230" height="30" as="geometry"/>
                </mxCell>
                <mxCell id="i43JM1hf8UkB7U14BOGH-1" value="" style="shape=image;verticalLabelPosition=bottom;labelBackgroundColor=default;verticalAlign=top;aspect=fixed;imageAspect=0;image=data:image/png,iVBORw0KGgoAAAANSUhEUgAAATQAAACwCAYAAACB15LlAAAAAXNSR0IArs4c6QAAAARnQU1BAACxjwv8YQUAAAAJcEhZcwAADsMAAA7DAcdvqGQAABuCSURBVHhe7d1/bJv1nQfwN9c/LPU0o25LVaRYoNobwtBpLkVL1mpx6ZGn684JHamprkm5NemmJkwi2SaS7QQBDRw0lqBbUwRtmGgoGm60EudW6t66OlrAmdqLTytYGtgS4EhU8UZVS1fVrJXv+32ex4mT2I7TkLX+9v2SHvz4if08fn69/fl+n8fllowAIiIF/JP5SERU9hhoRKQMBhoRKYOBRkTKYKARkTIYaESkDAYaESmDgUZEymCgEZEy+EsBIiobly9fNsfyY4VGRGVD1l/FBgYaEZWNW265pejAQCOispEvxHIHBhoRlY18zczcgYFGRMpgoBGRMhhoRKQMBhoRlY18FwJyBwYaESmDvxQgorLx2WefmWP5sUIjImUw0IiobOTec5ZvYJOTiMoGm5xEdNNghUZEZePvf/+7OZYfA42IysZCTU4GGhGVjYUqNPahEZEyGGhEpAwGGhEpg31oRFQ2rly5Yo7lx0AjorLB2zaISBkLVWjsQ1ui5FAz7HY77D0Rcwr9IxXa/umPIgiPRZG8ak5YLsmoWE4EiUvmc7quyjfQzvvRLA9kOdT0I1rqgXuuH+7s+/b4kTQnK+FqBL51ct2c6B5LmxMXS8wju33yDRs0NP64F4Foynz9jSiC/n9tQOMjHnQGlnMPJxH4mUcspwHaS9fvCy3SY+yb5iGljuZrokaFNnkUp6PmeFFphH/bj4T5TDXp8DAG9UohjcGTYfHfpbCgwumEc13u4ID1QgzhY/1o91TB0xdZ4jKWix13b7MCK51Yf4d4XJJswDfDf96cNK0CjvucYktZ4XZUmtPoelKkyZlA/29LOIEvBDF4+MY8BZcuheAbgzPb4IgfwQvm+DWpRsfBEYy8mTsEEXk/itDLTXCIJUX370LrsRuxKrBCey6C+LkRtLks5rTl4dw7gmg8ggOeCnMKXU/lH2jrXHCtFDXJ4cEFT+DE8cMIikebqDyUO/wuhHDiuHis7IDvSacYCWL41DKEzQoLbFu6cegZt3iSRugFP0oqjok+B/n+PwK5Q/kH2he92P0DmxgJ4vDxIo3Jq1EEXpb9HC407/xm0b6zVDQA3z4PqvT+qGy/0SGE5zU5ikkj0qPp73d6ehGZ22mciiG0vxWejc4lLGNGNqydzRq8NV6xlkDoNyeWrXlt2+ZFnRyZnMC72c981mesyx4/Eskw+vdpcMnn3w/M3t5Xk4gc6UZjrct4/TrRfN3nK9ovZ+wTc352F7RHuuEXr79s/n22JPx75Ovs8J01J+VKiWOhrx0N2W2fb/nZdbE34JA+IYSujcY8c/uqFuq/So4dQvsj2c9th6u2Ee0Hw/kvVmSXKS9wiG0UPpjzGcXx0doTQOwmv/ggb8ooNpR/oMWTcHia9RM48nKg8MWByDD6J8WjONm33mlMmk+EUJ8IMk87Dp2MA3cYfUcOyH4jHxofaIZfzmNBcj4N2HUwBthbcOSNDr2KnDYZQOv9Gpr7gohDBJ7sn7IkzGV40Ht2sc1iEY5HjbD21jiA292o1zfIAALn9Bd8/qyrsdocnedTP9rvb0TvyZhoCAtXcmLnUgS9D9ag4YlBhD9dbaz7baL5elKc+J4a0YSdH8GJY62o0feJmN/KCvGeSlycGESXpwotL4v9tBj6tvegfX8AkbSt8PIr1qPt0TYx1OnHlohwuHfL521w31FCM1YEUugpDVWPiKAcS8Bi9kdaPgkj0NOIqm93I1ToW/X9Yfj+rQaNIsDi/yyOD7tVVOAxBEXA1T0mviyW+8rtDSxfVZY7yFQrT5+8kdmzdm1m7dpnMxOZjzOHH5Ljd2We/ONl8wW5Lmfe6b5L/H1tZl/gYiZz5ll9fO333shMma+QLv/xycxdcvoDT2ZOf2JOlK5czLzjqzXe8+hwRsxh2tTRPcZ034Q5JZP5WEzT53PPnswbCXNi1uWJzC8fEH9bW5vpDHxsTjR8/NvHMjX68vdn3rtiTizFn/cb73vosNgShuznqvnVe+aUUk1knpXzWis+e+42mOviicxjc1+X3a5iuMv7y8zp2FTm4uXLmcsXs/tkKjO8V+6HuzIPHZjIXMxZx4sT+zMPyffe81jmxKfmROmT4cyee+Q878rsefW9mfdcuZz5INCZqTWXl7v95XLe+J4x/dkz5iRpetsXWL6+nIcyhz80J+qKb48Jn7GcPUdzj6RM5oNXH9Knr32gMzOcO78rU5nT3eaxJPbXB7n7edb225+ZyN0OH4rj3dwOs9ZJKPQZVHTlypWigyIXBWyoF2W9rIz8pybEf+fIXgxY2YSm2sJXvaYuWdEivoG7n+2Ae405UVphRXVrh9HEOj6BiSIFVGKoGdrjIaRXuuH7rwF451z8Sgw9g35RVNja++DzyKbyDNv2p9CxTYzE++EPl1qlzVy5dW13iy1hqNhSD7lFEi/5UfKsFiFx3I+AHKlcj3tyt5VU2YKBX4ttaK+A1WKBxWpUNOmxfnSeEh9mWw9e2eeCdYU+WWd1teHpdvHpLwVwMKfrIHqsFyHRzLLsOoADu50z71lhEZW5D/0/k/2FpUmdPKhve9R048U8y+/5iV7WYuD4EnsF02G89gtZMTvQ8YIPdbcbk3UrKuD+j35064vyYeBUnma2vv3a4FplPpdu96JlpxxJ473YcnUklD9FAk0ckLUirApcHJi+GPADL6qLtBZstR3oaO9A04Y8oTfdxEpgqsDFh/RZH1pkmIkDueXXB+DNPZB1SYRPyQPdhh335zsRRXDWmJ3t50psSqUnEBySieWGd0tOQK5yY6sMx0uDIuQ/x3vGLiUQOdKFlp+FxBML3I95MW9N7HY4cpvYpuiYX/+yqfu2W6zpfM4qGcHiPD8TNZqqYlu/K5prkndLtVjafLeK/VKaNCbOyKNALL9ha96LQo6avXqTsk58CS3lOyA9Lr5AZV9XTTO8+XbzCge27jT2s38szxdwge3nuFO+Bwh/+Ff9keZTJtBgqYY338WB3IsBHuPoSiZi+mMhybFBdO/zQNtgdOQaQ7ZzuID396P1e4cg51yxrwddG/KdfpOIj8rHBHo9ufOeGapEIOqvuFjaKZU6OWicPNvqsXVWpWSFu9YIiMBbITMgFmOmE3zWsM6Nhif8Yj1F+HYO4cD2Uq8XJ/HB+8Y6BX5oXgyYOzxsbuHURfMk/yvi4/LRDeedJfRbFZXClNn/uXp1gSr9dk3/QusQx8lSljb1iXl8ffUrBa+mV9jvNpYRn8KUPoU+D+oEmuDMc3EgHfYbFwO27UZ9tmIq1Kl6NaGfbFWPdGPwzGewbzM6gWd3DhcwGtKbRlLyxWcwWLTAynfT6pzhS+ZLi0rixDGj6tBq51c91pp6s5l8GMMf6ZMWodBn1NDU6cPQ2xG8tvfaTnyrPd98c4bbbjVf+XnKfpksv79+GDbHiritEtXycTwuYntpKh1G5WZdudTQv/HluxCQOygVaLi9HrtlM2sy2wclmhmnZDPHgqaHtbzNnFyJ37Sj/XgKli0+hP4UxIGnjSaoMezGvebr8hPNr+dCGPmxQ4xHRIXnm3+rxrR8N63OGfYWjU/DRyfgN0/S4GN5qh5Xq9HPJT6Pf7R4VTpfoc94AN17vXDN7TdbBO+z+eabMzyjLcN9gpWw15ijy+zLd+hRVdxkXNTAwrpKfEGfsHQFK8+biFqBJiJLe7hJRIv505/sxYDKNniLdZ7pkoiMyqYp0LTHC1tOh3FJGg7gQIMNzu8fgm+LWFb8EDr/c+5Pg76AynXyMYToX2b/5VpERwZEVIkoXZOnyskOzgq9iooOBEv/veuysGK1eYHknWip4fpl2KvkYwjxD/UJSzCz/KmpAg3wq2mkLqSQSi1t36y+TX6pCe9/II6q/JIfmtvga7bpCznXqqJhAPF4HF0bzAk3McUCTXaledEmD9wjfvS+ZF4M2LkZzhIC6nKxf5kk/i7+xxzNa9WtRvNrhQ3eJ7rhXgnEDu5Cp6j4Zjhwr2YcvoOvDhe4n0ieVOZoMVejOH1U9hVa4H1uKH+low+vGNtjumq9XixYX6U3gEW4HkW4QPUqA2WGDfdsMrfXcXmxZb7k+VLvQxPLv694n2LqeDtcG1yoGljaVU5LlWiWy079UT9O5Pt4V2M48Rvjoop303rjuKGS5Gtm5g7KBRpWOLF5h3Fx4NBB82LAtlIu7VfgK181Dq1Dz/cjknPEJ88eQuvD3Xo1VJJKLw7sNyrFwOPts27Gde7sQp1+sHeh5eeh2XeMp2Pi9XVwfcuD3vECVYRpum9woepzensUuKXlH8iq7UWHXYxMHkLzY4OY9cOAqylEXmxA1YYaNOfcXJvdXukjrWg9HEUqu71ENRUb6UJ7X+m3MFhr96JNLv94J9pz5yWkooNo/6n8+nOhqy5fcz+OZKFyay5LNRrNW0C693UjlPvrD3nD7c/b0K0fml1o3vI5NBNTMUTGIogVP2RuCuoFmpC9OKDLvRiwANe/90CT9/5EetHgssO5sUr/yUrVwz6E7C5znlNI/58+UpSlpgtH9oqmx6UQup7Iubt7lYae141fDsQON6Pq61XwPOgRgwaXU0P7UAyObY9ix33FDvQ0wieNH6LLnzotVH1mt0cpv3ddViJc2145AK8IlfSpbnhcLmj6unvEdnCh4Xlxlm9owY/MKlYnttdTLxo/hg895YHL3F5VX3dCe2wYXxAVVcksLnS80if2sTmvb2jGtq8V+9YjgueSA95f9aFJht40J9y75RdGAr0Pys+robWEf6bHsetFDOwW+z8+iOaNTlR5sutZhebDorlpF196L4j1WmzXxjwpBJ/Q0CD/CaPn81exNxMlA2364oCokUq5GDBtTR0O/GEEfXs1OESwpc8nkV7jQl3naxh9/UXs3iJfFEW4pH8LzAJXe49REchq7Bcz/WmWdW0YettYjtOaQvRcVAxTWL2pDl2vjiP4nFa8D+9CEP4jcsT8qdNCprfHMv1gfTEqNfjeGsdrnXWoFtsmpq+7aJfdoaHlhRGMv94Gp6xgc1g3dePoSB9aah2wXkqK10/i1vVN6B4axdBPil+qmadyZh/Ln5vp2/4Tsa+2d+G1t4PwbcsJU50F1T8ZQpdctgiPmNhPljmfLy95A+2TQYy/KipM0WxOR+V6RpG+rVo/nsbf8kEz+/SWxgrb3cY/YaTdZ94KorBMnt9v5g78J7iJqGwsFFdqVmhEdFNioBGRMhhoRKQMBhoRKYMXBYhIGQw0IiobvMpJRDcNBhoRKYNNTiJSBgONiMrGQnHFQCMiZbAPjYiUwQqNiMoGm5xEdNNgk5OIlMFAIyJlMNCISBnsQyOisrFQXLFCIyJlsEIjImWwQiMiZTDQiEgZDDQiUgYDjYiUwUAjImXc8re//Y1XOYmoLHzxi180x/LjbRtEpAw2OYlIGQw0IlIGA42IlMFAIyJlMNCISBkMNCJSBgONiJTBQCMiZTDQiEgZDDQiUgYDjYiUwUAjImUw0IhIGQw0IlIGA42IlMFAIyJlMNCISBkMNCJSBgONiJTBQCMiZTDQiEgZDDQiUgYDjYiUcZMGWhqJs2GEo0nzueKuJhEdCyPyUdqcQKSmsgy06H437HY77D8MIGVOKywJ/x7xWvF69/6oMSnSD+3hRjR6OhG4wTMtOdRsrGtPxJxSWKTHWM+5r00GOuF5pBEN/9qPhedCVL7KMtCcNTtgkyPHTyB0QZ9U2Ecn4B+VI040f9upT8Idd6N+FWBxrofNakxSWcWd1XCuBKxuByrNadcqG5rNQzdJdUtlpTybnOs0NK+TI0GcGCteoyXGho2qxOWF265PAlZp8J2NIzrSBpfFnKYyZwtGzsUR+VUdKsxJRCoq0z40B9w7XPpY8NgJ0agsJIHQMaOR5d651ajqiEhZZXtRwLZFVFxyZDSI0+f1SfPFQ/DreaahfktObXLej2bZ12T35e9TSsUQ2t8Kz0an0Se1QUPjjw8hPGs52b45N/rNrrlciSMN+nsbjiTMKTmi/aJaFO/d4y8Sxp+jsz5jPfIt75II/YPtaMiuq90F7ZF2HBrLfWUEPv1vYn0OGlNCj1cVnGcqGoBvnwdV64z3ODd60NoTQDRfMZ3z2RLJMPr3aXDJ598PIJkOo1ufh9jG58zXzxLD4IPGMrpHecGDyjjQsGYr6rfJERFap/KEhhB72w89azz1cK/SJy1sMoDW+0WTti+IOMTJuM4JpyWB8DEfGh/woPds9sSpwHq37JNL4MTZmDFpWhLhU0ZURk6F553wsbMnxLtES9C9/vo2Ac8H0fWgG80ibCJpm7GuolkeGxOB9EgNPH0RGGv7Zax/tA1tYqgzCmPxhdKkP2/b8hXMtNrTiB1uRpVHBOLJKNK3ifmJedrSUQRFaHo2NmPw/QLB86kf7fc3ovdkzLjQc+UyYFkPrUHOPYGjo3m+NeJh+GXQrWyCVnUz9B3QQso30GCF+9t1+ljkWEgPiNnESTQgTwILmhrc4tUlSEfQu6cdwQsOeF8IIfr2CEbeFMPbUYSer4PtUhT9Pz2E6FXj5Y4NRjM2OhadHVoXwgjpFyKE0RDCsy5cpBCfkJ/Lhq0bHMak6yKN8Evt8MfFeux9DZE/BY11PRlBZKgDLvH36H4RTHplZIPW3oEOMezeoL8Z9to2/XnHLtf0tk2P+lD3VAjplS50DIn5nDS2X/BPEYw86YblUgjdD/kQumS+Ide5CKLONgycHEckGkX0hXoR9hZUf6dJD8zE0dPGl1OOZETsI/FoadCwnnlGQhkHmog00exsWilGIsMIfWRMmxY9jaOT4nGlF9p9pR3tiaFn0C9OcFt7H3ye2T1utu1PoUNWhPF++MNmlXHnN6HJ5Z+awHs5hUcqfBpBcRrWeTTxTDSJwzltravvYWJEPK7U8M07jUklOWg0YYsN2eZgaaIID8kPXY3mxmpYVxhTJaurDT/aI8cSmPjLvEZqAQn4fzUoYlCs93OvoM2V8xWywgrn7gM4sEvsh0uD8B2ZW9EKlS0Y+HWHaIpXwGqxwGI195mrHm3y0uzkUZyelWhJnD4eEo8WeLes10OPqKwDbaZJEsHw2OwaLfqHo3rVZvuBF9UlHe3ZZqINO+43b++YxYrqGtlrl0bonEg9aYUT1dvliB/h6T6eNCbGA+LRi/rOesgaMjA+Iaaa/jIhIk7YXg1nTogsaJXDaBIWGRylNqt1lai8Tz6GERydX99W/yyOeDyOgYYSG8XZ/krR/Nut5auHLXDXGdVW7HdhzIs0EcgO+eUwl9jGm3fIL5c5zc5sFSyWV1/aDqabQHkHmjg9qr/bpjf7IkdDMyfJ1ShOH9XjrEA45TOJuN5MTKDXk78CqnpcVgTiFRez8WTB+ioZWWkEz5gnW1qcaEfE4y43qtdUY7Os6o6IZqf5lsSfw3rQ1lUtsqpo6DGahEWGngbztSWpQH1rm35/WugJN5wbG9D+zCACZ2NI5lSbJUtOGk3C++yoLBTUt98t6kHh3CSSZrO9FM77jfsOE7+ZaXYaVbDYA7u2wrWYLwZSWpkHmuDcjB2ySXJOVElm4TTd3HQ1o67UPJtmQYUzfwU0PXzJfKlgXV+tX21NnHnX6Ec7Fxb1WjawslVdtoJLIToeFo8i7NZf/zt6LRs6MPLfr6FruwvWVASBV7rR/rCGKqcLDfKqbqmtTSE5macZOVeFDUavYQyJRcwbTvO+w+lmZ7YKtqDpX8yrFERC+QeaaJJozTK1ohg4aXx/R37Xr1dBru1u/Zt9carRcTB/BTQ97M05idZshlYjHkfDmEiJZf9e9iPVYesmI7AqNmkivtIY/L1oj12NY+KUmFijYfMa/c/Xn6giW54fwvj/RhH5wwgGnmsTXwJpRORV3fubESh0S8wcFZUlXOA4/4FZRduwelHN4+x9h2azM1sFV7ahnnlGOco/0ARHjRf64S6bJOJgHz4i20wadm9bTJx9AZX6rw9CiP5lMW2u7O0bAUxEo3jnLfHemmpMF2AiMNziw6XfekfM9x0EL90At2tIV9NIXUghlTLXdYWoJ293wt3Qgb43xzGgd+CH0Hss28hbQEUl9GL4TByThZqTk3HI+hTrRLN0kd1etk310/s4ciakV8G2HZsX1w9JylMi0HD7VnhllSSaJMN9QfjlbQHbtpZ+75nOgXs1IwAHXx1GIu9JKUPAHM2RvX0j+PwTelPXvW1zTmDZUC3bveKzHXx5QtQY1/t2DdOf+1G1wQXXbv/8DvoVVtz9Nb23K6e/cAF2N7wycS4NYngs33vSCAVk9Sq213eqzabnIuTs486n/WI+NuyoWXR/AilOjUAT8bF1u7xFIoFDB42TpqlBK+3esxzOnV2ok1faRrvQ8vPQ7I7rdAyBx+vg+pYHveNzbnk3b99IRCLiE4gqxzW7/nJs9IqpCQRGQou/XWO5ODejSe979MF3OIpU7rqmohjWb4kQde7d2R/AzhY/P7cTzAbvD+VVTNG8frQVg7k/C7iaQvRwK1pl5byyCV27riXQZ/ZxLC7mU7kDm5lnNIcigQZYa71oMsev+c7xVRp6Xu+AS4STfsf716vgedAjBg0up4b2oRgc2x7FjvvmROX07RvCOi+q52aA/V5szf4zF4u9XWO5WFzo2C/XVVROT3ng+oY2s64uD3yj4iVbfOjaNntdnZvMG137xHtqPdB+OPPTJ0tNFwLZG2g9ovoTf5fz1L7hgid7w+3rXXDnuz2jBNZNWyEjTbLtZHOT5lMm0GCphrbbCDHLrvoS7z2bz7KuDUNvj6BvrwanVVQW56JimMLqTXXoenUcwec02OadSNnbN8SJpt2bpznlxOadRnN20bdrLKNZ62pJmOuagEWEd8sLIxh/0TtvXS2bujDUqen3vKXiUUytuNX8i2SBY/cAxkf60FLrhOUTOb8oEhYntL19GHl7CG3rlrD2q9zYqv/cjc1Nyu+WjGCOE93Y5I/VNzRi0N6N4JtNi++HI+WpU6GR8tLjxgUf53ev4aIC3RQYaFQezofge0Ze8HGjqZZxRvmxyUk3NPn/VMj+5Ez20VU/HcBr13SVlG4GrNDoxrbSqt9+Y1njQtNzAQwwzKgIVmhEpAxWaESkDAYaESmDgUZEymCgEZEyGGhEpAwGGhEpg4FGRMpgoBGRMhhoRKQMBhoRKYOBRkTKYKARkTIYaESkDAYaESmDgUZEymCgEZEyGGhEpAwGGhEpg4FGRMpgoBGRMhhoRKQMBhoRKYOBRkTKYKARkTIYaESkDAYaESmDgUZEymCgEZEyGGhEpAwGGhEpg4FGRMpgoBGRMhhoRKQMBhoRKYOBRkTKYKARkTIYaESkDAYaESmDgUZEymCgEZEyGGhEpAwGGhEpg4FGRMpgoBGRMhhoRKQMBhoRKYOBRkTKYKARkTIYaESkCOD/AfAH3neeZD0PAAAAAElFTkSuQmCC;" parent="1" vertex="1">
                    <mxGeometry x="520" y="100" width="308" height="176" as="geometry"/>
                </mxCell>
                <mxCell id="l1yAIya25H0wmBTBqD0a-1" value="" style="endArrow=classic;html=1;rounded=0;fontFamily=Helvetica;fontSize=24;fontColor=#000000;entryX=1;entryY=0.25;entryDx=0;entryDy=0;" parent="1" target="i43JM1hf8UkB7U14BOGH-1" edge="1">
                    <mxGeometry width="50" height="50" relative="1" as="geometry">
                        <mxPoint x="833.0119565217392" y="400" as="sourcePoint"/>
                        <mxPoint x="880" y="150" as="targetPoint"/>
                        <Array as="points">
                            <mxPoint x="930" y="190"/>
                        </Array>
                    </mxGeometry>
                </mxCell>
            </root>
        </mxGraphModel>
    </diagram>
    <diagram id="HsdfsRMYYF6TRBJSBwjM" name="History page">
        <mxGraphModel dx="437" dy="1374" grid="1" gridSize="10" guides="1" tooltips="1" connect="1" arrows="1" fold="1" page="1" pageScale="1" pageWidth="850" pageHeight="1100" math="0" shadow="0">
            <root>
                <mxCell id="0"/>
                <mxCell id="1" parent="0"/>
                <mxCell id="tRBqlzc9bL4NBkPRB6TM-22" value="" style="strokeWidth=1;shadow=0;dashed=0;align=center;html=1;shape=mxgraph.mockup.containers.browserWindow;rSize=0;strokeColor=#666666;mainText=,;recursiveResize=0;rounded=0;labelBackgroundColor=none;fontFamily=Verdana;fontSize=12" parent="1" vertex="1">
                    <mxGeometry x="150" y="-30" width="1050" height="820" as="geometry"/>
                </mxCell>
                <mxCell id="tRBqlzc9bL4NBkPRB6TM-23" value="Prediction" style="strokeWidth=1;shadow=0;dashed=0;align=center;html=1;shape=mxgraph.mockup.containers.anchor;fontSize=17;fontColor=#666666;align=left;" parent="tRBqlzc9bL4NBkPRB6TM-22" vertex="1">
                    <mxGeometry x="60" y="12" width="110" height="26" as="geometry"/>
                </mxCell>
                <mxCell id="tRBqlzc9bL4NBkPRB6TM-24" value="https://www.superlife.io/prediction" style="strokeWidth=1;shadow=0;dashed=0;align=center;html=1;shape=mxgraph.mockup.containers.anchor;rSize=0;fontSize=17;fontColor=#666666;align=left;" parent="tRBqlzc9bL4NBkPRB6TM-22" vertex="1">
                    <mxGeometry x="130" y="60" width="250" height="26" as="geometry"/>
                </mxCell>
                <mxCell id="tRBqlzc9bL4NBkPRB6TM-26" value="" style="verticalLabelPosition=bottom;shadow=0;dashed=0;align=center;html=1;verticalAlign=top;strokeWidth=1;shape=mxgraph.mockup.markup.line;strokeColor=#999999;rounded=0;labelBackgroundColor=none;fillColor=#ffffff;fontFamily=Verdana;fontSize=12;fontColor=#000000;" parent="tRBqlzc9bL4NBkPRB6TM-22" vertex="1">
                    <mxGeometry x="-10" y="750" width="1050" height="20" as="geometry"/>
                </mxCell>
                <mxCell id="tRBqlzc9bL4NBkPRB6TM-27" value="" style="rounded=0;whiteSpace=wrap;html=1;" parent="tRBqlzc9bL4NBkPRB6TM-22" vertex="1">
                    <mxGeometry y="110" width="1050" height="60" as="geometry"/>
                </mxCell>
                <mxCell id="tRBqlzc9bL4NBkPRB6TM-34" value="&lt;b style=&quot;font-style: normal; font-variant-ligatures: normal; font-variant-caps: normal; letter-spacing: normal; orphans: 2; text-align: left; text-indent: 0px; text-transform: none; widows: 2; word-spacing: 0px; -webkit-text-stroke-width: 0px; text-decoration-thickness: initial; text-decoration-style: initial; text-decoration-color: initial;&quot;&gt;&lt;font style=&quot;font-size: 24px;&quot; face=&quot;Helvetica&quot;&gt;Super Life&lt;/font&gt;&lt;/b&gt;" style="text;whiteSpace=wrap;html=1;fontSize=24;fontFamily=Verdana;fontColor=#000000;" parent="tRBqlzc9bL4NBkPRB6TM-22" vertex="1">
                    <mxGeometry x="70" y="120" width="200" height="60" as="geometry"/>
                </mxCell>
                <mxCell id="tRBqlzc9bL4NBkPRB6TM-35" value="" style="shape=image;verticalLabelPosition=bottom;labelBackgroundColor=default;verticalAlign=top;aspect=fixed;imageAspect=0;image=data:image/png,iVBORw0KGgoAAAANSUhEUgAAAEAAAABACAYAAACqaXHeAAAABHNCSVQICAgIfAhkiAAAAAlwSFlzAAABbgAAAW4BhFBfJAAAABl0RVh0U29mdHdhcmUAd3d3Lmlua3NjYXBlLm9yZ5vuPBoAAA3CSURBVHiczZt7fFTVtce/+5x5ZfJgBgImAQR5KOADRS5gsCCgVAEFexWkWigkoLZCBVuVej8f5fNBQCkWsVQDiRTkWkU+5SGgLSoCGgJFkMdFCQ+RVwIE8k7mdc6+f0xmMkPmTYL9/ZXsfdbaa/3mnL3XXnttIaXkWkP0fdJoMWm/EpLpEmkWiKX1bjVP7smru+a2XEsCxC1jTebU1MkC8SLQKbhXXhCIhfUW81/l1iU118yma0GAGDLJYnYoUwTKCyDb+9pbWXUsRsn5SjXw8Usg33BI519k0aqqFretJQkQvSckJyWZn5JC/h7I8LW3TtGYdn8lTw+vwmSQ/O3LVBZutHH2siFQvBzBIotZW1y+dXlFi9nYEgSIu3NSLbp4BslMIN3X3jZN43cjKpk6rIoUix4k4/II3tueyoKPbZwqayRCQKUUcrEJsaiyMP9ys9vanATYh0yyOZzqdCTPAnZfe6ZdY8aICnKGVpFkijyeWxO8/1UKCzbYOHHBGNhVjZBLjC7Dwqo9eWXNZXOzEJDWf2Ibt2KcAUwD0nztHdp4eG5UBb++pxqzIb5xNB0+KExlwQYbxSVBRNRKwdsGXfyppmjZ+au1/aoISB34dDu37n5OwG+AFF9757Ye/vBgOY//rAZTnI5fCV3CmqIUXltv47uzpoAeUS8leapHeb12T15JovoTIiC575OZmkF/Xgg5FbD62rtluPnDQxWMz67BoDbv3CIlrPt3MvPX2zl4KpAIHALykeK1uqJlZ+LVGxcB1n6TO2IQL0gpcgGzr71nexfPP1TBIwNqUJV4TYgPUsKmfcnMW2dj3w/mwC4XkuWozKv/Ov/HWPXFREBS/yk3oMhZwETAT/8tHV28OKacMf9ViyLi8KKZ8M/9VuautfPv40FEuEGsRNPn1u8uOBFNR0QCLAMmdRdC/SPwBOBfm+64wcmsMRWMvKMW8RM4fiU+P5TEvLV2Costgc0e4H+l1F51FC0/Gk42LAHW7KnZUurbAX+Y1q+bk1ljyvl578RC9kvVKntOmCkpVzlbbqCkXEXXBZl2D5l2jSy7h96dXLRv7UlI/7bDScxfb2Pb4aTAZk3Cw46d+R+HkjGEagTQ0WYIhApwdw8HL44pZ+jN9XEbdfy8kQ17ktm010rRUQt6DFPO7Z2djOxTx+i+tdzS0RXzWIN71TO4Vz2FxRbmr7Pz2cEkAFXAS0BIAiK8AbnrpGR0xzYejiw6FbMRPpSUq8xe05pVO1LDO20wghDgDu/kqD61zHnsMjdmuuO24b45WXx9xIKA/XU7828PaUI0JfF+4y6P4PUNNhZtslHnahSWyanoXXuide2BtLWBlDSkueGbdbsQNVWIynKUH46gHjuMqCwHYOPeZD7dbyV3aDWvPHqZtCQ91LAhEcvEHJWAeHC+UuWxRdex61jjZKR3vAHPwOHoHToBYSwympD2dKQ9Hb1zdzxDRqFcOIe68wvUo/+HRxO8syWNLw4lsXpGaUJvQzg0GwF7jpsZ92YGJeXeOVPa03HfMwK9a8+E9OntstBHP4F25iSGLzehlJ6huMTIoFfa87enL3D/7c2TO2mWsOWbE2aGv5rld17v1gvnhGkJOx8IvUNnXL98Cq13fwCq6hQeeSODzfusUSRjw1UTUFqhMnZRBg639/X29L8H15gnwGiKIhkHFBX3fWNwD3sIFAVdwuS32/H9OWN02Wiqr0bY6RGMW9T42nv6Dcbzs58T9lu/Smh33OUlAaiqVxj35wwq667uN7yqOWDBBps/DNW79mxwPjKUsz+iHD2EuGJtlIpA734LevtOYSS90Hr3R7lYivptEUdLjfzxgzYsmXwxYR8SJqC0QuXNzTYAZKvWuEaOi75m6hrGtSsQjtABlTz0Dc7fvASKGrLfB/fQBxEXzqGcO8XKban8dnglvTrEHjAFIuH3Z84/7NQ6G777QfeDyRxFAoTbHdZ5AOGoR7hjWOIUBc+QUYBA02HW31vHanZTVYkInb1sYMU2b+JHz7oe7aZb49bhefROHJ9Mx/HJdDyP3hm3vJ7ZEa3HbQBsOWBl97HoP0AoJETApr1WtIaAzJM9LKGBmwOBY6/fk5yQjoQI2LjXO5g0W9Cv75bQwM0B2botMv06ADbtTYyAuCfBaofC9u+8oa7epQcoYTh0uxB1tcFtLmf0AaoqEFfMJ9KSBGZLyMe1br0wlJ2nuMTI0VIj3TPiC5PjJuDgKRMuj3fy07vcFPIZpeQ0ptX5EXd54VYM84o3mzaqKu5R49G639ykS+9yExRtBbzheLwExP0J+IIewLurC6X0ZHFk5wHZ0d74dwd7hCcBTUM5/l1oPQE2lFTEv6rHLVFS3igik1NDPxSQY/A83h9Mweu6zLKhZXf1/68N6wEWI6K0sqmBK4u8hwRh8hYyKdn7Gep60I8TK+InoMI3iAhPQAC0h29HJkdZolQFbVD3kF2GVbtAiyArBNKagqipCvpxYkULJ7H/8xE3ZZk2388hEbXVyDRb5AGW7gBDMM8yoxWeh3qDuWH4ejeGj/cjzoc4DdeiZICkRNR5ywky7fEnU+MnIGCQsAQExPLqvw6H1CMtRrQHvZGcuuUwhuWFkQcOsz8Q9bWg6w22RfpWwqiNVyBwEFFxKeQzWvebka0iz+yirCbk36EgrSlovULmNINsyLQ14xsgJdXgDXwCcev1LkwGicsjUE4cQevZ1DDZph3OKc83NdbpwPzWbP8AoeCc9nJjsjQGKCeO+P/u2zU40Kpp2KxJvL6ElA+rWXAUoLxGoay68fVLtegM6uloGPx7/+v3U0E95v3Ebsx0NwmCjpf6M0bHwsmHJUAg/MdJR65IPY3q4w1xhdOBciqs7haHuHwRUeYtERjZJzjsPl+pUlXvc08kQICmBxAQnN8b2afOfwpsKPw8PqubEYFjj+4bTMDRgKIKgR72bDAsAXXCWQzoANsOB3+T7Vt7mDjYu2Qp506hHjkYj90AGD76BssDi7E8sBjDR9/ELa+UnEb9/gAA991WR79uwd//V0cazwcVRS0OqydchyxaVSUEn4B3r32pOngZ+p9flJNs9k5khu2fxrTTk0ajd2cXrt+ShDTGkOnVdQxbNwISVYF544NrpzQd3t3qj1KP1RYu2x9OVcQ4QJdyqUCMdHkEK7enMmNkY7Vahk3jdyMqmLvWjqi8jGnTh7jG/CpyXlBRcT88MWJSNFo+EMD4xcco57znlRMGVzfJB376rZUzl7yuCUmejFADELE+QIwdq1pOt/oRZPuu17k5sOB0kH9Oj2D4nCx/ZtjTb7A3P9iCUPfvwrhlHQDdM9xsn32WVtbglWj0ggy2HLACOI26u33VrhWhAxaiBEJy9WoNKQvAe8z94c6UoH6zQfLhs6X+4MiwexuGHf8EWqb4Ut23E+PnGwBIS9L5cEZpE+d3HzPz2UH/qdFHkZyHGCJBxSDzaAgknnsv/cqyVjJsGqufLcVibJgPdn2Jad2qqPmAuKBrGLes8zqv6ygC3n36Aj2ygtd9h1swdWk7X4ylKYI3oqmOSkDtVwXngJngDYqmL09v8sydXZz866Vz/jdBOXYY88q3wiYx4oFy5iSm999B3b8LgDSrzpqZpYy4o+nh6Ow1rQNrCv9UW5i/L5r+mKvEku7K3Qw8AFDw1AXGD2wavyd8PB4CgcfjPtyY6Q57PF5YbGH4nCxfMcZhh93aR25eHHVpipmA5LtzsnRNHALsJoNkxW8vNAk+oPkLJAAMqoxYIFFYbOEXCzOo8p4TakKQXVeYvzsWv+KrExww5REp5AeAqiqwJOciEwaF3mdcqxKZLQesjH/zugCy5Uv1OwvmxupT3JWi1gE5/y2FeB8wCQGvPHqZ50ZVhC1Hackiqfd2pPJMQTpuTQBIgfx93c6CqBNfIBIqlU26K+deEGtpqA++u4eDpVMv0Llt5P14c5XJlVWrPPNuOhsaT4M8CJlTX1iwMl5fEi6Wtmbn9pOwDkkmQIpFZ974y+QMbdlLHhv2JPPMu+mBW/QqKZTHHYVLNyai76qqxVtl57Z2Sf4KjPO13XtrPe9MuUhWAvm5SKisU5i5Mp2/fx0UjH0uDOrkuh158dfxNaBZ7gtY75oyTiKXAG3AexfozxPLeCy7ee4+fXYwiaeWteVcY9q7TgpecO4sWBIpzo8FzXZjJKXfpAxdVZZJxChf2+i+tbw1uYz01PiTlQC1TsGs99uQ/0VaY6Nkp0SbGKn+Nx40+52hpOzcyUgWAangvSf0l8llPHhn05ghEr4+YmHq0rb80HhtxiWkeLn++soFcvXqxBgNgRa5NJU0MLcTOsuBIb62Xw6sYeGEsiablyvhcAtmr2nNW5+08i+ZUvKtVLQJzsLl8WdeoqDFrs0JIYR5QO40AfNBJoE3k/R27kXuvTV0mczeH8xMyWsbeDVGA+Y73OpsuSev+cpDA+1s6YuTlv5TbxSKvhLo72ubMqyKueMv+TNKbk3w2nobr2+w4dEaIirJEaEwIdaQNlFcm5ujY8eqltOpL4B4mYYbJ13auVn65EXsyTo577Tl25P+A1QpBIvrqZolC1fHX58fr23X8u6wqX9Ob4MiVkq4DbzV3AZV+gsugJMgJtXvXPbltbLpmhIA3gvUlpS0VxA8T8BtFCDfocqZ8quCsKc4LWLPT3F9HsA6YMoAqeivIoVJSjHPUbRs809hx/8DMDvENwVoSEUAAAAASUVORK5CYII=;" parent="tRBqlzc9bL4NBkPRB6TM-22" vertex="1">
                    <mxGeometry x="200" y="120" width="45" height="45" as="geometry"/>
                </mxCell>
                <mxCell id="tRBqlzc9bL4NBkPRB6TM-40" value="Copyright 2022 All rights reserved" style="text;html=1;strokeColor=none;fillColor=none;align=right;verticalAlign=middle;whiteSpace=wrap;rounded=0;fontSize=18;" parent="tRBqlzc9bL4NBkPRB6TM-22" vertex="1">
                    <mxGeometry x="20" y="780" width="300" height="30" as="geometry"/>
                </mxCell>
                <mxCell id="uDgyNN_LDDc6jcB2HpKW-1" value="" style="shape=table;startSize=0;container=1;collapsible=0;childLayout=tableLayout;fontSize=16;fillColor=#ffe6cc;strokeColor=#d79b00;" parent="tRBqlzc9bL4NBkPRB6TM-22" vertex="1">
                    <mxGeometry x="200" y="340" width="710" height="274" as="geometry"/>
                </mxCell>
                <mxCell id="uDgyNN_LDDc6jcB2HpKW-2" value="" style="shape=tableRow;horizontal=0;startSize=0;swimlaneHead=0;swimlaneBody=0;top=0;left=0;bottom=0;right=0;collapsible=0;dropTarget=0;fillColor=none;points=[[0,0.5],[1,0.5]];portConstraint=eastwest;fontSize=16;" parent="uDgyNN_LDDc6jcB2HpKW-1" vertex="1">
                    <mxGeometry width="710" height="36" as="geometry"/>
                </mxCell>
                <mxCell id="uDgyNN_LDDc6jcB2HpKW-3" value="Age" style="shape=partialRectangle;html=1;whiteSpace=wrap;connectable=0;overflow=hidden;fillColor=#FFBA52;top=0;left=0;bottom=0;right=0;pointerEvents=1;fontSize=16;strokeColor=#36393d;" parent="uDgyNN_LDDc6jcB2HpKW-2" vertex="1">
                    <mxGeometry width="119" height="36" as="geometry">
                        <mxRectangle width="119" height="36" as="alternateBounds"/>
                    </mxGeometry>
                </mxCell>
                <mxCell id="uDgyNN_LDDc6jcB2HpKW-4" value="Height" style="shape=partialRectangle;html=1;whiteSpace=wrap;connectable=0;overflow=hidden;fillColor=#FFBA52;top=0;left=0;bottom=0;right=0;pointerEvents=1;fontSize=16;strokeColor=#36393d;" parent="uDgyNN_LDDc6jcB2HpKW-2" vertex="1">
                    <mxGeometry x="119" width="117" height="36" as="geometry">
                        <mxRectangle width="117" height="36" as="alternateBounds"/>
                    </mxGeometry>
                </mxCell>
                <mxCell id="uDgyNN_LDDc6jcB2HpKW-5" value="Weight" style="shape=partialRectangle;html=1;whiteSpace=wrap;connectable=0;overflow=hidden;fillColor=#FFBA52;top=0;left=0;bottom=0;right=0;pointerEvents=1;fontSize=16;strokeColor=#36393d;" parent="uDgyNN_LDDc6jcB2HpKW-2" vertex="1">
                    <mxGeometry x="236" width="119" height="36" as="geometry">
                        <mxRectangle width="119" height="36" as="alternateBounds"/>
                    </mxGeometry>
                </mxCell>
                <mxCell id="uDgyNN_LDDc6jcB2HpKW-6" value="Diabetes?" style="shape=partialRectangle;html=1;whiteSpace=wrap;connectable=0;overflow=hidden;fillColor=#FFBA52;top=0;left=0;bottom=0;right=0;pointerEvents=1;fontSize=16;strokeColor=#36393d;" parent="uDgyNN_LDDc6jcB2HpKW-2" vertex="1">
                    <mxGeometry x="355" width="119" height="36" as="geometry">
                        <mxRectangle width="119" height="36" as="alternateBounds"/>
                    </mxGeometry>
                </mxCell>
                <mxCell id="uDgyNN_LDDc6jcB2HpKW-7" value="Transplants?" style="shape=partialRectangle;html=1;whiteSpace=wrap;connectable=0;overflow=hidden;fillColor=#FFBA52;top=0;left=0;bottom=0;right=0;pointerEvents=1;fontSize=16;strokeColor=#36393d;" parent="uDgyNN_LDDc6jcB2HpKW-2" vertex="1">
                    <mxGeometry x="474" width="117" height="36" as="geometry">
                        <mxRectangle width="117" height="36" as="alternateBounds"/>
                    </mxGeometry>
                </mxCell>
                <mxCell id="uDgyNN_LDDc6jcB2HpKW-8" value="" style="shape=partialRectangle;html=1;whiteSpace=wrap;connectable=0;overflow=hidden;fillColor=#FFBA52;top=0;left=0;bottom=0;right=0;pointerEvents=1;fontSize=16;strokeColor=#36393d;" parent="uDgyNN_LDDc6jcB2HpKW-2" vertex="1">
                    <mxGeometry x="591" width="119" height="36" as="geometry">
                        <mxRectangle width="119" height="36" as="alternateBounds"/>
                    </mxGeometry>
                </mxCell>
                <mxCell id="uDgyNN_LDDc6jcB2HpKW-9" value="" style="shape=tableRow;horizontal=0;startSize=0;swimlaneHead=0;swimlaneBody=0;top=0;left=0;bottom=0;right=0;collapsible=0;dropTarget=0;fillColor=none;points=[[0,0.5],[1,0.5]];portConstraint=eastwest;fontSize=16;" parent="uDgyNN_LDDc6jcB2HpKW-1" vertex="1">
                    <mxGeometry y="36" width="710" height="49" as="geometry"/>
                </mxCell>
                <mxCell id="uDgyNN_LDDc6jcB2HpKW-10" value="Value 1" style="shape=partialRectangle;html=1;whiteSpace=wrap;connectable=0;overflow=hidden;fillColor=none;top=0;left=0;bottom=0;right=0;pointerEvents=1;fontSize=16;" parent="uDgyNN_LDDc6jcB2HpKW-9" vertex="1">
                    <mxGeometry width="119" height="49" as="geometry">
                        <mxRectangle width="119" height="49" as="alternateBounds"/>
                    </mxGeometry>
                </mxCell>
                <mxCell id="uDgyNN_LDDc6jcB2HpKW-11" value="Value 2" style="shape=partialRectangle;html=1;whiteSpace=wrap;connectable=0;overflow=hidden;fillColor=none;top=0;left=0;bottom=0;right=0;pointerEvents=1;fontSize=16;" parent="uDgyNN_LDDc6jcB2HpKW-9" vertex="1">
                    <mxGeometry x="119" width="117" height="49" as="geometry">
                        <mxRectangle width="117" height="49" as="alternateBounds"/>
                    </mxGeometry>
                </mxCell>
                <mxCell id="uDgyNN_LDDc6jcB2HpKW-12" value="Value 3" style="shape=partialRectangle;html=1;whiteSpace=wrap;connectable=0;overflow=hidden;fillColor=none;top=0;left=0;bottom=0;right=0;pointerEvents=1;fontSize=16;" parent="uDgyNN_LDDc6jcB2HpKW-9" vertex="1">
                    <mxGeometry x="236" width="119" height="49" as="geometry">
                        <mxRectangle width="119" height="49" as="alternateBounds"/>
                    </mxGeometry>
                </mxCell>
                <mxCell id="uDgyNN_LDDc6jcB2HpKW-13" value="Value 4" style="shape=partialRectangle;html=1;whiteSpace=wrap;connectable=0;overflow=hidden;fillColor=none;top=0;left=0;bottom=0;right=0;pointerEvents=1;fontSize=16;" parent="uDgyNN_LDDc6jcB2HpKW-9" vertex="1">
                    <mxGeometry x="355" width="119" height="49" as="geometry">
                        <mxRectangle width="119" height="49" as="alternateBounds"/>
                    </mxGeometry>
                </mxCell>
                <mxCell id="uDgyNN_LDDc6jcB2HpKW-14" value="Value 5" style="shape=partialRectangle;html=1;whiteSpace=wrap;connectable=0;overflow=hidden;fillColor=none;top=0;left=0;bottom=0;right=0;pointerEvents=1;fontSize=16;" parent="uDgyNN_LDDc6jcB2HpKW-9" vertex="1">
                    <mxGeometry x="474" width="117" height="49" as="geometry">
                        <mxRectangle width="117" height="49" as="alternateBounds"/>
                    </mxGeometry>
                </mxCell>
                <mxCell id="uDgyNN_LDDc6jcB2HpKW-15" value="Delete" style="shape=partialRectangle;html=1;whiteSpace=wrap;connectable=0;overflow=hidden;fillColor=none;top=0;left=0;bottom=0;right=0;pointerEvents=1;fontSize=16;" parent="uDgyNN_LDDc6jcB2HpKW-9" vertex="1">
                    <mxGeometry x="591" width="119" height="49" as="geometry">
                        <mxRectangle width="119" height="49" as="alternateBounds"/>
                    </mxGeometry>
                </mxCell>
                <mxCell id="uDgyNN_LDDc6jcB2HpKW-16" value="" style="shape=tableRow;horizontal=0;startSize=0;swimlaneHead=0;swimlaneBody=0;top=0;left=0;bottom=0;right=0;collapsible=0;dropTarget=0;fillColor=none;points=[[0,0.5],[1,0.5]];portConstraint=eastwest;fontSize=16;" parent="uDgyNN_LDDc6jcB2HpKW-1" vertex="1">
                    <mxGeometry y="85" width="710" height="59" as="geometry"/>
                </mxCell>
                <mxCell id="uDgyNN_LDDc6jcB2HpKW-17" value="Value 4" style="shape=partialRectangle;html=1;whiteSpace=wrap;connectable=0;overflow=hidden;fillColor=#dae8fc;top=0;left=0;bottom=0;right=0;pointerEvents=1;fontSize=16;strokeColor=#6c8ebf;" parent="uDgyNN_LDDc6jcB2HpKW-16" vertex="1">
                    <mxGeometry width="119" height="59" as="geometry">
                        <mxRectangle width="119" height="59" as="alternateBounds"/>
                    </mxGeometry>
                </mxCell>
                <mxCell id="uDgyNN_LDDc6jcB2HpKW-18" value="Value 5" style="shape=partialRectangle;html=1;whiteSpace=wrap;connectable=0;overflow=hidden;fillColor=#dae8fc;top=0;left=0;bottom=0;right=0;pointerEvents=1;fontSize=16;strokeColor=#6c8ebf;" parent="uDgyNN_LDDc6jcB2HpKW-16" vertex="1">
                    <mxGeometry x="119" width="117" height="59" as="geometry">
                        <mxRectangle width="117" height="59" as="alternateBounds"/>
                    </mxGeometry>
                </mxCell>
                <mxCell id="uDgyNN_LDDc6jcB2HpKW-19" value="Value 6" style="shape=partialRectangle;html=1;whiteSpace=wrap;connectable=0;overflow=hidden;fillColor=#dae8fc;top=0;left=0;bottom=0;right=0;pointerEvents=1;fontSize=16;strokeColor=#6c8ebf;" parent="uDgyNN_LDDc6jcB2HpKW-16" vertex="1">
                    <mxGeometry x="236" width="119" height="59" as="geometry">
                        <mxRectangle width="119" height="59" as="alternateBounds"/>
                    </mxGeometry>
                </mxCell>
                <mxCell id="uDgyNN_LDDc6jcB2HpKW-20" value="Value 3" style="shape=partialRectangle;html=1;whiteSpace=wrap;connectable=0;overflow=hidden;fillColor=#dae8fc;top=0;left=0;bottom=0;right=0;pointerEvents=1;fontSize=16;strokeColor=#6c8ebf;" parent="uDgyNN_LDDc6jcB2HpKW-16" vertex="1">
                    <mxGeometry x="355" width="119" height="59" as="geometry">
                        <mxRectangle width="119" height="59" as="alternateBounds"/>
                    </mxGeometry>
                </mxCell>
                <mxCell id="uDgyNN_LDDc6jcB2HpKW-21" value="Value 4" style="shape=partialRectangle;html=1;whiteSpace=wrap;connectable=0;overflow=hidden;fillColor=#dae8fc;top=0;left=0;bottom=0;right=0;pointerEvents=1;fontSize=16;strokeColor=#6c8ebf;" parent="uDgyNN_LDDc6jcB2HpKW-16" vertex="1">
                    <mxGeometry x="474" width="117" height="59" as="geometry">
                        <mxRectangle width="117" height="59" as="alternateBounds"/>
                    </mxGeometry>
                </mxCell>
                <mxCell id="uDgyNN_LDDc6jcB2HpKW-22" value="Delete" style="shape=partialRectangle;html=1;whiteSpace=wrap;connectable=0;overflow=hidden;fillColor=#dae8fc;top=0;left=0;bottom=0;right=0;pointerEvents=1;fontSize=16;strokeColor=#6c8ebf;" parent="uDgyNN_LDDc6jcB2HpKW-16" vertex="1">
                    <mxGeometry x="591" width="119" height="59" as="geometry">
                        <mxRectangle width="119" height="59" as="alternateBounds"/>
                    </mxGeometry>
                </mxCell>
                <mxCell id="uDgyNN_LDDc6jcB2HpKW-23" value="" style="shape=tableRow;horizontal=0;startSize=0;swimlaneHead=0;swimlaneBody=0;top=0;left=0;bottom=0;right=0;collapsible=0;dropTarget=0;fillColor=none;points=[[0,0.5],[1,0.5]];portConstraint=eastwest;fontSize=16;" parent="uDgyNN_LDDc6jcB2HpKW-1" vertex="1">
                    <mxGeometry y="144" width="710" height="60" as="geometry"/>
                </mxCell>
                <mxCell id="uDgyNN_LDDc6jcB2HpKW-24" value="Value 7" style="shape=partialRectangle;html=1;whiteSpace=wrap;connectable=0;overflow=hidden;fillColor=none;top=0;left=0;bottom=0;right=0;pointerEvents=1;fontSize=16;" parent="uDgyNN_LDDc6jcB2HpKW-23" vertex="1">
                    <mxGeometry width="119" height="60" as="geometry">
                        <mxRectangle width="119" height="60" as="alternateBounds"/>
                    </mxGeometry>
                </mxCell>
                <mxCell id="uDgyNN_LDDc6jcB2HpKW-25" value="Value 8" style="shape=partialRectangle;html=1;whiteSpace=wrap;connectable=0;overflow=hidden;fillColor=none;top=0;left=0;bottom=0;right=0;pointerEvents=1;fontSize=16;" parent="uDgyNN_LDDc6jcB2HpKW-23" vertex="1">
                    <mxGeometry x="119" width="117" height="60" as="geometry">
                        <mxRectangle width="117" height="60" as="alternateBounds"/>
                    </mxGeometry>
                </mxCell>
                <mxCell id="uDgyNN_LDDc6jcB2HpKW-26" value="Value 9" style="shape=partialRectangle;html=1;whiteSpace=wrap;connectable=0;overflow=hidden;fillColor=none;top=0;left=0;bottom=0;right=0;pointerEvents=1;fontSize=16;" parent="uDgyNN_LDDc6jcB2HpKW-23" vertex="1">
                    <mxGeometry x="236" width="119" height="60" as="geometry">
                        <mxRectangle width="119" height="60" as="alternateBounds"/>
                    </mxGeometry>
                </mxCell>
                <mxCell id="uDgyNN_LDDc6jcB2HpKW-27" value="Value 3" style="shape=partialRectangle;html=1;whiteSpace=wrap;connectable=0;overflow=hidden;fillColor=none;top=0;left=0;bottom=0;right=0;pointerEvents=1;fontSize=16;" parent="uDgyNN_LDDc6jcB2HpKW-23" vertex="1">
                    <mxGeometry x="355" width="119" height="60" as="geometry">
                        <mxRectangle width="119" height="60" as="alternateBounds"/>
                    </mxGeometry>
                </mxCell>
                <mxCell id="uDgyNN_LDDc6jcB2HpKW-28" value="Value 3" style="shape=partialRectangle;html=1;whiteSpace=wrap;connectable=0;overflow=hidden;fillColor=none;top=0;left=0;bottom=0;right=0;pointerEvents=1;fontSize=16;" parent="uDgyNN_LDDc6jcB2HpKW-23" vertex="1">
                    <mxGeometry x="474" width="117" height="60" as="geometry">
                        <mxRectangle width="117" height="60" as="alternateBounds"/>
                    </mxGeometry>
                </mxCell>
                <mxCell id="uDgyNN_LDDc6jcB2HpKW-29" value="Delete" style="shape=partialRectangle;html=1;whiteSpace=wrap;connectable=0;overflow=hidden;fillColor=none;top=0;left=0;bottom=0;right=0;pointerEvents=1;fontSize=16;" parent="uDgyNN_LDDc6jcB2HpKW-23" vertex="1">
                    <mxGeometry x="591" width="119" height="60" as="geometry">
                        <mxRectangle width="119" height="60" as="alternateBounds"/>
                    </mxGeometry>
                </mxCell>
                <mxCell id="uDgyNN_LDDc6jcB2HpKW-30" value="" style="shape=tableRow;horizontal=0;startSize=0;swimlaneHead=0;swimlaneBody=0;top=0;left=0;bottom=0;right=0;collapsible=0;dropTarget=0;fillColor=none;points=[[0,0.5],[1,0.5]];portConstraint=eastwest;fontSize=16;" parent="uDgyNN_LDDc6jcB2HpKW-1" vertex="1">
                    <mxGeometry y="204" width="710" height="70" as="geometry"/>
                </mxCell>
                <mxCell id="uDgyNN_LDDc6jcB2HpKW-31" value="Value 10" style="shape=partialRectangle;html=1;whiteSpace=wrap;connectable=0;overflow=hidden;fillColor=#dae8fc;top=0;left=0;bottom=0;right=0;pointerEvents=1;fontSize=16;strokeColor=#6c8ebf;" parent="uDgyNN_LDDc6jcB2HpKW-30" vertex="1">
                    <mxGeometry width="119" height="70" as="geometry">
                        <mxRectangle width="119" height="70" as="alternateBounds"/>
                    </mxGeometry>
                </mxCell>
                <mxCell id="uDgyNN_LDDc6jcB2HpKW-32" value="Value 11" style="shape=partialRectangle;html=1;whiteSpace=wrap;connectable=0;overflow=hidden;fillColor=#dae8fc;top=0;left=0;bottom=0;right=0;pointerEvents=1;fontSize=16;strokeColor=#6c8ebf;" parent="uDgyNN_LDDc6jcB2HpKW-30" vertex="1">
                    <mxGeometry x="119" width="117" height="70" as="geometry">
                        <mxRectangle width="117" height="70" as="alternateBounds"/>
                    </mxGeometry>
                </mxCell>
                <mxCell id="uDgyNN_LDDc6jcB2HpKW-33" value="Value 12" style="shape=partialRectangle;html=1;whiteSpace=wrap;connectable=0;overflow=hidden;fillColor=#dae8fc;top=0;left=0;bottom=0;right=0;pointerEvents=1;fontSize=16;strokeColor=#6c8ebf;" parent="uDgyNN_LDDc6jcB2HpKW-30" vertex="1">
                    <mxGeometry x="236" width="119" height="70" as="geometry">
                        <mxRectangle width="119" height="70" as="alternateBounds"/>
                    </mxGeometry>
                </mxCell>
                <mxCell id="uDgyNN_LDDc6jcB2HpKW-34" value="Value 3" style="shape=partialRectangle;html=1;whiteSpace=wrap;connectable=0;overflow=hidden;fillColor=#dae8fc;top=0;left=0;bottom=0;right=0;pointerEvents=1;fontSize=16;strokeColor=#6c8ebf;" parent="uDgyNN_LDDc6jcB2HpKW-30" vertex="1">
                    <mxGeometry x="355" width="119" height="70" as="geometry">
                        <mxRectangle width="119" height="70" as="alternateBounds"/>
                    </mxGeometry>
                </mxCell>
                <mxCell id="uDgyNN_LDDc6jcB2HpKW-35" value="Value 3" style="shape=partialRectangle;html=1;whiteSpace=wrap;connectable=0;overflow=hidden;fillColor=#dae8fc;top=0;left=0;bottom=0;right=0;pointerEvents=1;fontSize=16;strokeColor=#6c8ebf;" parent="uDgyNN_LDDc6jcB2HpKW-30" vertex="1">
                    <mxGeometry x="474" width="117" height="70" as="geometry">
                        <mxRectangle width="117" height="70" as="alternateBounds"/>
                    </mxGeometry>
                </mxCell>
                <mxCell id="uDgyNN_LDDc6jcB2HpKW-36" value="Delete" style="shape=partialRectangle;html=1;whiteSpace=wrap;connectable=0;overflow=hidden;fillColor=#dae8fc;top=0;left=0;bottom=0;right=0;pointerEvents=1;fontSize=16;strokeColor=#6c8ebf;" parent="uDgyNN_LDDc6jcB2HpKW-30" vertex="1">
                    <mxGeometry x="591" width="119" height="70" as="geometry">
                        <mxRectangle width="119" height="70" as="alternateBounds"/>
                    </mxGeometry>
                </mxCell>
                <mxCell id="uIjy9pPlN8lVBrtNfIQ2-1" value="" style="strokeWidth=1;shadow=0;dashed=0;align=center;html=1;shape=mxgraph.mockup.text.rrect;rSize=0;strokeColor=#666666;" parent="tRBqlzc9bL4NBkPRB6TM-22" vertex="1">
                    <mxGeometry x="480" y="120" width="520" height="40" as="geometry"/>
                </mxCell>
                <mxCell id="uIjy9pPlN8lVBrtNfIQ2-2" value="&lt;font color=&quot;#000000&quot;&gt;Login&lt;/font&gt;" style="strokeColor=inherit;fillColor=inherit;gradientColor=inherit;strokeWidth=1;shadow=0;dashed=0;align=center;html=1;shape=mxgraph.mockup.text.rrect;rSize=0;fontSize=17;fontColor=#0000ff;" parent="uIjy9pPlN8lVBrtNfIQ2-1" vertex="1">
                    <mxGeometry x="117.74" width="127.55" height="40" as="geometry"/>
                </mxCell>
                <mxCell id="uIjy9pPlN8lVBrtNfIQ2-3" value="" style="strokeColor=inherit;fillColor=inherit;gradientColor=inherit;strokeWidth=1;shadow=0;dashed=0;align=center;html=1;shape=mxgraph.mockup.text.rrect;rSize=0;fontSize=17;fontColor=#0000ff;" parent="uIjy9pPlN8lVBrtNfIQ2-1" vertex="1">
                    <mxGeometry x="245.28" width="156.98" height="40" as="geometry"/>
                </mxCell>
                <mxCell id="uIjy9pPlN8lVBrtNfIQ2-4" value="&lt;font color=&quot;#000000&quot;&gt;Logout&lt;/font&gt;" style="strokeColor=inherit;fillColor=inherit;gradientColor=inherit;strokeWidth=1;shadow=0;dashed=0;align=center;html=1;shape=mxgraph.mockup.text.rrect;rSize=0;fontSize=17;fontColor=#0000ff;" parent="uIjy9pPlN8lVBrtNfIQ2-1" vertex="1">
                    <mxGeometry x="402.26" width="117.74" height="40" as="geometry"/>
                </mxCell>
                <mxCell id="uIjy9pPlN8lVBrtNfIQ2-5" value="&lt;font color=&quot;#3399ff&quot;&gt;Predictions&lt;/font&gt;" style="strokeWidth=1;shadow=0;dashed=0;align=center;html=1;shape=mxgraph.mockup.forms.comboBox;strokeColor=#999999;fillColor=#ddeeff;align=left;fillColor2=#aaddff;mainText=;fontColor=#666666;fontSize=17;spacingLeft=3;" parent="uIjy9pPlN8lVBrtNfIQ2-1" vertex="1">
                    <mxGeometry x="250.19" width="147.17" height="40" as="geometry"/>
                </mxCell>
                <mxCell id="uIjy9pPlN8lVBrtNfIQ2-6" value="&lt;font color=&quot;#000000&quot;&gt;Home&lt;/font&gt;" style="strokeColor=inherit;fillColor=inherit;gradientColor=inherit;strokeWidth=1;shadow=0;dashed=0;align=center;html=1;shape=mxgraph.mockup.text.rrect;rSize=0;fontSize=17;fontColor=#0000ff;" parent="uIjy9pPlN8lVBrtNfIQ2-1" vertex="1">
                    <mxGeometry width="120" height="40" as="geometry"/>
                </mxCell>
                <mxCell id="aQaBJyp1dls4tFrQ8Ses-1" value="&lt;b&gt;&lt;font style=&quot;font-size: 36px;&quot;&gt;History&lt;/font&gt;&lt;/b&gt;" style="text;html=1;strokeColor=none;fillColor=none;align=center;verticalAlign=middle;whiteSpace=wrap;rounded=0;" parent="tRBqlzc9bL4NBkPRB6TM-22" vertex="1">
                    <mxGeometry x="230" y="280" width="60" height="30" as="geometry"/>
                </mxCell>
                <mxCell id="KdAgUwucHzMY1b7lbExI-1" value="" style="shape=image;verticalLabelPosition=bottom;labelBackgroundColor=default;verticalAlign=top;aspect=fixed;imageAspect=0;image=data:image/png,iVBORw0KGgoAAAANSUhEUgAAATQAAACwCAYAAACB15LlAAAAAXNSR0IArs4c6QAAAARnQU1BAACxjwv8YQUAAAAJcEhZcwAADsMAAA7DAcdvqGQAABuCSURBVHhe7d1/bJv1nQfwN9c/LPU0o25LVaRYoNobwtBpLkVL1mpx6ZGn684JHamprkm5NemmJkwi2SaS7QQBDRw0lqBbUwRtmGgoGm60EudW6t66OlrAmdqLTytYGtgS4EhU8UZVS1fVrJXv+32ex4mT2I7TkLX+9v2SHvz4if08fn69/fl+n8fllowAIiIF/JP5SERU9hhoRKQMBhoRKYOBRkTKYKARkTIYaESkDAYaESmDgUZEymCgEZEy+EsBIiobly9fNsfyY4VGRGVD1l/FBgYaEZWNW265pejAQCOispEvxHIHBhoRlY18zczcgYFGRMpgoBGRMhhoRKQMBhoRlY18FwJyBwYaESmDvxQgorLx2WefmWP5sUIjImUw0IiobOTec5ZvYJOTiMoGm5xEdNNghUZEZePvf/+7OZYfA42IysZCTU4GGhGVjYUqNPahEZEyGGhEpAwGGhEpg31oRFQ2rly5Yo7lx0AjorLB2zaISBkLVWjsQ1ui5FAz7HY77D0Rcwr9IxXa/umPIgiPRZG8ak5YLsmoWE4EiUvmc7quyjfQzvvRLA9kOdT0I1rqgXuuH+7s+/b4kTQnK+FqBL51ct2c6B5LmxMXS8wju33yDRs0NP64F4Foynz9jSiC/n9tQOMjHnQGlnMPJxH4mUcspwHaS9fvCy3SY+yb5iGljuZrokaFNnkUp6PmeFFphH/bj4T5TDXp8DAG9UohjcGTYfHfpbCgwumEc13u4ID1QgzhY/1o91TB0xdZ4jKWix13b7MCK51Yf4d4XJJswDfDf96cNK0CjvucYktZ4XZUmtPoelKkyZlA/29LOIEvBDF4+MY8BZcuheAbgzPb4IgfwQvm+DWpRsfBEYy8mTsEEXk/itDLTXCIJUX370LrsRuxKrBCey6C+LkRtLks5rTl4dw7gmg8ggOeCnMKXU/lH2jrXHCtFDXJ4cEFT+DE8cMIikebqDyUO/wuhHDiuHis7IDvSacYCWL41DKEzQoLbFu6cegZt3iSRugFP0oqjok+B/n+PwK5Q/kH2he92P0DmxgJ4vDxIo3Jq1EEXpb9HC407/xm0b6zVDQA3z4PqvT+qGy/0SGE5zU5ikkj0qPp73d6ehGZ22mciiG0vxWejc4lLGNGNqydzRq8NV6xlkDoNyeWrXlt2+ZFnRyZnMC72c981mesyx4/Eskw+vdpcMnn3w/M3t5Xk4gc6UZjrct4/TrRfN3nK9ovZ+wTc352F7RHuuEXr79s/n22JPx75Ovs8J01J+VKiWOhrx0N2W2fb/nZdbE34JA+IYSujcY8c/uqFuq/So4dQvsj2c9th6u2Ee0Hw/kvVmSXKS9wiG0UPpjzGcXx0doTQOwmv/ggb8ooNpR/oMWTcHia9RM48nKg8MWByDD6J8WjONm33mlMmk+EUJ8IMk87Dp2MA3cYfUcOyH4jHxofaIZfzmNBcj4N2HUwBthbcOSNDr2KnDYZQOv9Gpr7gohDBJ7sn7IkzGV40Ht2sc1iEY5HjbD21jiA292o1zfIAALn9Bd8/qyrsdocnedTP9rvb0TvyZhoCAtXcmLnUgS9D9ag4YlBhD9dbaz7baL5elKc+J4a0YSdH8GJY62o0feJmN/KCvGeSlycGESXpwotL4v9tBj6tvegfX8AkbSt8PIr1qPt0TYx1OnHlohwuHfL521w31FCM1YEUugpDVWPiKAcS8Bi9kdaPgkj0NOIqm93I1ToW/X9Yfj+rQaNIsDi/yyOD7tVVOAxBEXA1T0mviyW+8rtDSxfVZY7yFQrT5+8kdmzdm1m7dpnMxOZjzOHH5Ljd2We/ONl8wW5Lmfe6b5L/H1tZl/gYiZz5ll9fO333shMma+QLv/xycxdcvoDT2ZOf2JOlK5czLzjqzXe8+hwRsxh2tTRPcZ034Q5JZP5WEzT53PPnswbCXNi1uWJzC8fEH9bW5vpDHxsTjR8/NvHMjX68vdn3rtiTizFn/cb73vosNgShuznqvnVe+aUUk1knpXzWis+e+42mOviicxjc1+X3a5iuMv7y8zp2FTm4uXLmcsXs/tkKjO8V+6HuzIPHZjIXMxZx4sT+zMPyffe81jmxKfmROmT4cyee+Q878rsefW9mfdcuZz5INCZqTWXl7v95XLe+J4x/dkz5iRpetsXWL6+nIcyhz80J+qKb48Jn7GcPUdzj6RM5oNXH9Knr32gMzOcO78rU5nT3eaxJPbXB7n7edb225+ZyN0OH4rj3dwOs9ZJKPQZVHTlypWigyIXBWyoF2W9rIz8pybEf+fIXgxY2YSm2sJXvaYuWdEivoG7n+2Ae405UVphRXVrh9HEOj6BiSIFVGKoGdrjIaRXuuH7rwF451z8Sgw9g35RVNja++DzyKbyDNv2p9CxTYzE++EPl1qlzVy5dW13iy1hqNhSD7lFEi/5UfKsFiFx3I+AHKlcj3tyt5VU2YKBX4ttaK+A1WKBxWpUNOmxfnSeEh9mWw9e2eeCdYU+WWd1teHpdvHpLwVwMKfrIHqsFyHRzLLsOoADu50z71lhEZW5D/0/k/2FpUmdPKhve9R048U8y+/5iV7WYuD4EnsF02G89gtZMTvQ8YIPdbcbk3UrKuD+j35064vyYeBUnma2vv3a4FplPpdu96JlpxxJ473YcnUklD9FAk0ckLUirApcHJi+GPADL6qLtBZstR3oaO9A04Y8oTfdxEpgqsDFh/RZH1pkmIkDueXXB+DNPZB1SYRPyQPdhh335zsRRXDWmJ3t50psSqUnEBySieWGd0tOQK5yY6sMx0uDIuQ/x3vGLiUQOdKFlp+FxBML3I95MW9N7HY4cpvYpuiYX/+yqfu2W6zpfM4qGcHiPD8TNZqqYlu/K5prkndLtVjafLeK/VKaNCbOyKNALL9ha96LQo6avXqTsk58CS3lOyA9Lr5AZV9XTTO8+XbzCge27jT2s38szxdwge3nuFO+Bwh/+Ff9keZTJtBgqYY338WB3IsBHuPoSiZi+mMhybFBdO/zQNtgdOQaQ7ZzuID396P1e4cg51yxrwddG/KdfpOIj8rHBHo9ufOeGapEIOqvuFjaKZU6OWicPNvqsXVWpWSFu9YIiMBbITMgFmOmE3zWsM6Nhif8Yj1F+HYO4cD2Uq8XJ/HB+8Y6BX5oXgyYOzxsbuHURfMk/yvi4/LRDeedJfRbFZXClNn/uXp1gSr9dk3/QusQx8lSljb1iXl8ffUrBa+mV9jvNpYRn8KUPoU+D+oEmuDMc3EgHfYbFwO27UZ9tmIq1Kl6NaGfbFWPdGPwzGewbzM6gWd3DhcwGtKbRlLyxWcwWLTAynfT6pzhS+ZLi0rixDGj6tBq51c91pp6s5l8GMMf6ZMWodBn1NDU6cPQ2xG8tvfaTnyrPd98c4bbbjVf+XnKfpksv79+GDbHiritEtXycTwuYntpKh1G5WZdudTQv/HluxCQOygVaLi9HrtlM2sy2wclmhmnZDPHgqaHtbzNnFyJ37Sj/XgKli0+hP4UxIGnjSaoMezGvebr8hPNr+dCGPmxQ4xHRIXnm3+rxrR8N63OGfYWjU/DRyfgN0/S4GN5qh5Xq9HPJT6Pf7R4VTpfoc94AN17vXDN7TdbBO+z+eabMzyjLcN9gpWw15ijy+zLd+hRVdxkXNTAwrpKfEGfsHQFK8+biFqBJiJLe7hJRIv505/sxYDKNniLdZ7pkoiMyqYp0LTHC1tOh3FJGg7gQIMNzu8fgm+LWFb8EDr/c+5Pg76AynXyMYToX2b/5VpERwZEVIkoXZOnyskOzgq9iooOBEv/veuysGK1eYHknWip4fpl2KvkYwjxD/UJSzCz/KmpAg3wq2mkLqSQSi1t36y+TX6pCe9/II6q/JIfmtvga7bpCznXqqJhAPF4HF0bzAk3McUCTXaledEmD9wjfvS+ZF4M2LkZzhIC6nKxf5kk/i7+xxzNa9WtRvNrhQ3eJ7rhXgnEDu5Cp6j4Zjhwr2YcvoOvDhe4n0ieVOZoMVejOH1U9hVa4H1uKH+low+vGNtjumq9XixYX6U3gEW4HkW4QPUqA2WGDfdsMrfXcXmxZb7k+VLvQxPLv694n2LqeDtcG1yoGljaVU5LlWiWy079UT9O5Pt4V2M48Rvjoop303rjuKGS5Gtm5g7KBRpWOLF5h3Fx4NBB82LAtlIu7VfgK181Dq1Dz/cjknPEJ88eQuvD3Xo1VJJKLw7sNyrFwOPts27Gde7sQp1+sHeh5eeh2XeMp2Pi9XVwfcuD3vECVYRpum9woepzensUuKXlH8iq7UWHXYxMHkLzY4OY9cOAqylEXmxA1YYaNOfcXJvdXukjrWg9HEUqu71ENRUb6UJ7X+m3MFhr96JNLv94J9pz5yWkooNo/6n8+nOhqy5fcz+OZKFyay5LNRrNW0C693UjlPvrD3nD7c/b0K0fml1o3vI5NBNTMUTGIogVP2RuCuoFmpC9OKDLvRiwANe/90CT9/5EetHgssO5sUr/yUrVwz6E7C5znlNI/58+UpSlpgtH9oqmx6UQup7Iubt7lYae141fDsQON6Pq61XwPOgRgwaXU0P7UAyObY9ix33FDvQ0wieNH6LLnzotVH1mt0cpv3ddViJc2145AK8IlfSpbnhcLmj6unvEdnCh4Xlxlm9owY/MKlYnttdTLxo/hg895YHL3F5VX3dCe2wYXxAVVcksLnS80if2sTmvb2jGtq8V+9YjgueSA95f9aFJht40J9y75RdGAr0Pys+robWEf6bHsetFDOwW+z8+iOaNTlR5sutZhebDorlpF196L4j1WmzXxjwpBJ/Q0CD/CaPn81exNxMlA2364oCokUq5GDBtTR0O/GEEfXs1OESwpc8nkV7jQl3naxh9/UXs3iJfFEW4pH8LzAJXe49REchq7Bcz/WmWdW0YettYjtOaQvRcVAxTWL2pDl2vjiP4nFa8D+9CEP4jcsT8qdNCprfHMv1gfTEqNfjeGsdrnXWoFtsmpq+7aJfdoaHlhRGMv94Gp6xgc1g3dePoSB9aah2wXkqK10/i1vVN6B4axdBPil+qmadyZh/Ln5vp2/4Tsa+2d+G1t4PwbcsJU50F1T8ZQpdctgiPmNhPljmfLy95A+2TQYy/KipM0WxOR+V6RpG+rVo/nsbf8kEz+/SWxgrb3cY/YaTdZ94KorBMnt9v5g78J7iJqGwsFFdqVmhEdFNioBGRMhhoRKQMBhoRKYMXBYhIGQw0IiobvMpJRDcNBhoRKYNNTiJSBgONiMrGQnHFQCMiZbAPjYiUwQqNiMoGm5xEdNNgk5OIlMFAIyJlMNCISBnsQyOisrFQXLFCIyJlsEIjImWwQiMiZTDQiEgZDDQiUgYDjYiUwUAjImXc8re//Y1XOYmoLHzxi180x/LjbRtEpAw2OYlIGQw0IlIGA42IlMFAIyJlMNCISBkMNCJSBgONiJTBQCMiZTDQiEgZDDQiUgYDjYiUwUAjImUw0IhIGQw0IlIGA42IlMFAIyJlMNCISBkMNCJSBgONiJTBQCMiZTDQiEgZDDQiUgYDjYiUcZMGWhqJs2GEo0nzueKuJhEdCyPyUdqcQKSmsgy06H437HY77D8MIGVOKywJ/x7xWvF69/6oMSnSD+3hRjR6OhG4wTMtOdRsrGtPxJxSWKTHWM+5r00GOuF5pBEN/9qPhedCVL7KMtCcNTtgkyPHTyB0QZ9U2Ecn4B+VI040f9upT8Idd6N+FWBxrofNakxSWcWd1XCuBKxuByrNadcqG5rNQzdJdUtlpTybnOs0NK+TI0GcGCteoyXGho2qxOWF265PAlZp8J2NIzrSBpfFnKYyZwtGzsUR+VUdKsxJRCoq0z40B9w7XPpY8NgJ0agsJIHQMaOR5d651ajqiEhZZXtRwLZFVFxyZDSI0+f1SfPFQ/DreaahfktObXLej2bZ12T35e9TSsUQ2t8Kz0an0Se1QUPjjw8hPGs52b45N/rNrrlciSMN+nsbjiTMKTmi/aJaFO/d4y8Sxp+jsz5jPfIt75II/YPtaMiuq90F7ZF2HBrLfWUEPv1vYn0OGlNCj1cVnGcqGoBvnwdV64z3ODd60NoTQDRfMZ3z2RLJMPr3aXDJ598PIJkOo1ufh9jG58zXzxLD4IPGMrpHecGDyjjQsGYr6rfJERFap/KEhhB72w89azz1cK/SJy1sMoDW+0WTti+IOMTJuM4JpyWB8DEfGh/woPds9sSpwHq37JNL4MTZmDFpWhLhU0ZURk6F553wsbMnxLtES9C9/vo2Ac8H0fWgG80ibCJpm7GuolkeGxOB9EgNPH0RGGv7Zax/tA1tYqgzCmPxhdKkP2/b8hXMtNrTiB1uRpVHBOLJKNK3ifmJedrSUQRFaHo2NmPw/QLB86kf7fc3ovdkzLjQc+UyYFkPrUHOPYGjo3m+NeJh+GXQrWyCVnUz9B3QQso30GCF+9t1+ljkWEgPiNnESTQgTwILmhrc4tUlSEfQu6cdwQsOeF8IIfr2CEbeFMPbUYSer4PtUhT9Pz2E6FXj5Y4NRjM2OhadHVoXwgjpFyKE0RDCsy5cpBCfkJ/Lhq0bHMak6yKN8Evt8MfFeux9DZE/BY11PRlBZKgDLvH36H4RTHplZIPW3oEOMezeoL8Z9to2/XnHLtf0tk2P+lD3VAjplS50DIn5nDS2X/BPEYw86YblUgjdD/kQumS+Ide5CKLONgycHEckGkX0hXoR9hZUf6dJD8zE0dPGl1OOZETsI/FoadCwnnlGQhkHmog00exsWilGIsMIfWRMmxY9jaOT4nGlF9p9pR3tiaFn0C9OcFt7H3ye2T1utu1PoUNWhPF++MNmlXHnN6HJ5Z+awHs5hUcqfBpBcRrWeTTxTDSJwzltravvYWJEPK7U8M07jUklOWg0YYsN2eZgaaIID8kPXY3mxmpYVxhTJaurDT/aI8cSmPjLvEZqAQn4fzUoYlCs93OvoM2V8xWywgrn7gM4sEvsh0uD8B2ZW9EKlS0Y+HWHaIpXwGqxwGI195mrHm3y0uzkUZyelWhJnD4eEo8WeLes10OPqKwDbaZJEsHw2OwaLfqHo3rVZvuBF9UlHe3ZZqINO+43b++YxYrqGtlrl0bonEg9aYUT1dvliB/h6T6eNCbGA+LRi/rOesgaMjA+Iaaa/jIhIk7YXg1nTogsaJXDaBIWGRylNqt1lai8Tz6GERydX99W/yyOeDyOgYYSG8XZ/krR/Nut5auHLXDXGdVW7HdhzIs0EcgO+eUwl9jGm3fIL5c5zc5sFSyWV1/aDqabQHkHmjg9qr/bpjf7IkdDMyfJ1ShOH9XjrEA45TOJuN5MTKDXk78CqnpcVgTiFRez8WTB+ioZWWkEz5gnW1qcaEfE4y43qtdUY7Os6o6IZqf5lsSfw3rQ1lUtsqpo6DGahEWGngbztSWpQH1rm35/WugJN5wbG9D+zCACZ2NI5lSbJUtOGk3C++yoLBTUt98t6kHh3CSSZrO9FM77jfsOE7+ZaXYaVbDYA7u2wrWYLwZSWpkHmuDcjB2ySXJOVElm4TTd3HQ1o67UPJtmQYUzfwU0PXzJfKlgXV+tX21NnHnX6Ec7Fxb1WjawslVdtoJLIToeFo8i7NZf/zt6LRs6MPLfr6FruwvWVASBV7rR/rCGKqcLDfKqbqmtTSE5macZOVeFDUavYQyJRcwbTvO+w+lmZ7YKtqDpX8yrFERC+QeaaJJozTK1ohg4aXx/R37Xr1dBru1u/Zt9carRcTB/BTQ97M05idZshlYjHkfDmEiJZf9e9iPVYesmI7AqNmkivtIY/L1oj12NY+KUmFijYfMa/c/Xn6giW54fwvj/RhH5wwgGnmsTXwJpRORV3fubESh0S8wcFZUlXOA4/4FZRduwelHN4+x9h2azM1sFV7ahnnlGOco/0ARHjRf64S6bJOJgHz4i20wadm9bTJx9AZX6rw9CiP5lMW2u7O0bAUxEo3jnLfHemmpMF2AiMNziw6XfekfM9x0EL90At2tIV9NIXUghlTLXdYWoJ293wt3Qgb43xzGgd+CH0Hss28hbQEUl9GL4TByThZqTk3HI+hTrRLN0kd1etk310/s4ciakV8G2HZsX1w9JylMi0HD7VnhllSSaJMN9QfjlbQHbtpZ+75nOgXs1IwAHXx1GIu9JKUPAHM2RvX0j+PwTelPXvW1zTmDZUC3bveKzHXx5QtQY1/t2DdOf+1G1wQXXbv/8DvoVVtz9Nb23K6e/cAF2N7wycS4NYngs33vSCAVk9Sq213eqzabnIuTs486n/WI+NuyoWXR/AilOjUAT8bF1u7xFIoFDB42TpqlBK+3esxzOnV2ok1faRrvQ8vPQ7I7rdAyBx+vg+pYHveNzbnk3b99IRCLiE4gqxzW7/nJs9IqpCQRGQou/XWO5ODejSe979MF3OIpU7rqmohjWb4kQde7d2R/AzhY/P7cTzAbvD+VVTNG8frQVg7k/C7iaQvRwK1pl5byyCV27riXQZ/ZxLC7mU7kDm5lnNIcigQZYa71oMsev+c7xVRp6Xu+AS4STfsf716vgedAjBg0up4b2oRgc2x7FjvvmROX07RvCOi+q52aA/V5szf4zF4u9XWO5WFzo2C/XVVROT3ng+oY2s64uD3yj4iVbfOjaNntdnZvMG137xHtqPdB+OPPTJ0tNFwLZG2g9ovoTf5fz1L7hgid7w+3rXXDnuz2jBNZNWyEjTbLtZHOT5lMm0GCphrbbCDHLrvoS7z2bz7KuDUNvj6BvrwanVVQW56JimMLqTXXoenUcwec02OadSNnbN8SJpt2bpznlxOadRnN20bdrLKNZ62pJmOuagEWEd8sLIxh/0TtvXS2bujDUqen3vKXiUUytuNX8i2SBY/cAxkf60FLrhOUTOb8oEhYntL19GHl7CG3rlrD2q9zYqv/cjc1Nyu+WjGCOE93Y5I/VNzRi0N6N4JtNi++HI+WpU6GR8tLjxgUf53ev4aIC3RQYaFQezofge0Ze8HGjqZZxRvmxyUk3NPn/VMj+5Ez20VU/HcBr13SVlG4GrNDoxrbSqt9+Y1njQtNzAQwwzKgIVmhEpAxWaESkDAYaESmDgUZEymCgEZEyGGhEpAwGGhEpg4FGRMpgoBGRMhhoRKQMBhoRKYOBRkTKYKARkTIYaESkDAYaESmDgUZEymCgEZEyGGhEpAwGGhEpg4FGRMpgoBGRMhhoRKQMBhoRKYOBRkTKYKARkTIYaESkDAYaESmDgUZEymCgEZEyGGhEpAwGGhEpg4FGRMpgoBGRMhhoRKQMBhoRKYOBRkTKYKARkTIYaESkDAYaESmDgUZEymCgEZEyGGhEpAwGGhEpg4FGRMpgoBGRMhhoRKQMBhoRKYOBRkTKYKARkTIYaESkCOD/AfAH3neeZD0PAAAAAElFTkSuQmCC;" parent="1" vertex="1">
                    <mxGeometry x="670" y="-270" width="308" height="176" as="geometry"/>
                </mxCell>
                <mxCell id="YcJGeferhFkYFPnnBFXR-2" value="" style="endArrow=classic;html=1;rounded=0;fontFamily=Helvetica;fontSize=24;fontColor=#000000;entryX=1;entryY=0.75;entryDx=0;entryDy=0;" parent="1" target="KdAgUwucHzMY1b7lbExI-1" edge="1">
                    <mxGeometry width="50" height="50" relative="1" as="geometry">
                        <mxPoint x="963.0119565217392" y="90" as="sourcePoint"/>
                        <mxPoint x="990" y="-170" as="targetPoint"/>
                        <Array as="points">
                            <mxPoint x="1060" y="-120"/>
                        </Array>
                    </mxGeometry>
                </mxCell>
            </root>
        </mxGraphModel>
    </diagram>
</mxfile>